STARTFONT 2.1
FONT -FontForge-Arial-Book-R-Normal--38-360-75-75-P-181-ISO10646-1
SIZE 36 75 75
FONTBOUNDINGBOX 66 48 -17 -10
COMMENT "Generated by fontforge, http://fontforge.sourceforge.net"
COMMENT "(c) 2017 The Monotype Corporation. All Rights Reserved. "
COMMENT ""
COMMENT "Hebrew OpenType Layout logic copyright (c) 2003 & 2007, Ralph Hancock & John Hudson. This layout logic for Biblical Hebrew is open source software under the MIT License; see embedded license description for details."
STARTPROPERTIES 40
FOUNDRY "FontForge"
FAMILY_NAME "Arial"
WEIGHT_NAME "Book"
SLANT "R"
SETWIDTH_NAME "Normal"
ADD_STYLE_NAME ""
PIXEL_SIZE 38
POINT_SIZE 360
RESOLUTION_X 75
RESOLUTION_Y 75
SPACING "P"
AVERAGE_WIDTH 181
CHARSET_REGISTRY "ISO10646"
CHARSET_ENCODING "1"
FONTNAME_REGISTRY ""
CHARSET_COLLECTIONS "ISO8859-2 ISO8859-9 ISO8859-4 ISO10646-1"
FONT_NAME "ArialMT"
FACE_NAME "Arial"
COPYRIGHT "(c) 2017 The Monotype Corporation. All Rights Reserved. "
FONT_VERSION "7.01"
FONT_ASCENT 30
FONT_DESCENT 8
UNDERLINE_POSITION -5
UNDERLINE_THICKNESS 3
X_HEIGHT 19
CAP_HEIGHT 26
RAW_ASCENT 799
RAW_DESCENT 200
NORM_SPACE 11
RELATIVE_WEIGHT 40
RELATIVE_SETWIDTH 50
SUPERSCRIPT_X 0
SUPERSCRIPT_Y 18
SUPERSCRIPT_SIZE 24
SUBSCRIPT_X 0
SUBSCRIPT_Y 5
SUBSCRIPT_SIZE 24
FIGURE_WIDTH 21
AVG_LOWERCASE_WIDTH 190
AVG_UPPERCASE_WIDTH 258
ENDPROPERTIES
CHARS 802
STARTCHAR space
ENCODING 32
SWIDTH 277 0
DWIDTH 11 0
BBX 1 1 0 0
BITMAP
00
ENDCHAR
STARTCHAR exclam
ENCODING 33
SWIDTH 277 0
DWIDTH 11 0
BBX 3 27 4 0
BITMAP
E0
E0
E0
E0
E0
E0
E0
E0
E0
E0
E0
E0
E0
E0
40
40
40
40
40
40
40
00
00
00
E0
E0
E0
ENDCHAR
STARTCHAR quotedbl
ENCODING 34
SWIDTH 354 0
DWIDTH 13 0
BBX 10 10 1 17
BITMAP
E1C0
E1C0
E1C0
E1C0
E1C0
E1C0
E1C0
E1C0
40C0
4080
ENDCHAR
STARTCHAR numbersign
ENCODING 35
SWIDTH 556 0
DWIDTH 21 0
BBX 21 27 0 0
BITMAP
00E0E0
00E0E0
01E1C0
01C1C0
01C1C0
01C1C0
01C3C0
038380
FFFFF8
FFFFF8
FFFFF8
078700
070700
070700
070700
070F00
0E0E00
FFFFF8
FFFFF8
FFFFF8
1E1C00
1C1C00
1C1C00
1C1C00
1C3C00
383800
383800
ENDCHAR
STARTCHAR dollar
ENCODING 36
SWIDTH 556 0
DWIDTH 21 0
BBX 18 31 1 -3
BITMAP
00C000
03F000
0FFC00
1FFE00
3CCF00
78C700
70C380
70C380
70C000
70C000
78C000
3CC000
1FC000
0FF800
03FE00
00FF00
00C780
00C3C0
00C1C0
00C1C0
E0C1C0
E0C1C0
F0C3C0
78C780
7CCF80
3FFF00
1FFE00
03F800
00C000
00C000
00C000
ENDCHAR
STARTCHAR percent
ENCODING 37
SWIDTH 889 0
DWIDTH 34 0
BBX 30 27 2 0
BITMAP
1F000700
3FC00F00
79E00E00
70E01E00
E0701C00
E0703800
E0703800
E0707000
E070F000
E070E000
E071E000
70E1C000
79E387C0
3FC38FF0
0F071E78
000F1C38
000E381C
001E381C
001C381C
003C381C
0038381C
0070381C
0070381C
00E01C38
01E01E78
01C00FF0
03C007C0
ENDCHAR
STARTCHAR ampersand
ENCODING 38
SWIDTH 666 0
DWIDTH 25 0
BBX 22 27 2 0
BITMAP
01F000
07FC00
0FFE00
1F1F00
1C0700
1C0700
1C0700
1E0700
0E0E00
0F3C00
07F800
03F000
0FE000
1FE000
3C7000
787870
703CF0
E01EE0
E00FE0
E007E0
E007C0
F003C0
780FE0
7C1FF0
3FFE7C
1FFC38
07F010
ENDCHAR
STARTCHAR quotesingle
ENCODING 39
SWIDTH 190 0
DWIDTH 7 0
BBX 3 10 2 17
BITMAP
E0
E0
E0
E0
E0
E0
E0
E0
E0
40
ENDCHAR
STARTCHAR parenleft
ENCODING 40
SWIDTH 333 0
DWIDTH 13 0
BBX 8 35 2 -8
BITMAP
03
06
0E
0C
1C
18
38
38
30
70
70
70
E0
E0
E0
E0
E0
E0
E0
E0
E0
E0
E0
70
70
70
30
38
38
18
1C
0C
0E
06
03
ENDCHAR
STARTCHAR parenright
ENCODING 41
SWIDTH 333 0
DWIDTH 13 0
BBX 8 35 3 -8
BITMAP
C0
60
70
30
38
18
1C
1C
0C
0E
0E
0E
07
07
07
07
07
07
07
07
07
07
07
0E
0E
0E
0C
1C
1C
18
38
30
70
60
C0
ENDCHAR
STARTCHAR asterisk
ENCODING 42
SWIDTH 389 0
DWIDTH 15 0
BBX 13 12 1 15
BITMAP
0700
0700
0700
4710
F778
FFF8
3FE0
0F80
1DC0
3DE0
38E0
1040
ENDCHAR
STARTCHAR plus
ENCODING 43
SWIDTH 583 0
DWIDTH 22 0
BBX 17 17 2 5
BITMAP
01C000
01C000
01C000
01C000
01C000
01C000
01C000
FFFF80
FFFF80
FFFF80
01C000
01C000
01C000
01C000
01C000
01C000
01C000
ENDCHAR
STARTCHAR comma
ENCODING 44
SWIDTH 277 0
DWIDTH 11 0
BBX 3 9 3 -6
BITMAP
E0
E0
E0
60
60
60
60
C0
C0
ENDCHAR
STARTCHAR hyphen
ENCODING 45
SWIDTH 333 0
DWIDTH 13 0
BBX 11 3 1 8
BITMAP
FFE0
FFE0
FFE0
ENDCHAR
STARTCHAR period
ENCODING 46
SWIDTH 277 0
DWIDTH 11 0
BBX 3 3 3 0
BITMAP
E0
E0
E0
ENDCHAR
STARTCHAR slash
ENCODING 47
SWIDTH 277 0
DWIDTH 11 0
BBX 11 27 0 0
BITMAP
00E0
00E0
01C0
01C0
01C0
0380
0380
0380
0780
0700
0700
0700
0E00
0E00
0E00
1C00
1C00
1C00
3C00
3800
3800
3800
7000
7000
7000
E000
E000
ENDCHAR
STARTCHAR zero
ENCODING 48
SWIDTH 556 0
DWIDTH 21 0
BBX 17 27 2 0
BITMAP
07F000
0FFC00
1FFE00
3C1E00
780F00
700700
700700
F00700
E00380
E00380
E00380
E00380
E00380
E00380
E00380
E00380
E00380
E00380
E00380
600700
700700
700700
780F00
3C1E00
3FFC00
1FF800
07F000
ENDCHAR
STARTCHAR one
ENCODING 49
SWIDTH 556 0
DWIDTH 21 0
BBX 10 27 4 0
BITMAP
00C0
01C0
03C0
07C0
0FC0
3FC0
7DC0
F9C0
E1C0
81C0
01C0
01C0
01C0
01C0
01C0
01C0
01C0
01C0
01C0
01C0
01C0
01C0
01C0
01C0
01C0
01C0
01C0
ENDCHAR
STARTCHAR two
ENCODING 50
SWIDTH 556 0
DWIDTH 21 0
BBX 18 27 1 0
BITMAP
03F800
1FFE00
3FFF00
7C0F80
700780
F003C0
E001C0
E001C0
0001C0
0001C0
000380
000380
000700
000F00
001E00
003C00
007800
00F000
03E000
078000
0F0000
1E0000
3C0000
700000
7FFFC0
FFFFC0
FFFFC0
ENDCHAR
STARTCHAR three
ENCODING 51
SWIDTH 556 0
DWIDTH 21 0
BBX 17 27 2 0
BITMAP
07E000
1FF800
3FFC00
7C1E00
700F00
F00700
E00700
000700
000700
000E00
003E00
01F800
03FC00
03FE00
000F00
000700
000380
000380
000380
E00380
E00380
700780
700700
7C1E00
3FFE00
1FF800
07E000
ENDCHAR
STARTCHAR four
ENCODING 52
SWIDTH 556 0
DWIDTH 21 0
BBX 18 27 1 0
BITMAP
000E00
001E00
003E00
003E00
007E00
00FE00
01EE00
01CE00
038E00
078E00
070E00
0E0E00
1E0E00
3C0E00
380E00
780E00
F00E00
FFFFC0
FFFFC0
FFFFC0
000E00
000E00
000E00
000E00
000E00
000E00
000E00
ENDCHAR
STARTCHAR five
ENCODING 53
SWIDTH 556 0
DWIDTH 21 0
BBX 17 27 2 0
BITMAP
1FFF00
1FFF00
3FFF00
380000
380000
380000
380000
700000
700000
73F000
7FFC00
7FFE00
F81F00
F00700
000780
000380
000380
000380
000380
E00380
E00380
F00700
700700
7C1E00
3FFC00
1FF800
07E000
ENDCHAR
STARTCHAR six
ENCODING 54
SWIDTH 556 0
DWIDTH 21 0
BBX 18 27 1 0
BITMAP
01F800
07FE00
1FFF00
1E0F80
3C0380
7803C0
7001C0
700000
600000
E1F800
E7FC00
EFFF00
FE0F00
F80780
F00380
E001C0
E001C0
E001C0
E001C0
E001C0
7001C0
700380
380780
3C0F00
1FFF00
0FFC00
03F800
ENDCHAR
STARTCHAR seven
ENCODING 55
SWIDTH 556 0
DWIDTH 21 0
BBX 17 27 2 0
BITMAP
FFFF80
FFFF80
FFFF80
000300
000600
000E00
001C00
001800
003800
007000
007000
00E000
00E000
01C000
01C000
038000
038000
038000
078000
070000
070000
070000
0F0000
0E0000
0E0000
0E0000
0E0000
ENDCHAR
STARTCHAR eight
ENCODING 56
SWIDTH 556 0
DWIDTH 21 0
BBX 17 27 2 0
BITMAP
07F000
0FF800
1FFC00
3C1E00
780F00
700700
700700
700700
700700
780F00
3C1E00
1FFC00
0FF800
3FFC00
7C1F00
700700
F00780
E00380
E00380
E00380
E00380
E00780
700700
7C1F00
3FFE00
1FFC00
07F000
ENDCHAR
STARTCHAR nine
ENCODING 57
SWIDTH 556 0
DWIDTH 21 0
BBX 17 27 2 0
BITMAP
07E000
1FF800
3FFC00
3C1E00
780600
700700
E00300
E00380
E00380
E00380
E00380
E00380
F00780
700F80
7C1F80
3FFB80
1FF380
07C380
000380
000700
E00700
E00700
700E00
783E00
3FFC00
1FF800
0FE000
ENDCHAR
STARTCHAR colon
ENCODING 58
SWIDTH 277 0
DWIDTH 11 0
BBX 3 20 3 0
BITMAP
E0
E0
E0
00
00
00
00
00
00
00
00
00
00
00
00
00
00
E0
E0
E0
ENDCHAR
STARTCHAR semicolon
ENCODING 59
SWIDTH 277 0
DWIDTH 11 0
BBX 3 26 3 -6
BITMAP
E0
E0
E0
00
00
00
00
00
00
00
00
00
00
00
00
00
00
E0
E0
E0
60
60
60
60
C0
40
ENDCHAR
STARTCHAR less
ENCODING 60
SWIDTH 583 0
DWIDTH 22 0
BBX 18 19 2 4
BITMAP
000040
0001C0
000FC0
003F80
00FE00
03F000
1FC000
7F0000
F80000
E00000
F80000
7F0000
1FC000
03F000
00FE00
003F80
000FC0
0001C0
000040
ENDCHAR
STARTCHAR equal
ENCODING 61
SWIDTH 583 0
DWIDTH 22 0
BBX 18 12 2 8
BITMAP
FFFFC0
FFFFC0
FFFFC0
000000
000000
000000
000000
000000
000000
FFFFC0
FFFFC0
FFFFC0
ENDCHAR
STARTCHAR greater
ENCODING 62
SWIDTH 583 0
DWIDTH 22 0
BBX 18 19 2 4
BITMAP
800000
E00000
FC0000
7F0000
1FC000
03F000
00FE00
003F80
0007C0
0001C0
0007C0
003F80
00FE00
03F000
1FC000
7F0000
FC0000
E00000
800000
ENDCHAR
STARTCHAR question
ENCODING 63
SWIDTH 556 0
DWIDTH 21 0
BBX 17 27 2 0
BITMAP
07F000
1FFC00
3FFE00
7C1F00
780700
700780
E00380
E00380
000380
000780
000700
000F00
001E00
003C00
007800
00F000
00E000
01C000
01C000
01C000
01C000
000000
000000
000000
01C000
01C000
01C000
ENDCHAR
STARTCHAR at
ENCODING 64
SWIDTH 1015 0
DWIDTH 39 0
BBX 35 35 2 -8
BITMAP
0003FE0000
003FFFC000
00FFFFF000
01FC03F800
03E0007C00
0780003E00
0F00000F00
1E03F1C700
1C0FF9C780
3C1FFDC380
383E1F83C0
70780781C0
70700781C0
70F00381C0
E0E00381C0
E1E00301C0
E1C00301C0
E1C00303C0
E1C0070380
E1C0070380
E1C00E0700
E1E01E0F00
F0E03E1E00
70F87E3C00
707FEFF800
783FCFF000
380F07C0E0
3C000001C0
1E00000380
0F80000F80
07E0001F00
03FC00FC00
00FFFFF800
003FFFE000
0007FF0000
ENDCHAR
STARTCHAR A
ENCODING 65
SWIDTH 666 0
DWIDTH 25 0
BBX 25 27 0 0
BITMAP
003E0000
003E0000
003E0000
00770000
00770000
00F78000
00E38000
00E38000
01C1C000
01C1C000
03C1E000
0380E000
0380E000
07007000
07007000
0F007800
0FFFF800
0FFFF800
1FFFFC00
1C001C00
3C001E00
38000E00
38000E00
70000700
70000700
F0000780
E0000380
ENDCHAR
STARTCHAR B
ENCODING 66
SWIDTH 666 0
DWIDTH 25 0
BBX 20 27 3 0
BITMAP
FFFC00
FFFF00
FFFF80
E007C0
E001C0
E000E0
E000E0
E000E0
E000E0
E000E0
E001C0
E007C0
FFFF00
FFFF80
FFFFC0
E003E0
E000E0
E00070
E00070
E00070
E00070
E00070
E000E0
E003E0
FFFFC0
FFFF80
FFFE00
ENDCHAR
STARTCHAR C
ENCODING 67
SWIDTH 722 0
DWIDTH 27 0
BBX 23 27 2 0
BITMAP
00FF00
03FFC0
0FFFE0
1F81F0
1E0078
380078
78003C
70001C
700000
E00000
E00000
E00000
E00000
E00000
E00000
E00000
E00000
E00000
70000E
70001E
78001C
3C003C
1E0078
1F81F0
0FFFE0
03FFC0
00FF00
ENDCHAR
STARTCHAR D
ENCODING 68
SWIDTH 722 0
DWIDTH 27 0
BBX 22 27 3 0
BITMAP
FFFC00
FFFF80
FFFFC0
E003E0
E000F0
E00070
E00078
E00038
E00038
E0001C
E0001C
E0001C
E0001C
E0001C
E0001C
E0001C
E0001C
E0001C
E00038
E00038
E00078
E00070
E000F0
E003E0
FFFFC0
FFFF80
FFFC00
ENDCHAR
STARTCHAR E
ENCODING 69
SWIDTH 666 0
DWIDTH 25 0
BBX 20 27 3 0
BITMAP
FFFFE0
FFFFE0
FFFFE0
E00000
E00000
E00000
E00000
E00000
E00000
E00000
E00000
E00000
FFFFC0
FFFFC0
FFFFC0
E00000
E00000
E00000
E00000
E00000
E00000
E00000
E00000
E00000
FFFFF0
FFFFF0
FFFFF0
ENDCHAR
STARTCHAR F
ENCODING 70
SWIDTH 610 0
DWIDTH 23 0
BBX 18 27 3 0
BITMAP
FFFFC0
FFFFC0
FFFFC0
E00000
E00000
E00000
E00000
E00000
E00000
E00000
E00000
E00000
FFFF00
FFFF00
FFFF00
E00000
E00000
E00000
E00000
E00000
E00000
E00000
E00000
E00000
E00000
E00000
E00000
ENDCHAR
STARTCHAR G
ENCODING 71
SWIDTH 777 0
DWIDTH 30 0
BBX 26 27 2 0
BITMAP
003FC000
01FFF800
07FFFE00
0FC03F00
1F000F00
3C000780
38000380
780003C0
70000000
70000000
E0000000
E0000000
E0000000
E003FFC0
E003FFC0
E003FFC0
E00001C0
F00001C0
700001C0
700001C0
380001C0
3C0001C0
1F0007C0
0FC03F80
07FFFE00
01FFFC00
003FC000
ENDCHAR
STARTCHAR H
ENCODING 72
SWIDTH 722 0
DWIDTH 27 0
BBX 21 27 3 0
BITMAP
E00038
E00038
E00038
E00038
E00038
E00038
E00038
E00038
E00038
E00038
E00038
FFFFF8
FFFFF8
FFFFF8
E00038
E00038
E00038
E00038
E00038
E00038
E00038
E00038
E00038
E00038
E00038
E00038
E00038
ENDCHAR
STARTCHAR I
ENCODING 73
SWIDTH 277 0
DWIDTH 11 0
BBX 3 27 4 0
BITMAP
E0
E0
E0
E0
E0
E0
E0
E0
E0
E0
E0
E0
E0
E0
E0
E0
E0
E0
E0
E0
E0
E0
E0
E0
E0
E0
E0
ENDCHAR
STARTCHAR J
ENCODING 74
SWIDTH 500 0
DWIDTH 19 0
BBX 15 27 1 0
BITMAP
000E
000E
000E
000E
000E
000E
000E
000E
000E
000E
000E
000E
000E
000E
000E
000E
000E
000E
E00E
E00E
E00E
F00E
F01C
783C
3FF8
3FF0
0FC0
ENDCHAR
STARTCHAR K
ENCODING 75
SWIDTH 666 0
DWIDTH 25 0
BBX 22 27 3 0
BITMAP
E000F8
E001F0
E003E0
E007C0
E00F80
E01F00
E03E00
E07C00
E0F800
E1F000
E3E000
E7E000
EFF000
FE7000
FC7800
F83C00
F01C00
E00E00
E00F00
E00780
E00380
E001C0
E001E0
E000E0
E00070
E00078
E0003C
ENDCHAR
STARTCHAR L
ENCODING 76
SWIDTH 556 0
DWIDTH 21 0
BBX 17 27 3 0
BITMAP
E00000
E00000
E00000
E00000
E00000
E00000
E00000
E00000
E00000
E00000
E00000
E00000
E00000
E00000
E00000
E00000
E00000
E00000
E00000
E00000
E00000
E00000
E00000
E00000
FFFF80
FFFF80
FFFF80
ENDCHAR
STARTCHAR M
ENCODING 77
SWIDTH 833 0
DWIDTH 31 0
BBX 25 27 3 0
BITMAP
F8000F80
FC001F80
FC001F80
FC001F80
FE003F80
EE003B80
EE003B80
EF007B80
E7007380
E7007380
E7007380
E380E380
E380E380
E380E380
E1C1C380
E1C1C380
E1C1C380
E0E38380
E0E38380
E0E38380
E0770380
E0770380
E0770380
E03E0380
E03E0380
E03E0380
E01C0380
ENDCHAR
STARTCHAR N
ENCODING 78
SWIDTH 722 0
DWIDTH 27 0
BBX 21 27 3 0
BITMAP
F00038
F00038
F80038
FC0038
FC0038
EE0038
EF0038
E70038
E38038
E3C038
E1C038
E0E038
E0F038
E07038
E07838
E03838
E01C38
E01E38
E00E38
E00738
E007B8
E003B8
E001F8
E001F8
E000F8
E00078
E00078
ENDCHAR
STARTCHAR O
ENCODING 79
SWIDTH 777 0
DWIDTH 30 0
BBX 26 27 2 0
BITMAP
007F8000
01FFE000
07FFF800
0FC0FC00
1E001E00
3C000F00
38000700
70000780
70000380
F00003C0
E00001C0
E00001C0
E00001C0
E00001C0
E00001C0
E00001C0
E00001C0
E00003C0
70000380
70000380
38000700
3C000F00
1E001E00
0FC0FC00
07FFF800
01FFE000
007F8000
ENDCHAR
STARTCHAR P
ENCODING 80
SWIDTH 666 0
DWIDTH 25 0
BBX 20 27 3 0
BITMAP
FFFE00
FFFF80
FFFFC0
E003E0
E000E0
E000F0
E00070
E00070
E00070
E00070
E000F0
E000E0
E003E0
FFFFC0
FFFF80
FFFC00
E00000
E00000
E00000
E00000
E00000
E00000
E00000
E00000
E00000
E00000
E00000
ENDCHAR
STARTCHAR Q
ENCODING 81
SWIDTH 777 0
DWIDTH 30 0
BBX 26 29 2 -2
BITMAP
007F0000
03FFE000
07FFF000
0F80F800
1E003C00
3C001E00
38000E00
70000700
70000700
E0000780
E0000380
E0000380
E0000380
E0000380
E0000380
E0000380
E0000380
E0000780
70000700
70040700
38078F00
3C07DE00
1E01FE00
0F80FC00
07FFFE00
03FFFF80
007F8FC0
00000380
00000080
ENDCHAR
STARTCHAR R
ENCODING 82
SWIDTH 722 0
DWIDTH 27 0
BBX 22 27 3 0
BITMAP
FFFF00
FFFFC0
FFFFE0
E001F0
E00070
E00038
E00038
E00038
E00038
E00078
E00070
E001F0
FFFFE0
FFFFC0
FFFF00
E03C00
E01E00
E00F00
E00F80
E00780
E003C0
E001E0
E001E0
E000F0
E00078
E00078
E0003C
ENDCHAR
STARTCHAR S
ENCODING 83
SWIDTH 666 0
DWIDTH 25 0
BBX 21 27 2 0
BITMAP
01FC00
0FFF00
1FFFC0
3E03E0
3801E0
7000F0
700070
700070
700000
780000
3F0000
1FF000
0FFF00
03FFC0
007FE0
0007F0
0000F0
E00078
E00038
F00038
700038
780078
3C00F0
3F03F0
1FFFE0
07FF80
01FE00
ENDCHAR
STARTCHAR T
ENCODING 84
SWIDTH 610 0
DWIDTH 23 0
BBX 21 27 1 0
BITMAP
FFFFF8
FFFFF8
FFFFF8
007000
007000
007000
007000
007000
007000
007000
007000
007000
007000
007000
007000
007000
007000
007000
007000
007000
007000
007000
007000
007000
007000
007000
007000
ENDCHAR
STARTCHAR U
ENCODING 85
SWIDTH 722 0
DWIDTH 27 0
BBX 21 27 3 0
BITMAP
E00038
E00038
E00038
E00038
E00038
E00038
E00038
E00038
E00038
E00038
E00038
E00038
E00038
E00038
E00038
E00038
E00038
E00038
E00038
E00038
700070
700070
7800F0
3E03E0
1FFFC0
0FFF80
03FC00
ENDCHAR
STARTCHAR V
ENCODING 86
SWIDTH 666 0
DWIDTH 25 0
BBX 23 27 1 0
BITMAP
E0000E
F0001E
70001C
70001C
380038
380038
380038
1C0070
1C0070
1E00F0
0E00E0
0E00E0
0F01E0
0701C0
0701C0
0783C0
038380
038380
01C700
01C700
01EF00
00EE00
00EE00
00FE00
007C00
007C00
007C00
ENDCHAR
STARTCHAR W
ENCODING 87
SWIDTH 943 0
DWIDTH 38 0
BBX 37 27 0 0
BITMAP
E000F80038
F000F80078
7000F80070
7001DC0070
7001DC0070
3801DC00E0
3803DE00E0
38038E00E0
38038E00E0
1C038E01C0
1C070701C0
1C070701C0
1E070703C0
0E0E038380
0E0E038380
0E0E038380
071E03C700
071C01C700
071C01C700
071C01C700
03B800EE00
03B800EE00
03B800EE00
01F8007E00
01F0007C00
01F0007C00
01F0007C00
ENDCHAR
STARTCHAR X
ENCODING 88
SWIDTH 666 0
DWIDTH 25 0
BBX 25 27 0 0
BITMAP
3C001E00
1E003C00
0E003800
07007000
0780F000
03C1E000
01C1C000
01E3C000
00F78000
00770000
003E0000
003E0000
003E0000
003E0000
007F0000
00F78000
00E38000
01C1C000
03C1E000
0780F000
07007000
0F003800
1E003C00
1C001C00
38000E00
78000F00
F0000780
ENDCHAR
STARTCHAR Y
ENCODING 89
SWIDTH 666 0
DWIDTH 25 0
BBX 23 27 1 0
BITMAP
F0001E
70001C
380038
3C0078
1C0070
0E00E0
0F01E0
0701C0
0783C0
038780
01C700
01EF00
00EE00
007C00
007C00
003800
003800
003800
003800
003800
003800
003800
003800
003800
003800
003800
003800
ENDCHAR
STARTCHAR Z
ENCODING 90
SWIDTH 610 0
DWIDTH 23 0
BBX 21 27 1 0
BITMAP
3FFFF0
3FFFF0
3FFFF0
0000F0
0001E0
0003C0
000380
000700
000F00
001E00
003C00
003800
007800
00F000
01E000
01C000
038000
078000
0F0000
1E0000
1C0000
380000
780000
F00000
FFFFF8
FFFFF8
FFFFF8
ENDCHAR
STARTCHAR bracketleft
ENCODING 91
SWIDTH 277 0
DWIDTH 11 0
BBX 7 35 2 -8
BITMAP
FE
FE
FE
E0
E0
E0
E0
E0
E0
E0
E0
E0
E0
E0
E0
E0
E0
E0
E0
E0
E0
E0
E0
E0
E0
E0
E0
E0
E0
E0
E0
E0
FE
FE
FE
ENDCHAR
STARTCHAR backslash
ENCODING 92
SWIDTH 277 0
DWIDTH 11 0
BBX 11 27 0 0
BITMAP
E000
E000
7000
7000
7000
3800
3800
3800
3C00
1C00
1C00
1C00
0E00
0E00
0E00
0700
0700
0700
0700
0380
0380
0380
01C0
01C0
01C0
00E0
00E0
ENDCHAR
STARTCHAR bracketright
ENCODING 93
SWIDTH 277 0
DWIDTH 11 0
BBX 7 35 2 -8
BITMAP
FE
FE
FE
0E
0E
0E
0E
0E
0E
0E
0E
0E
0E
0E
0E
0E
0E
0E
0E
0E
0E
0E
0E
0E
0E
0E
0E
0E
0E
0E
0E
0E
FE
FE
FE
ENDCHAR
STARTCHAR asciicircum
ENCODING 94
SWIDTH 469 0
DWIDTH 17 0
BBX 15 15 1 13
BITMAP
0380
07C0
07C0
06C0
0EE0
0EE0
1C70
1C70
1830
3838
3838
701C
701C
701C
E00E
ENDCHAR
STARTCHAR underscore
ENCODING 95
SWIDTH 556 0
DWIDTH 21 0
BBX 22 3 -1 -8
BITMAP
FFFFFC
FFFFFC
FFFFFC
ENDCHAR
STARTCHAR grave
ENCODING 96
SWIDTH 333 0
DWIDTH 13 0
BBX 7 5 1 22
BITMAP
F0
78
38
1C
0E
ENDCHAR
STARTCHAR a
ENCODING 97
SWIDTH 556 0
DWIDTH 21 0
BBX 17 20 2 0
BITMAP
07F000
1FFC00
3FFE00
781F00
F00700
E00700
000700
001F00
07FF00
1FFF00
7FE700
7C0700
F00700
E00700
E00F00
E01F00
F03F00
7FFF00
3FF700
1FC380
ENDCHAR
STARTCHAR b
ENCODING 98
SWIDTH 556 0
DWIDTH 21 0
BBX 16 27 3 0
BITMAP
E000
E000
E000
E000
E000
E000
E000
E3E0
EFF8
FFFC
FC3C
F81E
F00E
F00F
E007
E007
E007
E007
E007
E007
E00F
F00E
F81E
FC3C
FFF8
EFF0
E3E0
ENDCHAR
STARTCHAR c
ENCODING 99
SWIDTH 500 0
DWIDTH 19 0
BBX 16 20 2 0
BITMAP
03E0
0FF8
3FFC
3C1E
780E
700F
E007
E000
E000
E000
E000
E000
E000
E007
7007
780E
3C1E
3FFC
1FF8
07E0
ENDCHAR
STARTCHAR d
ENCODING 100
SWIDTH 556 0
DWIDTH 21 0
BBX 16 27 2 0
BITMAP
0007
0007
0007
0007
0007
0007
0007
07C7
1FF7
3FFF
3C3F
781F
700F
E00F
E007
E007
E007
E007
E007
E007
F007
700F
781F
3C3F
3FFF
1FF7
07C7
ENDCHAR
STARTCHAR e
ENCODING 101
SWIDTH 556 0
DWIDTH 20 0
BBX 17 20 2 0
BITMAP
03F000
0FF800
1FFE00
3C1E00
780700
700700
E00380
E00380
FFFF80
FFFF80
FFFF80
E00000
E00000
F00000
700380
780700
3C1F00
3FFE00
0FFC00
07F000
ENDCHAR
STARTCHAR f
ENCODING 102
SWIDTH 277 0
DWIDTH 11 0
BBX 11 27 1 0
BITMAP
07E0
0FE0
1FE0
1E00
1C00
1C00
1C00
FFC0
FFC0
FFC0
1C00
1C00
1C00
1C00
1C00
1C00
1C00
1C00
1C00
1C00
1C00
1C00
1C00
1C00
1C00
1C00
1C00
ENDCHAR
STARTCHAR g
ENCODING 103
SWIDTH 556 0
DWIDTH 21 0
BBX 16 28 2 -8
BITMAP
07C7
1FF7
3FFF
3C3F
781F
700F
E00F
E007
E007
E007
E007
E007
E007
E007
700F
781F
3C3F
3FFF
1FF7
07E7
0007
0007
E00F
F00E
F83E
7FFC
3FF8
0FE0
ENDCHAR
STARTCHAR h
ENCODING 104
SWIDTH 556 0
DWIDTH 21 0
BBX 15 27 3 0
BITMAP
E000
E000
E000
E000
E000
E000
E000
E3E0
EFF8
FFFC
FC3C
F01E
F00E
E00E
E00E
E00E
E00E
E00E
E00E
E00E
E00E
E00E
E00E
E00E
E00E
E00E
E00E
ENDCHAR
STARTCHAR i
ENCODING 105
SWIDTH 222 0
DWIDTH 9 0
BBX 3 27 3 0
BITMAP
E0
E0
E0
00
00
00
00
E0
E0
E0
E0
E0
E0
E0
E0
E0
E0
E0
E0
E0
E0
E0
E0
E0
E0
E0
E0
ENDCHAR
STARTCHAR j
ENCODING 106
SWIDTH 222 0
DWIDTH 9 0
BBX 8 35 -2 -8
BITMAP
07
07
07
00
00
00
00
07
07
07
07
07
07
07
07
07
07
07
07
07
07
07
07
07
07
07
07
07
07
07
07
0F
7E
FE
F8
ENDCHAR
STARTCHAR k
ENCODING 107
SWIDTH 500 0
DWIDTH 19 0
BBX 16 27 3 0
BITMAP
E000
E000
E000
E000
E000
E000
E000
E01E
E03C
E078
E0F0
E1E0
E3C0
E780
EF00
FF00
FF80
FBC0
F3C0
E1E0
E0F0
E070
E078
E03C
E01C
E01E
E00F
ENDCHAR
STARTCHAR l
ENCODING 108
SWIDTH 222 0
DWIDTH 9 0
BBX 3 27 3 0
BITMAP
E0
E0
E0
E0
E0
E0
E0
E0
E0
E0
E0
E0
E0
E0
E0
E0
E0
E0
E0
E0
E0
E0
E0
E0
E0
E0
E0
ENDCHAR
STARTCHAR m
ENCODING 109
SWIDTH 833 0
DWIDTH 33 0
BBX 27 20 3 0
BITMAP
E3F03F00
E7F8FF80
EFFDFFC0
FC3FC3E0
F01F01E0
F00F00E0
E00E00E0
E00E00E0
E00E00E0
E00E00E0
E00E00E0
E00E00E0
E00E00E0
E00E00E0
E00E00E0
E00E00E0
E00E00E0
E00E00E0
E00E00E0
E00E00E0
ENDCHAR
STARTCHAR n
ENCODING 110
SWIDTH 556 0
DWIDTH 21 0
BBX 15 20 3 0
BITMAP
E3E0
EFF8
FFFC
FC3C
F01E
F00E
E00E
E00E
E00E
E00E
E00E
E00E
E00E
E00E
E00E
E00E
E00E
E00E
E00E
E00E
ENDCHAR
STARTCHAR o
ENCODING 111
SWIDTH 556 0
DWIDTH 21 0
BBX 17 20 2 0
BITMAP
07E000
0FF800
3FFE00
3C1E00
780F00
700700
F00780
E00380
E00380
E00380
E00380
E00380
E00380
F00780
700700
780F00
3C1E00
3FFE00
0FF800
03F000
ENDCHAR
STARTCHAR p
ENCODING 112
SWIDTH 556 0
DWIDTH 21 0
BBX 16 28 3 -8
BITMAP
E3E0
EFF8
EFFC
FC3C
F81E
F00E
F00F
E007
E007
E007
E007
E007
E007
E00F
F00E
F81E
FC3C
FFF8
EFF0
E3C0
E000
E000
E000
E000
E000
E000
E000
E000
ENDCHAR
STARTCHAR q
ENCODING 113
SWIDTH 556 0
DWIDTH 21 0
BBX 16 28 2 -8
BITMAP
07C7
1FF7
3FF7
3C3F
781F
700F
F00F
E007
E007
E007
E007
E007
E007
F007
700F
781F
3C3F
1FFF
0FF7
07C7
0007
0007
0007
0007
0007
0007
0007
0007
ENDCHAR
STARTCHAR r
ENCODING 114
SWIDTH 333 0
DWIDTH 13 0
BBX 10 20 3 0
BITMAP
E7C0
EFC0
FF80
F800
F000
F000
E000
E000
E000
E000
E000
E000
E000
E000
E000
E000
E000
E000
E000
E000
ENDCHAR
STARTCHAR s
ENCODING 115
SWIDTH 500 0
DWIDTH 19 0
BBX 15 20 2 0
BITMAP
0FC0
3FF0
7FF8
F03C
E01C
E000
F000
FC00
7FC0
3FF0
0FFC
01FC
003E
000E
E00E
F00E
783C
7FFC
3FF8
0FE0
ENDCHAR
STARTCHAR t
ENCODING 116
SWIDTH 277 0
DWIDTH 11 0
BBX 10 27 0 0
BITMAP
0400
0C00
1C00
1C00
1C00
1C00
1C00
FFC0
FFC0
FFC0
1C00
1C00
1C00
1C00
1C00
1C00
1C00
1C00
1C00
1C00
1C00
1C00
1C00
1E00
1FC0
0FC0
07C0
ENDCHAR
STARTCHAR u
ENCODING 117
SWIDTH 556 0
DWIDTH 21 0
BBX 15 20 3 0
BITMAP
E00E
E00E
E00E
E00E
E00E
E00E
E00E
E00E
E00E
E00E
E00E
E00E
E00E
E00E
E01E
F01E
787E
7FEE
3FCE
1F8E
ENDCHAR
STARTCHAR v
ENCODING 118
SWIDTH 500 0
DWIDTH 19 0
BBX 19 20 0 0
BITMAP
E000E0
7001C0
7001C0
7803C0
380380
380380
1C0700
1C0700
0E0F00
0E0E00
0F1E00
071C00
071C00
03BC00
03B800
03B800
01F000
01F000
00E000
00E000
ENDCHAR
STARTCHAR w
ENCODING 119
SWIDTH 722 0
DWIDTH 27 0
BBX 27 20 0 0
BITMAP
E00E00E0
E00E00E0
E01F00E0
701F01C0
701F01C0
703B81C0
383B8380
38398380
3831C380
1C71C700
1C70C700
1C60C700
0EE0EE00
0EE0EE00
0EE06C00
07C07C00
07C07C00
03C07800
03803800
03803800
ENDCHAR
STARTCHAR x
ENCODING 120
SWIDTH 500 0
DWIDTH 18 0
BBX 18 20 0 0
BITMAP
F001C0
780380
380780
1C0F00
1E0E00
0F1C00
073C00
07F800
03F000
01E000
01E000
03F000
03F800
073800
0F3C00
1E1E00
1C0E00
380700
780780
F003C0
ENDCHAR
STARTCHAR y
ENCODING 121
SWIDTH 500 0
DWIDTH 19 0
BBX 17 28 1 -8
BITMAP
E00380
700780
700700
700700
380F00
380E00
3C0E00
1C1E00
1C1C00
1E1C00
0E3C00
0E3800
0F3800
077000
077000
07F000
03E000
03E000
03E000
01C000
01C000
01C000
038000
038000
070000
7F0000
7E0000
7C0000
ENDCHAR
STARTCHAR z
ENCODING 122
SWIDTH 500 0
DWIDTH 18 0
BBX 17 20 0 0
BITMAP
7FFF80
7FFF80
7FFF80
000F00
001E00
003C00
003800
007800
00F000
01E000
03C000
078000
0F0000
1E0000
3C0000
780000
F00000
FFFF80
FFFF80
FFFF80
ENDCHAR
STARTCHAR braceleft
ENCODING 123
SWIDTH 333 0
DWIDTH 13 0
BBX 11 35 1 -8
BITMAP
01E0
07E0
07E0
0F00
0E00
0E00
0E00
0E00
0E00
0E00
0E00
0E00
0E00
0E00
1C00
3C00
F800
E000
F800
3C00
1C00
0E00
0E00
0E00
0E00
0E00
0E00
0E00
0E00
0E00
0E00
0F00
07E0
07E0
01E0
ENDCHAR
STARTCHAR bar
ENCODING 124
SWIDTH 259 0
DWIDTH 9 0
BBX 3 36 3 -9
BITMAP
E0
E0
E0
E0
E0
E0
E0
E0
E0
E0
E0
E0
E0
E0
E0
E0
E0
E0
E0
E0
E0
E0
E0
E0
E0
E0
E0
E0
E0
E0
E0
E0
E0
E0
E0
E0
ENDCHAR
STARTCHAR braceright
ENCODING 125
SWIDTH 333 0
DWIDTH 13 0
BBX 11 35 1 -8
BITMAP
F000
FC00
FC00
1E00
0E00
0E00
0E00
0E00
0E00
0E00
0E00
0E00
0E00
0E00
0700
0780
03E0
00E0
03E0
0780
0700
0E00
0E00
0E00
0E00
0E00
0E00
0E00
0E00
0E00
0E00
1E00
FC00
FC00
F000
ENDCHAR
STARTCHAR asciitilde
ENCODING 126
SWIDTH 583 0
DWIDTH 22 0
BBX 19 6 2 10
BITMAP
1F0000
7FC020
FFF0E0
E1FFE0
807FC0
001F00
ENDCHAR
STARTCHAR space.dup1
ENCODING 160
SWIDTH 277 0
DWIDTH 11 0
BBX 1 1 0 0
BITMAP
00
ENDCHAR
STARTCHAR exclamdown
ENCODING 161
SWIDTH 333 0
DWIDTH 11 0
BBX 3 28 4 -8
BITMAP
E0
E0
E0
00
00
00
40
40
40
40
40
40
40
40
E0
E0
E0
E0
E0
E0
E0
E0
E0
E0
E0
E0
E0
E0
ENDCHAR
STARTCHAR cent
ENCODING 162
SWIDTH 556 0
DWIDTH 21 0
BBX 17 34 2 -7
BITMAP
000600
000C00
000C00
000C00
000C00
001800
001800
03F800
0FFC00
1FFE00
3C3F00
786F00
706700
F06300
E0C000
E0C000
E0C000
E1C000
E18000
E18000
F18380
730780
7B0700
3F1F00
3FFE00
1FFC00
07F000
0C0000
0C0000
0C0000
1C0000
180000
180000
180000
ENDCHAR
STARTCHAR sterling
ENCODING 163
SWIDTH 556 0
DWIDTH 21 0
BBX 19 27 0 0
BITMAP
01F800
07FE00
0FFF00
1F0F80
3C0380
3803C0
3801C0
380000
380000
380000
3C0000
1C0000
FFF000
FFF000
FFF000
0E0000
0E0000
0E0000
0E0000
0C0000
180000
180000
3F8000
7FF040
FFFFE0
707FE0
400FC0
ENDCHAR
STARTCHAR currency
ENCODING 164
SWIDTH 556 0
DWIDTH 21 0
BBX 19 17 1 4
BITMAP
100100
71F3C0
FBFBE0
3FFF80
0E0E00
1C0700
180300
380380
380380
380380
180300
1C0700
0E0E00
3FFF80
FBFBE0
71F1C0
100100
ENDCHAR
STARTCHAR yen
ENCODING 165
SWIDTH 556 0
DWIDTH 21 0
BBX 21 27 0 0
BITMAP
E00038
700070
7800F0
3800E0
1C01C0
1C01C0
0E0380
0F0780
070700
078F00
038E00
03DE00
01FC00
7FFFF0
7FFFF0
7FFFF0
007000
007000
007000
7FFFF0
7FFFF0
7FFFF0
007000
007000
007000
007000
007000
ENDCHAR
STARTCHAR brokenbar
ENCODING 166
SWIDTH 259 0
DWIDTH 9 0
BBX 3 36 3 -9
BITMAP
E0
E0
E0
E0
E0
E0
E0
E0
E0
E0
E0
E0
E0
E0
E0
00
00
00
00
00
00
E0
E0
E0
E0
E0
E0
E0
E0
E0
E0
E0
E0
E0
E0
E0
ENDCHAR
STARTCHAR section
ENCODING 167
SWIDTH 556 0
DWIDTH 21 0
BBX 18 34 1 -7
BITMAP
03F000
0FFC00
1FFE00
3E1E00
380F00
380700
380000
1C0000
1F0000
0FC000
3FE000
79F800
F0FE00
E03F00
E01F80
E00780
F003C0
7801C0
7E01C0
3F01C0
0FC380
07EF00
01FE00
007C00
003E00
001E00
000F00
700700
700700
380F00
3C1E00
1FFE00
0FFC00
03F000
ENDCHAR
STARTCHAR dieresis
ENCODING 168
SWIDTH 333 0
DWIDTH 13 0
BBX 9 3 1 24
BITMAP
E380
E380
E380
ENDCHAR
STARTCHAR copyright
ENCODING 169
SWIDTH 736 0
DWIDTH 28 0
BBX 28 27 0 0
BITMAP
003FC000
00FFF000
03FFFC00
07E07E00
1F000F80
1E000780
3C1FC3C0
783FE1E0
707FF0E0
70F0F8E0
E1E03070
E1C00070
E1C00070
E1C00070
E1C00070
E1C03070
E1E07870
70F0F0E0
707FF0E0
783FE1E0
3C1F83C0
1E000780
1F000F00
07E07E00
03FFFC00
00FFF000
003FC000
ENDCHAR
STARTCHAR ordfeminine
ENCODING 170
SWIDTH 370 0
DWIDTH 14 0
BBX 12 14 1 13
BITMAP
1F80
7FC0
F1E0
E0E0
00E0
03E0
3FE0
7EE0
F0E0
E0E0
E1E0
F1E0
7FE0
3E70
ENDCHAR
STARTCHAR guillemotleft
ENCODING 171
SWIDTH 556 0
DWIDTH 21 0
BBX 16 17 2 1
BITMAP
0387
070E
0F1E
0E1C
1C38
3C78
78F0
78F0
F1E0
78F0
78F0
3C78
1C38
0E1C
0F1E
070E
0387
ENDCHAR
STARTCHAR logicalnot
ENCODING 172
SWIDTH 583 0
DWIDTH 22 0
BBX 18 11 2 8
BITMAP
FFFFC0
FFFFC0
FFFFC0
0001C0
0001C0
0001C0
0001C0
0001C0
0001C0
0001C0
0001C0
ENDCHAR
STARTCHAR hyphen.dup2
ENCODING 173
SWIDTH 333 0
DWIDTH 13 0
BBX 11 3 1 8
BITMAP
FFE0
FFE0
FFE0
ENDCHAR
STARTCHAR registered
ENCODING 174
SWIDTH 736 0
DWIDTH 28 0
BBX 28 27 0 0
BITMAP
003FC000
00FFF000
03FFFC00
07E07E00
1F000F80
1E000780
3CFF83C0
78FFE1E0
70FFE0E0
70E0F0E0
E0E07070
E0E07070
E0E0F070
E0FFE070
E0FFE070
E0FFC070
E0E38070
70E1C0E0
70E1E0E0
78E0F1E0
3CE07BC0
1E000780
1F000F00
07E07E00
03FFFC00
00FFF000
003FC000
ENDCHAR
STARTCHAR macron
ENCODING 175
SWIDTH 552 0
DWIDTH 21 0
BBX 22 3 -1 29
BITMAP
FFFFFC
FFFFFC
FFFFFC
ENDCHAR
STARTCHAR degree
ENCODING 176
SWIDTH 399 0
DWIDTH 15 0
BBX 10 10 2 17
BITMAP
1E00
7F80
6180
C0C0
C0C0
C0C0
C0C0
6180
7F80
1E00
ENDCHAR
STARTCHAR plusminus
ENCODING 177
SWIDTH 548 0
DWIDTH 21 0
BBX 17 23 1 0
BITMAP
01C000
01C000
01C000
01C000
01C000
01C000
01C000
FFFF80
FFFF80
FFFF80
01C000
01C000
01C000
01C000
01C000
01C000
01C000
000000
000000
000000
FFFF80
FFFF80
FFFF80
ENDCHAR
STARTCHAR uni00B2
ENCODING 178
SWIDTH 333 0
DWIDTH 13 0
BBX 12 14 0 13
BITMAP
1F80
7FE0
70F0
E070
0070
00F0
01E0
03C0
0780
1F00
3C00
7800
FFF0
FFF0
ENDCHAR
STARTCHAR uni00B3
ENCODING 179
SWIDTH 333 0
DWIDTH 13 0
BBX 12 14 0 13
BITMAP
1FC0
7FE0
70F0
E070
0070
00E0
03C0
03E0
0070
0070
E070
70F0
7FE0
1F80
ENDCHAR
STARTCHAR acute
ENCODING 180
SWIDTH 333 0
DWIDTH 13 0
BBX 7 5 4 22
BITMAP
1E
3C
78
70
E0
ENDCHAR
STARTCHAR mu
ENCODING 181
SWIDTH 576 0
DWIDTH 22 0
BBX 16 28 3 -8
BITMAP
E007
E007
E007
E007
E007
E007
E007
E007
E007
E007
E007
E007
E007
E007
F00F
F00F
FC3F
FFFF
EFF7
E7E7
E000
E000
E000
E000
E000
E000
E000
E000
ENDCHAR
STARTCHAR paragraph
ENCODING 182
SWIDTH 537 0
DWIDTH 20 0
BBX 20 35 0 -8
BITMAP
07FFF0
1FFFF0
3FFFF0
7FC1C0
7FC1C0
FFC1C0
FFC1C0
FFC1C0
FFC1C0
FFC1C0
FFC1C0
7FC1C0
3FC1C0
1FC1C0
07C1C0
01C1C0
01C1C0
01C1C0
01C1C0
01C1C0
01C1C0
01C1C0
01C1C0
01C1C0
01C1C0
01C1C0
01C1C0
01C1C0
01C1C0
01C1C0
01C1C0
01C1C0
01C1C0
01C1C0
01C1C0
ENDCHAR
STARTCHAR periodcentered
ENCODING 183
SWIDTH 333 0
DWIDTH 13 0
BBX 3 3 4 12
BITMAP
E0
E0
E0
ENDCHAR
STARTCHAR cedilla
ENCODING 184
SWIDTH 333 0
DWIDTH 13 0
BBX 8 7 2 -7
BITMAP
18
10
3E
07
07
FE
FC
ENDCHAR
STARTCHAR uni00B9
ENCODING 185
SWIDTH 333 0
DWIDTH 13 0
BBX 7 14 2 13
BITMAP
0E
1E
7E
FE
EE
8E
0E
0E
0E
0E
0E
0E
0E
0E
ENDCHAR
STARTCHAR ordmasculine
ENCODING 186
SWIDTH 365 0
DWIDTH 14 0
BBX 12 14 1 13
BITMAP
0F00
3FC0
79E0
70E0
E070
E070
E070
E070
E070
E070
70E0
79E0
3FC0
1F80
ENDCHAR
STARTCHAR guillemotright
ENCODING 187
SWIDTH 556 0
DWIDTH 21 0
BBX 16 17 3 1
BITMAP
E1C0
70E0
78F0
3870
1C38
1E3C
0F1E
0F1E
078F
0F1E
0F1E
1E3C
1C38
3870
78F0
70E0
E1C0
ENDCHAR
STARTCHAR onequarter
ENCODING 188
SWIDTH 833 0
DWIDTH 32 0
BBX 30 27 2 0
BITMAP
0E0003C0
1E000380
7E000700
FE000F00
EE001E00
8E001C00
0E003800
0E007800
0E00F000
0E01E000
0E01C000
0E03C000
0E078000
0E0F0070
000E00F0
001C01F0
003C03F0
007803F0
00700770
00E00E70
01E01C70
03C03870
03803FFC
07003FFC
0F000070
1E000070
3C000070
ENDCHAR
STARTCHAR onehalf
ENCODING 189
SWIDTH 833 0
DWIDTH 32 0
BBX 29 27 2 0
BITMAP
0E0001C0
1E000380
7E000780
FE000F00
EE001E00
8E001C00
0E003C00
0E007800
0E00F000
0E00E000
0E01C000
0E03C000
0E078000
0E0707E0
000E1FF0
001E3C78
003C3838
00380038
00700078
00F000F0
01E001E0
03C003C0
03800780
07800F00
0F001E00
1E003FF8
1C003FF8
ENDCHAR
STARTCHAR threequarters
ENCODING 190
SWIDTH 833 0
DWIDTH 32 0
BBX 30 28 1 -1
BITMAP
1F8000E0
7FC001E0
71E003C0
E0E00380
00E00780
01C00F00
07800E00
07C01C00
00E03C00
00E07800
E0E07000
F1E0E000
7FC1E000
1F03C070
000380F0
000701F0
000F03F0
001E03F0
001C0770
003C0E70
00781C70
00F03870
00E03FFC
01E03FFC
03C00070
03800070
07000070
0F000000
ENDCHAR
STARTCHAR questiondown
ENCODING 191
SWIDTH 610 0
DWIDTH 23 0
BBX 17 28 3 -8
BITMAP
01C000
01C000
01C000
000000
000000
000000
01C000
01C000
01C000
01C000
03C000
038000
078000
0F0000
1E0000
3C0000
780000
700000
E00000
E00000
E00380
E00380
F00700
700F00
7C1F00
3FFE00
1FFC00
07F000
ENDCHAR
STARTCHAR Agrave
ENCODING 192
SWIDTH 666 0
DWIDTH 25 0
BBX 25 34 0 0
BITMAP
00780000
003C0000
001C0000
000E0000
00070000
00000000
00000000
003E0000
003E0000
003E0000
00770000
00770000
00F78000
00E38000
00E38000
01C1C000
01C1C000
03C1E000
0380E000
0380E000
07007000
07007000
0F007800
0FFFF800
0FFFF800
1FFFFC00
1C001C00
3C001E00
38000E00
38000E00
70000700
70000700
F0000780
E0000380
ENDCHAR
STARTCHAR Aacute
ENCODING 193
SWIDTH 666 0
DWIDTH 25 0
BBX 25 34 0 0
BITMAP
00078000
000F0000
001E0000
001C0000
00380000
00000000
00000000
003E0000
003E0000
003E0000
00770000
00770000
00F78000
00E38000
00E38000
01C1C000
01C1C000
03C1E000
0380E000
0380E000
07007000
07007000
0F007800
0FFFF800
0FFFF800
1FFFFC00
1C001C00
3C001E00
38000E00
38000E00
70000700
70000700
F0000780
E0000380
ENDCHAR
STARTCHAR Acircumflex
ENCODING 194
SWIDTH 666 0
DWIDTH 25 0
BBX 25 34 0 0
BITMAP
001E0000
003F0000
007F8000
00F38000
00E1C000
00000000
00000000
003E0000
003E0000
003E0000
00770000
00770000
00F78000
00E38000
00E38000
01C1C000
01C1C000
03C1E000
0380E000
0380E000
07007000
07007000
0F007800
0FFFF800
0FFFF800
1FFFFC00
1C001C00
3C001E00
38000E00
38000E00
70000700
70000700
F0000780
E0000380
ENDCHAR
STARTCHAR Atilde
ENCODING 195
SWIDTH 666 0
DWIDTH 25 0
BBX 25 34 0 0
BITMAP
0071C000
00F9C000
01FFC000
01CF8000
01C70000
00000000
00000000
003E0000
003E0000
003E0000
00770000
00770000
00F78000
00E38000
00E38000
01C1C000
01C1C000
03C1E000
0380E000
0380E000
07007000
07007000
0F007800
0FFFF800
0FFFF800
1FFFFC00
1C001C00
3C001E00
38000E00
38000E00
70000700
70000700
F0000780
E0000380
ENDCHAR
STARTCHAR Adieresis
ENCODING 196
SWIDTH 666 0
DWIDTH 25 0
BBX 25 32 0 0
BITMAP
00E38000
00E38000
00E38000
00000000
00000000
003E0000
003E0000
003E0000
00770000
00770000
00F78000
00E38000
00E38000
01C1C000
01C1C000
03C1E000
0380E000
0380E000
07007000
07007000
0F007800
0FFFF800
0FFFF800
1FFFFC00
1C001C00
3C001E00
38000E00
38000E00
70000700
70000700
F0000780
E0000380
ENDCHAR
STARTCHAR Aring
ENCODING 197
SWIDTH 666 0
DWIDTH 25 0
BBX 25 33 0 0
BITMAP
001C0000
00220000
00410000
00410000
00410000
00220000
003E0000
003E0000
003E0000
00770000
00770000
00F78000
00E38000
00E38000
01C1C000
01C1C000
03C1E000
0380E000
0380E000
07007000
07007000
0F007800
0FFFF800
0FFFF800
1FFFFC00
1C001C00
3C001E00
38000E00
38000E00
70000700
70000700
F0000780
E0000380
ENDCHAR
STARTCHAR AE
ENCODING 198
SWIDTH 1000 0
DWIDTH 38 0
BBX 36 27 0 0
BITMAP
0007FFFFE0
000FFFFFE0
000FFFFFE0
001C380000
001C380000
0038380000
0038380000
0070380000
0070380000
00E0380000
00E0380000
01C0380000
01C03FFFC0
03803FFFC0
03803FFFC0
0700380000
07FFF80000
0FFFF80000
0FFFF80000
1C00380000
1C00380000
3800380000
3800380000
7000380000
70003FFFF0
F0003FFFF0
E0003FFFF0
ENDCHAR
STARTCHAR Ccedilla
ENCODING 199
SWIDTH 722 0
DWIDTH 27 0
BBX 23 34 2 -7
BITMAP
00FF00
03FFC0
0FFFE0
1F81F0
1E0078
380078
78003C
70001C
700000
E00000
E00000
E00000
E00000
E00000
E00000
E00000
E00000
E00000
70000E
70001E
78001C
3C003C
1E0078
1F81F0
0FFFE0
03FFC0
00FF00
003000
002000
007C00
000E00
000E00
01FC00
01F800
ENDCHAR
STARTCHAR Egrave
ENCODING 200
SWIDTH 666 0
DWIDTH 25 0
BBX 20 34 3 0
BITMAP
078000
03C000
01C000
00E000
007000
000000
000000
FFFFE0
FFFFE0
FFFFE0
E00000
E00000
E00000
E00000
E00000
E00000
E00000
E00000
E00000
FFFFC0
FFFFC0
FFFFC0
E00000
E00000
E00000
E00000
E00000
E00000
E00000
E00000
E00000
FFFFF0
FFFFF0
FFFFF0
ENDCHAR
STARTCHAR Eacute
ENCODING 201
SWIDTH 666 0
DWIDTH 25 0
BBX 20 34 3 0
BITMAP
003C00
007800
00F000
00E000
01C000
000000
000000
FFFFE0
FFFFE0
FFFFE0
E00000
E00000
E00000
E00000
E00000
E00000
E00000
E00000
E00000
FFFFC0
FFFFC0
FFFFC0
E00000
E00000
E00000
E00000
E00000
E00000
E00000
E00000
E00000
FFFFF0
FFFFF0
FFFFF0
ENDCHAR
STARTCHAR Ecircumflex
ENCODING 202
SWIDTH 666 0
DWIDTH 25 0
BBX 20 34 3 0
BITMAP
01E000
03F000
07F800
073800
0E1C00
000000
000000
FFFFE0
FFFFE0
FFFFE0
E00000
E00000
E00000
E00000
E00000
E00000
E00000
E00000
E00000
FFFFC0
FFFFC0
FFFFC0
E00000
E00000
E00000
E00000
E00000
E00000
E00000
E00000
E00000
FFFFF0
FFFFF0
FFFFF0
ENDCHAR
STARTCHAR Edieresis
ENCODING 203
SWIDTH 666 0
DWIDTH 25 0
BBX 20 32 3 0
BITMAP
071C00
071C00
071C00
000000
000000
FFFFE0
FFFFE0
FFFFE0
E00000
E00000
E00000
E00000
E00000
E00000
E00000
E00000
E00000
FFFFC0
FFFFC0
FFFFC0
E00000
E00000
E00000
E00000
E00000
E00000
E00000
E00000
E00000
FFFFF0
FFFFF0
FFFFF0
ENDCHAR
STARTCHAR Igrave
ENCODING 204
SWIDTH 277 0
DWIDTH 11 0
BBX 7 34 1 0
BITMAP
F0
78
38
1C
0E
00
00
1C
1C
1C
1C
1C
1C
1C
1C
1C
1C
1C
1C
1C
1C
1C
1C
1C
1C
1C
1C
1C
1C
1C
1C
1C
1C
1C
ENDCHAR
STARTCHAR Iacute
ENCODING 205
SWIDTH 277 0
DWIDTH 11 0
BBX 7 34 3 0
BITMAP
1E
3C
78
70
E0
00
00
70
70
70
70
70
70
70
70
70
70
70
70
70
70
70
70
70
70
70
70
70
70
70
70
70
70
70
ENDCHAR
STARTCHAR Icircumflex
ENCODING 206
SWIDTH 277 0
DWIDTH 11 0
BBX 10 34 1 0
BITMAP
1E00
3F00
7F80
7380
E1C0
0000
0000
1C00
1C00
1C00
1C00
1C00
1C00
1C00
1C00
1C00
1C00
1C00
1C00
1C00
1C00
1C00
1C00
1C00
1C00
1C00
1C00
1C00
1C00
1C00
1C00
1C00
1C00
1C00
ENDCHAR
STARTCHAR Idieresis
ENCODING 207
SWIDTH 277 0
DWIDTH 11 0
BBX 9 32 1 0
BITMAP
E380
E380
E380
0000
0000
1C00
1C00
1C00
1C00
1C00
1C00
1C00
1C00
1C00
1C00
1C00
1C00
1C00
1C00
1C00
1C00
1C00
1C00
1C00
1C00
1C00
1C00
1C00
1C00
1C00
1C00
1C00
ENDCHAR
STARTCHAR Eth
ENCODING 208
SWIDTH 722 0
DWIDTH 27 0
BBX 25 27 0 0
BITMAP
1FFF8000
1FFFF000
1FFFF800
1C007C00
1C001E00
1C000E00
1C000F00
1C000700
1C000700
1C000380
1C000380
1C000380
FFFC0380
FFFC0380
FFFC0380
1C000380
1C000380
1C000380
1C000700
1C000700
1C000F00
1C000E00
1C001E00
1C007C00
1FFFF800
1FFFF000
1FFF8000
ENDCHAR
STARTCHAR Ntilde
ENCODING 209
SWIDTH 722 0
DWIDTH 27 0
BBX 21 34 3 0
BITMAP
00E380
01F380
03FF80
039F00
038E00
000000
000000
F00038
F00038
F80038
FC0038
FC0038
EE0038
EF0038
E70038
E38038
E3C038
E1C038
E0E038
E0F038
E07038
E07838
E03838
E01C38
E01E38
E00E38
E00738
E007B8
E003B8
E001F8
E001F8
E000F8
E00078
E00078
ENDCHAR
STARTCHAR Ograve
ENCODING 210
SWIDTH 777 0
DWIDTH 30 0
BBX 26 34 2 0
BITMAP
00780000
003C0000
001C0000
000E0000
00070000
00000000
00000000
007F8000
01FFE000
07FFF800
0FC0FC00
1E001E00
3C000F00
38000700
70000780
70000380
F00003C0
E00001C0
E00001C0
E00001C0
E00001C0
E00001C0
E00001C0
E00001C0
E00003C0
70000380
70000380
38000700
3C000F00
1E001E00
0FC0FC00
07FFF800
01FFE000
007F8000
ENDCHAR
STARTCHAR Oacute
ENCODING 211
SWIDTH 777 0
DWIDTH 30 0
BBX 26 34 2 0
BITMAP
0003C000
00078000
000F0000
000E0000
001C0000
00000000
00000000
007F8000
01FFE000
07FFF800
0FC0FC00
1E001E00
3C000F00
38000700
70000780
70000380
F00003C0
E00001C0
E00001C0
E00001C0
E00001C0
E00001C0
E00001C0
E00001C0
E00003C0
70000380
70000380
38000700
3C000F00
1E001E00
0FC0FC00
07FFF800
01FFE000
007F8000
ENDCHAR
STARTCHAR Ocircumflex
ENCODING 212
SWIDTH 777 0
DWIDTH 30 0
BBX 26 34 2 0
BITMAP
001F0000
003F0000
003B8000
0071C000
00E1E000
00000000
00000000
007F8000
01FFE000
07FFF800
0FC0FC00
1E001E00
3C000F00
38000700
70000780
70000380
F00003C0
E00001C0
E00001C0
E00001C0
E00001C0
E00001C0
E00001C0
E00001C0
E00003C0
70000380
70000380
38000700
3C000F00
1E001E00
0FC0FC00
07FFF800
01FFE000
007F8000
ENDCHAR
STARTCHAR Otilde
ENCODING 213
SWIDTH 777 0
DWIDTH 30 0
BBX 26 34 2 0
BITMAP
0071C000
00F9C000
01FFC000
01CF8000
01C70000
00000000
00000000
007F8000
01FFE000
07FFF800
0FC0FC00
1E001E00
3C000F00
38000700
70000780
70000380
F00003C0
E00001C0
E00001C0
E00001C0
E00001C0
E00001C0
E00001C0
E00001C0
E00003C0
70000380
70000380
38000700
3C000F00
1E001E00
0FC0FC00
07FFF800
01FFE000
007F8000
ENDCHAR
STARTCHAR Odieresis
ENCODING 214
SWIDTH 777 0
DWIDTH 30 0
BBX 26 32 2 0
BITMAP
0071C000
0071C000
0071C000
00000000
00000000
007F8000
01FFE000
07FFF800
0FC0FC00
1E001E00
3C000F00
38000700
70000780
70000380
F00003C0
E00001C0
E00001C0
E00001C0
E00001C0
E00001C0
E00001C0
E00001C0
E00003C0
70000380
70000380
38000700
3C000F00
1E001E00
0FC0FC00
07FFF800
01FFE000
007F8000
ENDCHAR
STARTCHAR multiply
ENCODING 215
SWIDTH 583 0
DWIDTH 22 0
BBX 14 15 4 6
BITMAP
4008
E01C
F03C
7878
3CF0
1FE0
0FC0
0780
0FC0
1FE0
3CF0
7878
F03C
E01C
4008
ENDCHAR
STARTCHAR Oslash
ENCODING 216
SWIDTH 777 0
DWIDTH 30 0
BBX 26 29 2 -1
BITMAP
00000180
007F81C0
01FFF380
07FFFF00
0FC0FF00
1E001E00
3C003F00
38007F00
7000F780
7000E380
F001C3C0
E003C1C0
E00781C0
E00F01C0
E01E01C0
E03C01C0
E03801C0
E07001C0
F0E00380
71E00380
7BC00380
7F800700
3F000F00
1E001E00
1FC0FC00
3FFFF800
7BFFE000
F07F8000
60000000
ENDCHAR
STARTCHAR Ugrave
ENCODING 217
SWIDTH 722 0
DWIDTH 27 0
BBX 21 34 3 0
BITMAP
03C000
01E000
00E000
007000
003800
000000
000000
E00038
E00038
E00038
E00038
E00038
E00038
E00038
E00038
E00038
E00038
E00038
E00038
E00038
E00038
E00038
E00038
E00038
E00038
E00038
E00038
700070
700070
7800F0
3E03E0
1FFFC0
0FFF80
03FC00
ENDCHAR
STARTCHAR Uacute
ENCODING 218
SWIDTH 722 0
DWIDTH 27 0
BBX 21 34 3 0
BITMAP
003C00
007800
00F000
00E000
01C000
000000
000000
E00038
E00038
E00038
E00038
E00038
E00038
E00038
E00038
E00038
E00038
E00038
E00038
E00038
E00038
E00038
E00038
E00038
E00038
E00038
E00038
700070
700070
7800F0
3E03E0
1FFFC0
0FFF80
03FC00
ENDCHAR
STARTCHAR Ucircumflex
ENCODING 219
SWIDTH 722 0
DWIDTH 27 0
BBX 21 34 3 0
BITMAP
007800
00FC00
01FE00
01CE00
038700
000000
000000
E00038
E00038
E00038
E00038
E00038
E00038
E00038
E00038
E00038
E00038
E00038
E00038
E00038
E00038
E00038
E00038
E00038
E00038
E00038
E00038
700070
700070
7800F0
3E03E0
1FFFC0
0FFF80
03FC00
ENDCHAR
STARTCHAR Udieresis
ENCODING 220
SWIDTH 722 0
DWIDTH 27 0
BBX 21 32 3 0
BITMAP
038E00
038E00
038E00
000000
000000
E00038
E00038
E00038
E00038
E00038
E00038
E00038
E00038
E00038
E00038
E00038
E00038
E00038
E00038
E00038
E00038
E00038
E00038
E00038
E00038
700070
700070
7800F0
3E03E0
1FFFC0
0FFF80
03FC00
ENDCHAR
STARTCHAR Yacute
ENCODING 221
SWIDTH 666 0
DWIDTH 25 0
BBX 23 34 1 0
BITMAP
000F00
001E00
003C00
003800
007000
000000
000000
F0001E
70001C
380038
3C0078
1C0070
0E00E0
0F01E0
0701C0
0783C0
038780
01C700
01EF00
00EE00
007C00
007C00
003800
003800
003800
003800
003800
003800
003800
003800
003800
003800
003800
003800
ENDCHAR
STARTCHAR Thorn
ENCODING 222
SWIDTH 666 0
DWIDTH 25 0
BBX 20 27 3 0
BITMAP
E00000
E00000
E00000
E00000
E00000
FFFE00
FFFF80
FFFFC0
E003E0
E000E0
E000F0
E00070
E00070
E00070
E00070
E00070
E000F0
E001E0
E003E0
FFFFC0
FFFF80
FFFC00
E00000
E00000
E00000
E00000
E00000
ENDCHAR
STARTCHAR germandbls
ENCODING 223
SWIDTH 610 0
DWIDTH 23 0
BBX 19 27 3 0
BITMAP
07E000
1FF800
3FFC00
7C3E00
700E00
F00E00
E00E00
E01E00
E01C00
E03C00
E03800
E07000
E07000
E07800
E07C00
E03E00
E00F80
E007C0
E001C0
E001E0
E000E0
E100E0
E781E0
E3C3C0
E3FFC0
E0FF80
E07E00
ENDCHAR
STARTCHAR agrave
ENCODING 224
SWIDTH 556 0
DWIDTH 21 0
BBX 17 27 2 0
BITMAP
078000
03C000
01C000
00E000
007000
000000
000000
07F000
1FFC00
3FFE00
781F00
F00700
E00700
000700
001F00
07FF00
1FFF00
7FE700
7C0700
F00700
E00700
E00F00
E01F00
F03F00
7FFF00
3FF700
1FC380
ENDCHAR
STARTCHAR aacute
ENCODING 225
SWIDTH 556 0
DWIDTH 21 0
BBX 17 27 2 0
BITMAP
007800
00F000
01E000
01C000
038000
000000
000000
07F000
1FFC00
3FFE00
781F00
F00700
E00700
000700
001F00
07FF00
1FFF00
7FE700
7C0700
F00700
E00700
E00F00
E01F00
F03F00
7FFF00
3FF700
1FC380
ENDCHAR
STARTCHAR acircumflex
ENCODING 226
SWIDTH 556 0
DWIDTH 21 0
BBX 17 27 2 0
BITMAP
01E000
03F000
07B800
073C00
0E1C00
000000
000000
07F000
1FFC00
3FFE00
781F00
F00700
E00700
000700
001F00
07FF00
1FFF00
7FE700
7C0700
F00700
E00700
E00F00
E01F00
F03F00
7FFF00
3FF700
1FC380
ENDCHAR
STARTCHAR atilde
ENCODING 227
SWIDTH 556 0
DWIDTH 21 0
BBX 17 27 2 0
BITMAP
071C00
0F9C00
1FFC00
1CF800
1C7000
000000
000000
07F000
1FFC00
3FFE00
781F00
F00700
E00700
000700
001F00
07FF00
1FFF00
7FE700
7C0700
F00700
E00700
E00F00
E01F00
F03F00
7FFF00
3FF700
1FC380
ENDCHAR
STARTCHAR adieresis
ENCODING 228
SWIDTH 556 0
DWIDTH 21 0
BBX 17 25 2 0
BITMAP
0E3800
0E3800
0E3800
000000
000000
07F000
1FFC00
3FFE00
781F00
F00700
E00700
000700
001F00
07FF00
1FFF00
7FE700
7C0700
F00700
E00700
E00F00
E01F00
F03F00
7FFF00
3FF700
1FC380
ENDCHAR
STARTCHAR aring
ENCODING 229
SWIDTH 556 0
DWIDTH 21 0
BBX 17 29 2 0
BITMAP
01C000
022000
041000
041000
041000
022000
01C000
000000
000000
07F000
1FFC00
3FFE00
781F00
F00700
E00700
000700
001F00
07FF00
1FFF00
7FE700
7C0700
F00700
E00700
E00F00
E01F00
F03F00
7FFF00
3FF700
1FC380
ENDCHAR
STARTCHAR ae
ENCODING 230
SWIDTH 889 0
DWIDTH 34 0
BBX 31 20 2 0
BITMAP
07F81F80
1FFE7FE0
3FFFFFF0
780FF078
F003E01C
E003C01C
0003800C
000F800E
03FFFFFE
1FFFFFFE
3FF3FFFE
7C038000
F0038000
E0038000
E007C00E
E00FE01C
F83FF07C
7FFCFFF8
3FF07FF0
0FC01FC0
ENDCHAR
STARTCHAR ccedilla
ENCODING 231
SWIDTH 500 0
DWIDTH 19 0
BBX 16 27 2 -7
BITMAP
03E0
0FF8
3FFC
3C1E
780E
700F
E007
E000
E000
E000
E000
E000
E000
E007
7007
780E
3C1E
3FFC
1FF8
07E0
0180
0100
03E0
0070
0070
0FE0
0FC0
ENDCHAR
STARTCHAR egrave
ENCODING 232
SWIDTH 556 0
DWIDTH 20 0
BBX 17 27 2 0
BITMAP
078000
03C000
01C000
00E000
007000
000000
000000
03F000
0FF800
1FFE00
3C1E00
780700
700700
E00380
E00380
FFFF80
FFFF80
FFFF80
E00000
E00000
F00000
700380
780700
3C1F00
3FFE00
0FFC00
07F000
ENDCHAR
STARTCHAR eacute
ENCODING 233
SWIDTH 556 0
DWIDTH 20 0
BBX 17 27 2 0
BITMAP
007800
00F000
01E000
01C000
038000
000000
000000
03F000
0FF800
1FFE00
3C1E00
780700
700700
E00380
E00380
FFFF80
FFFF80
FFFF80
E00000
E00000
F00000
700380
780700
3C1F00
3FFE00
0FFC00
07F000
ENDCHAR
STARTCHAR ecircumflex
ENCODING 234
SWIDTH 556 0
DWIDTH 20 0
BBX 17 27 2 0
BITMAP
01E000
03F000
07B800
073C00
0E1C00
000000
000000
03F000
0FF800
1FFE00
3C1E00
780700
700700
E00380
E00380
FFFF80
FFFF80
FFFF80
E00000
E00000
F00000
700380
780700
3C1F00
3FFE00
0FFC00
07F000
ENDCHAR
STARTCHAR edieresis
ENCODING 235
SWIDTH 556 0
DWIDTH 20 0
BBX 17 25 2 0
BITMAP
0E3800
0E3800
0E3800
000000
000000
03F000
0FF800
1FFE00
3C1E00
780700
700700
E00380
E00380
FFFF80
FFFF80
FFFF80
E00000
E00000
F00000
700380
780700
3C1F00
3FFE00
0FFC00
07F000
ENDCHAR
STARTCHAR igrave
ENCODING 236
SWIDTH 277 0
DWIDTH 11 0
BBX 7 27 1 0
BITMAP
F0
78
38
1C
0E
00
00
1C
1C
1C
1C
1C
1C
1C
1C
1C
1C
1C
1C
1C
1C
1C
1C
1C
1C
1C
1C
ENDCHAR
STARTCHAR iacute
ENCODING 237
SWIDTH 277 0
DWIDTH 11 0
BBX 7 27 3 0
BITMAP
1E
3C
78
70
E0
00
00
70
70
70
70
70
70
70
70
70
70
70
70
70
70
70
70
70
70
70
70
ENDCHAR
STARTCHAR icircumflex
ENCODING 238
SWIDTH 277 0
DWIDTH 11 0
BBX 10 27 1 0
BITMAP
1F00
3F00
7B80
73C0
E1C0
0000
0000
1C00
1C00
1C00
1C00
1C00
1C00
1C00
1C00
1C00
1C00
1C00
1C00
1C00
1C00
1C00
1C00
1C00
1C00
1C00
1C00
ENDCHAR
STARTCHAR idieresis
ENCODING 239
SWIDTH 277 0
DWIDTH 11 0
BBX 9 25 1 0
BITMAP
E380
E380
E380
0000
0000
1C00
1C00
1C00
1C00
1C00
1C00
1C00
1C00
1C00
1C00
1C00
1C00
1C00
1C00
1C00
1C00
1C00
1C00
1C00
1C00
ENDCHAR
STARTCHAR eth
ENCODING 240
SWIDTH 556 0
DWIDTH 21 0
BBX 19 27 1 0
BITMAP
078100
03EF00
00FE00
01F800
07FC00
0F1E00
0C0F00
000F00
03F780
0FFF80
1FFFC0
3E0FC0
7803C0
7001E0
F001E0
E000E0
E000E0
E000E0
E000E0
E000E0
E001E0
7001C0
7803C0
3E0F80
1FFF00
0FFE00
03F800
ENDCHAR
STARTCHAR ntilde
ENCODING 241
SWIDTH 556 0
DWIDTH 21 0
BBX 15 27 3 0
BITMAP
0E38
1F38
3FF8
39F0
38E0
0000
0000
E3E0
EFF8
FFFC
FC3C
F01E
F00E
E00E
E00E
E00E
E00E
E00E
E00E
E00E
E00E
E00E
E00E
E00E
E00E
E00E
E00E
ENDCHAR
STARTCHAR ograve
ENCODING 242
SWIDTH 556 0
DWIDTH 21 0
BBX 17 27 2 0
BITMAP
078000
03C000
01C000
00E000
007000
000000
000000
07E000
0FF800
3FFE00
3C1E00
780F00
700700
F00780
E00380
E00380
E00380
E00380
E00380
E00380
F00780
700700
780F00
3C1E00
3FFE00
0FF800
03F000
ENDCHAR
STARTCHAR oacute
ENCODING 243
SWIDTH 556 0
DWIDTH 21 0
BBX 17 27 2 0
BITMAP
007800
00F000
01E000
01C000
038000
000000
000000
07E000
0FF800
3FFE00
3C1E00
780F00
700700
F00780
E00380
E00380
E00380
E00380
E00380
E00380
F00780
700700
780F00
3C1E00
3FFE00
0FF800
03F000
ENDCHAR
STARTCHAR ocircumflex
ENCODING 244
SWIDTH 556 0
DWIDTH 21 0
BBX 17 27 2 0
BITMAP
01F000
03F000
07B800
073C00
0E1C00
000000
000000
07E000
0FF800
3FFE00
3C1E00
780F00
700700
F00780
E00380
E00380
E00380
E00380
E00380
E00380
F00780
700700
780F00
3C1E00
3FFE00
0FF800
03F000
ENDCHAR
STARTCHAR otilde
ENCODING 245
SWIDTH 556 0
DWIDTH 21 0
BBX 17 27 2 0
BITMAP
071C00
0F9C00
1FFC00
1CF800
1C7000
000000
000000
07E000
0FF800
3FFE00
3C1E00
780F00
700700
F00780
E00380
E00380
E00380
E00380
E00380
E00380
F00780
700700
780F00
3C1E00
3FFE00
0FF800
03F000
ENDCHAR
STARTCHAR odieresis
ENCODING 246
SWIDTH 556 0
DWIDTH 21 0
BBX 17 25 2 0
BITMAP
071C00
071C00
071C00
000000
000000
07E000
0FF800
3FFE00
3C1E00
780F00
700700
F00780
E00380
E00380
E00380
E00380
E00380
E00380
F00780
700700
780F00
3C1E00
3FFE00
0FF800
03F000
ENDCHAR
STARTCHAR divide
ENCODING 247
SWIDTH 548 0
DWIDTH 21 0
BBX 17 13 2 8
BITMAP
01C000
01C000
01C000
000000
000000
FFFF80
FFFF80
FFFF80
000000
000000
01C000
01C000
01C000
ENDCHAR
STARTCHAR oslash
ENCODING 248
SWIDTH 610 0
DWIDTH 23 0
BBX 17 22 3 -1
BITMAP
000300
07E780
1FFF00
3FFE00
7C1E00
783F00
707F00
E07780
E0F380
E1E380
E1C380
E38380
E78380
EF0380
EE0780
FE0700
7C0F00
781E00
7FFE00
FFF800
E3E000
400000
ENDCHAR
STARTCHAR ugrave
ENCODING 249
SWIDTH 556 0
DWIDTH 21 0
BBX 15 27 3 0
BITMAP
1E00
0F00
0700
0380
01C0
0000
0000
E00E
E00E
E00E
E00E
E00E
E00E
E00E
E00E
E00E
E00E
E00E
E00E
E00E
E00E
E01E
F01E
787E
7FEE
3FCE
1F8E
ENDCHAR
STARTCHAR uacute
ENCODING 250
SWIDTH 556 0
DWIDTH 21 0
BBX 15 27 3 0
BITMAP
00F0
01E0
03C0
0380
0700
0000
0000
E00E
E00E
E00E
E00E
E00E
E00E
E00E
E00E
E00E
E00E
E00E
E00E
E00E
E00E
E01E
F01E
787E
7FEE
3FCE
1F8E
ENDCHAR
STARTCHAR ucircumflex
ENCODING 251
SWIDTH 556 0
DWIDTH 21 0
BBX 15 27 3 0
BITMAP
03C0
07E0
0FF0
0E70
1C38
0000
0000
E00E
E00E
E00E
E00E
E00E
E00E
E00E
E00E
E00E
E00E
E00E
E00E
E00E
E00E
E01E
F01E
787E
7FEE
3FCE
1F8E
ENDCHAR
STARTCHAR udieresis
ENCODING 252
SWIDTH 556 0
DWIDTH 21 0
BBX 15 25 3 0
BITMAP
1C70
1C70
1C70
0000
0000
E00E
E00E
E00E
E00E
E00E
E00E
E00E
E00E
E00E
E00E
E00E
E00E
E00E
E00E
E01E
F01E
787E
7FEE
3FCE
1F8E
ENDCHAR
STARTCHAR yacute
ENCODING 253
SWIDTH 500 0
DWIDTH 19 0
BBX 17 35 1 -8
BITMAP
007800
00F000
01E000
01C000
038000
000000
000000
E00380
700780
700700
700700
380F00
380E00
3C0E00
1C1E00
1C1C00
1E1C00
0E3C00
0E3800
0F3800
077000
077000
07F000
03E000
03E000
03E000
01C000
01C000
01C000
038000
038000
070000
7F0000
7E0000
7C0000
ENDCHAR
STARTCHAR thorn
ENCODING 254
SWIDTH 556 0
DWIDTH 21 0
BBX 17 35 3 -8
BITMAP
E00000
E00000
E00000
E00000
E00000
E00000
E00000
E3E000
EFF800
FFFE00
FC1E00
F80F00
F00700
E00780
E00380
E00380
E00380
E00380
E00380
E00380
E00780
F00700
F80F00
FC1E00
FFFC00
EFF800
E3E000
E00000
E00000
E00000
E00000
E00000
E00000
E00000
E00000
ENDCHAR
STARTCHAR ydieresis
ENCODING 255
SWIDTH 500 0
DWIDTH 19 0
BBX 17 33 1 -8
BITMAP
0E3800
0E3800
0E3800
000000
000000
E00380
700780
700700
700700
380F00
380E00
3C0E00
1C1E00
1C1C00
1E1C00
0E3C00
0E3800
0F3800
077000
077000
07F000
03E000
03E000
03E000
01C000
01C000
01C000
038000
038000
070000
7F0000
7E0000
7C0000
ENDCHAR
STARTCHAR Amacron
ENCODING 256
SWIDTH 666 0
DWIDTH 25 0
BBX 25 32 0 0
BITMAP
03FFC000
03FFC000
03FFC000
00000000
00000000
003E0000
003E0000
003E0000
00770000
00770000
00F78000
00E38000
00E38000
01C1C000
01C1C000
03C1E000
0380E000
0380E000
07007000
07007000
0F007800
0FFFF800
0FFFF800
1FFFFC00
1C001C00
3C001E00
38000E00
38000E00
70000700
70000700
F0000780
E0000380
ENDCHAR
STARTCHAR amacron
ENCODING 257
SWIDTH 556 0
DWIDTH 21 0
BBX 17 26 2 0
BITMAP
1FFE00
1FFE00
1FFE00
000000
000000
000000
07F000
1FFC00
3FFE00
781F00
F00700
E00700
000700
001F00
07FF00
1FFF00
7FE700
7C0700
F00700
E00700
E00F00
E01F00
F03F00
7FFF00
3FF700
1FC380
ENDCHAR
STARTCHAR Abreve
ENCODING 258
SWIDTH 666 0
DWIDTH 25 0
BBX 25 34 0 0
BITMAP
0180C000
01C1C000
00C18000
00FF8000
003E0000
00000000
00000000
003E0000
003E0000
003E0000
00770000
00770000
00F78000
00E38000
00E38000
01C1C000
01C1C000
03C1E000
0380E000
0380E000
07007000
07007000
0F007800
0FFFF800
0FFFF800
1FFFFC00
1C001C00
3C001E00
38000E00
38000E00
70000700
70000700
F0000780
E0000380
ENDCHAR
STARTCHAR abreve
ENCODING 259
SWIDTH 556 0
DWIDTH 21 0
BBX 17 27 2 0
BITMAP
180C00
1C1C00
0C1800
0FF800
03E000
000000
000000
07F000
1FFC00
3FFE00
781F00
F00700
E00700
000700
001F00
07FF00
1FFF00
7FE700
7C0700
F00700
E00700
E00F00
E01F00
F03F00
7FFF00
3FF700
1FC380
ENDCHAR
STARTCHAR Aogonek
ENCODING 260
SWIDTH 666 0
DWIDTH 25 0
BBX 27 35 0 -8
BITMAP
003E0000
003E0000
003E0000
00770000
00770000
00F78000
00E38000
00E38000
01C1C000
01C1C000
03C1E000
0380E000
0380E000
07007000
07007000
0F007800
0FFFF800
0FFFF800
1FFFFC00
1C001C00
3C001E00
38000E00
38000E00
70000700
70000700
F0000780
E0000380
00000100
00000300
00000600
00000600
00000600
00000600
000007E0
000003C0
ENDCHAR
STARTCHAR aogonek
ENCODING 261
SWIDTH 556 0
DWIDTH 21 0
BBX 18 28 2 -8
BITMAP
07F000
1FFC00
3FFE00
781F00
F00700
E00700
000700
001F00
07FF00
1FFF00
7FE700
7C0700
F00700
E00700
E00F00
E01F00
F03F00
7FFF00
3FF700
1FC380
000300
000200
000600
000600
000C00
000600
0007C0
0003C0
ENDCHAR
STARTCHAR Cacute
ENCODING 262
SWIDTH 722 0
DWIDTH 27 0
BBX 23 34 2 0
BITMAP
000780
000F00
001E00
001C00
003800
000000
000000
00FF00
03FFC0
0FFFE0
1F81F0
1E0078
380078
78003C
70001C
700000
E00000
E00000
E00000
E00000
E00000
E00000
E00000
E00000
E00000
70000E
70001E
78001C
3C003C
1E0078
1F81F0
0FFFE0
03FFC0
00FF00
ENDCHAR
STARTCHAR cacute
ENCODING 263
SWIDTH 500 0
DWIDTH 19 0
BBX 16 27 2 0
BITMAP
0078
00F0
01E0
01C0
0380
0000
0000
03E0
0FF8
3FFC
3C1E
780E
700F
E007
E000
E000
E000
E000
E000
E000
E007
7007
780E
3C1E
3FFC
1FF8
07E0
ENDCHAR
STARTCHAR Ccircumflex
ENCODING 264
SWIDTH 722 0
DWIDTH 27 0
BBX 23 34 2 0
BITMAP
007800
00FC00
01FE00
01CE00
038700
000000
000000
00FF00
03FFC0
0FFFE0
1F81F0
1E0078
380078
78003C
70001C
700000
E00000
E00000
E00000
E00000
E00000
E00000
E00000
E00000
E00000
70000E
70001E
78001C
3C003C
1E0078
1F81F0
0FFFE0
03FFC0
00FF00
ENDCHAR
STARTCHAR ccircumflex
ENCODING 265
SWIDTH 500 0
DWIDTH 19 0
BBX 16 27 2 0
BITMAP
03E0
03F0
0770
0E38
1E1C
0000
0000
03E0
0FF8
3FFC
3C1E
780E
700F
E007
E000
E000
E000
E000
E000
E000
E007
7007
780E
3C1E
3FFC
1FF8
07E0
ENDCHAR
STARTCHAR Cdotaccent
ENCODING 266
SWIDTH 722 0
DWIDTH 27 0
BBX 23 32 2 0
BITMAP
003800
003800
003800
000000
000000
00FF00
03FFC0
0FFFE0
1F81F0
1E0078
380078
78003C
70001C
700000
E00000
E00000
E00000
E00000
E00000
E00000
E00000
E00000
E00000
70000E
70001E
78001C
3C003C
1E0078
1F81F0
0FFFE0
03FFC0
00FF00
ENDCHAR
STARTCHAR cdotaccent
ENCODING 267
SWIDTH 500 0
DWIDTH 19 0
BBX 16 25 2 0
BITMAP
01C0
01C0
01C0
0000
0000
03E0
0FF8
3FFC
3C1E
780E
700F
E007
E000
E000
E000
E000
E000
E000
E007
7007
780E
3C1E
3FFC
1FF8
07E0
ENDCHAR
STARTCHAR Ccaron
ENCODING 268
SWIDTH 722 0
DWIDTH 27 0
BBX 23 34 2 0
BITMAP
038700
01CE00
01FE00
00FC00
007800
000000
000000
00FF00
03FFC0
0FFFE0
1F81F0
1E0078
380078
78003C
70001C
700000
E00000
E00000
E00000
E00000
E00000
E00000
E00000
E00000
E00000
70000E
70001E
78001C
3C003C
1E0078
1F81F0
0FFFE0
03FFC0
00FF00
ENDCHAR
STARTCHAR ccaron
ENCODING 269
SWIDTH 500 0
DWIDTH 19 0
BBX 16 27 2 0
BITMAP
0E1C
0F38
0778
03F0
03E0
0000
0000
03E0
0FF8
3FFC
3C1E
780E
700F
E007
E000
E000
E000
E000
E000
E000
E007
7007
780E
3C1E
3FFC
1FF8
07E0
ENDCHAR
STARTCHAR Dcaron
ENCODING 270
SWIDTH 722 0
DWIDTH 27 0
BBX 22 34 3 0
BITMAP
0E1C00
073800
07F800
03F000
01E000
000000
000000
FFFC00
FFFF80
FFFFC0
E003E0
E000F0
E00070
E00078
E00038
E00038
E0001C
E0001C
E0001C
E0001C
E0001C
E0001C
E0001C
E0001C
E0001C
E00038
E00038
E00078
E00070
E000F0
E003E0
FFFFC0
FFFF80
FFFC00
ENDCHAR
STARTCHAR dcaron
ENCODING 271
SWIDTH 614 0
DWIDTH 23 0
BBX 22 27 1 0
BITMAP
00039C
00039C
00039C
000384
000384
00038C
000398
03E390
0FFB80
3FFF80
3C1F80
780F80
700780
E00780
E00380
E00380
E00380
E00380
E00380
E00380
F00780
700780
780F80
3C1F80
1FFF80
0FFB80
03E380
ENDCHAR
STARTCHAR Dcroat
ENCODING 272
SWIDTH 722 0
DWIDTH 27 0
BBX 25 27 0 0
BITMAP
1FFF8000
1FFFF000
1FFFF800
1C007C00
1C001E00
1C000E00
1C000F00
1C000700
1C000700
1C000380
1C000380
1C000380
FFFC0380
FFFC0380
FFFC0380
1C000380
1C000380
1C000380
1C000700
1C000700
1C000F00
1C000E00
1C001E00
1C007C00
1FFFF800
1FFFF000
1FFF8000
ENDCHAR
STARTCHAR dcroat
ENCODING 273
SWIDTH 556 0
DWIDTH 21 0
BBX 20 27 1 0
BITMAP
000380
000380
00FFF0
00FFF0
000380
000380
000380
03E380
0FFB80
3FFF80
3C1F80
780F80
700780
E00780
E00380
E00380
E00380
E00380
E00380
E00380
F00780
700780
780F80
3C1F80
1FFF80
0FFB80
03E380
ENDCHAR
STARTCHAR Emacron
ENCODING 274
SWIDTH 666 0
DWIDTH 25 0
BBX 20 32 3 0
BITMAP
0FFF00
0FFF00
0FFF00
000000
000000
FFFFE0
FFFFE0
FFFFE0
E00000
E00000
E00000
E00000
E00000
E00000
E00000
E00000
E00000
FFFFC0
FFFFC0
FFFFC0
E00000
E00000
E00000
E00000
E00000
E00000
E00000
E00000
E00000
FFFFF0
FFFFF0
FFFFF0
ENDCHAR
STARTCHAR emacron
ENCODING 275
SWIDTH 556 0
DWIDTH 20 0
BBX 17 26 2 0
BITMAP
1FFE00
1FFE00
1FFE00
000000
000000
000000
03F000
0FF800
1FFE00
3C1E00
780700
700700
E00380
E00380
FFFF80
FFFF80
FFFF80
E00000
E00000
F00000
700380
780700
3C1F00
3FFE00
0FFC00
07F000
ENDCHAR
STARTCHAR Ebreve
ENCODING 276
SWIDTH 666 0
DWIDTH 25 0
BBX 20 34 3 0
BITMAP
0C0600
0E0E00
060C00
07FC00
01F000
000000
000000
FFFFE0
FFFFE0
FFFFE0
E00000
E00000
E00000
E00000
E00000
E00000
E00000
E00000
E00000
FFFFC0
FFFFC0
FFFFC0
E00000
E00000
E00000
E00000
E00000
E00000
E00000
E00000
E00000
FFFFF0
FFFFF0
FFFFF0
ENDCHAR
STARTCHAR ebreve
ENCODING 277
SWIDTH 556 0
DWIDTH 20 0
BBX 17 27 2 0
BITMAP
180C00
1C1C00
0C1800
0FF800
03E000
000000
000000
03F000
0FF800
1FFE00
3C1E00
780700
700700
E00380
E00380
FFFF80
FFFF80
FFFF80
E00000
E00000
F00000
700380
780700
3C1F00
3FFE00
0FFC00
07F000
ENDCHAR
STARTCHAR Edotaccent
ENCODING 278
SWIDTH 666 0
DWIDTH 25 0
BBX 20 32 3 0
BITMAP
00E000
00E000
00E000
000000
000000
FFFFE0
FFFFE0
FFFFE0
E00000
E00000
E00000
E00000
E00000
E00000
E00000
E00000
E00000
FFFFC0
FFFFC0
FFFFC0
E00000
E00000
E00000
E00000
E00000
E00000
E00000
E00000
E00000
FFFFF0
FFFFF0
FFFFF0
ENDCHAR
STARTCHAR edotaccent
ENCODING 279
SWIDTH 556 0
DWIDTH 20 0
BBX 17 25 2 0
BITMAP
00E000
00E000
00E000
000000
000000
03F000
0FF800
1FFE00
3C1E00
780700
700700
E00380
E00380
FFFF80
FFFF80
FFFF80
E00000
E00000
F00000
700380
780700
3C1F00
3FFE00
0FFC00
07F000
ENDCHAR
STARTCHAR Eogonek
ENCODING 280
SWIDTH 666 0
DWIDTH 25 0
BBX 21 35 3 -8
BITMAP
FFFFE0
FFFFE0
FFFFE0
E00000
E00000
E00000
E00000
E00000
E00000
E00000
E00000
E00000
FFFFC0
FFFFC0
FFFFC0
E00000
E00000
E00000
E00000
E00000
E00000
E00000
E00000
E00000
FFFFF0
FFFFF0
FFFFF0
000040
000080
000180
000180
000180
000180
0001F8
0000F0
ENDCHAR
STARTCHAR eogonek
ENCODING 281
SWIDTH 556 0
DWIDTH 20 0
BBX 17 28 2 -8
BITMAP
03F000
0FF800
1FFE00
3C1E00
780700
700700
E00380
E00380
FFFF80
FFFF80
FFFF80
E00000
E00000
F00000
700380
780700
3C1F00
3FFE00
0FFC00
07F000
003000
006000
004000
00C000
00C000
00E000
007C00
003C00
ENDCHAR
STARTCHAR Ecaron
ENCODING 282
SWIDTH 666 0
DWIDTH 25 0
BBX 20 34 3 0
BITMAP
0E1C00
073800
07F800
03F000
01E000
000000
000000
FFFFE0
FFFFE0
FFFFE0
E00000
E00000
E00000
E00000
E00000
E00000
E00000
E00000
E00000
FFFFC0
FFFFC0
FFFFC0
E00000
E00000
E00000
E00000
E00000
E00000
E00000
E00000
E00000
FFFFF0
FFFFF0
FFFFF0
ENDCHAR
STARTCHAR ecaron
ENCODING 283
SWIDTH 556 0
DWIDTH 20 0
BBX 17 27 2 0
BITMAP
0E1C00
073800
07F800
03F000
01E000
000000
000000
03F000
0FF800
1FFE00
3C1E00
780700
700700
E00380
E00380
FFFF80
FFFF80
FFFF80
E00000
E00000
F00000
700380
780700
3C1F00
3FFE00
0FFC00
07F000
ENDCHAR
STARTCHAR Gcircumflex
ENCODING 284
SWIDTH 777 0
DWIDTH 30 0
BBX 26 34 2 0
BITMAP
000F0000
001F8000
003FC000
0039C000
0070E000
00000000
00000000
003FC000
01FFF800
07FFFE00
0FC03F00
1F000F00
3C000780
38000380
780003C0
70000000
70000000
E0000000
E0000000
E0000000
E003FFC0
E003FFC0
E003FFC0
E00001C0
F00001C0
700001C0
700001C0
380001C0
3C0001C0
1F0007C0
0FC03F80
07FFFE00
01FFFC00
003FC000
ENDCHAR
STARTCHAR gcircumflex
ENCODING 285
SWIDTH 556 0
DWIDTH 21 0
BBX 16 35 2 -8
BITMAP
03E0
03F0
0770
0E38
0E1C
0000
0000
07C7
1FF7
3FFF
3C3F
781F
700F
E00F
E007
E007
E007
E007
E007
E007
E007
700F
781F
3C3F
3FFF
1FF7
07E7
0007
0007
E00F
F00E
F83E
7FFC
3FF8
0FE0
ENDCHAR
STARTCHAR Gbreve
ENCODING 286
SWIDTH 777 0
DWIDTH 30 0
BBX 26 34 2 0
BITMAP
00603000
00707000
00306000
003FE000
000F8000
00000000
00000000
003FC000
01FFF800
07FFFE00
0FC03F00
1F000F00
3C000780
38000380
780003C0
70000000
70000000
E0000000
E0000000
E0000000
E003FFC0
E003FFC0
E003FFC0
E00001C0
F00001C0
700001C0
700001C0
380001C0
3C0001C0
1F0007C0
0FC03F80
07FFFE00
01FFFC00
003FC000
ENDCHAR
STARTCHAR gbreve
ENCODING 287
SWIDTH 556 0
DWIDTH 21 0
BBX 16 35 2 -8
BITMAP
180C
1C1C
0C18
0FF8
03E0
0000
0000
07C7
1FF7
3FFF
3C3F
781F
700F
E00F
E007
E007
E007
E007
E007
E007
E007
700F
781F
3C3F
3FFF
1FF7
07E7
0007
0007
E00F
F00E
F83E
7FFC
3FF8
0FE0
ENDCHAR
STARTCHAR Gdotaccent
ENCODING 288
SWIDTH 777 0
DWIDTH 30 0
BBX 26 32 2 0
BITMAP
000E0000
000E0000
000E0000
00000000
00000000
003FC000
01FFF800
07FFFE00
0FC03F00
1F000F00
3C000780
38000380
780003C0
70000000
70000000
E0000000
E0000000
E0000000
E003FFC0
E003FFC0
E003FFC0
E00001C0
F00001C0
700001C0
700001C0
380001C0
3C0001C0
1F0007C0
0FC03F80
07FFFE00
01FFFC00
003FC000
ENDCHAR
STARTCHAR gdotaccent
ENCODING 289
SWIDTH 556 0
DWIDTH 21 0
BBX 16 33 2 -8
BITMAP
01C0
01C0
01C0
0000
0000
07C7
1FF7
3FFF
3C3F
781F
700F
E00F
E007
E007
E007
E007
E007
E007
E007
700F
781F
3C3F
3FFF
1FF7
07E7
0007
0007
E00F
F00E
F83E
7FFC
3FF8
0FE0
ENDCHAR
STARTCHAR uni0122
ENCODING 290
SWIDTH 777 0
DWIDTH 30 0
BBX 25 38 2 -10
BITMAP
000F0000
00FFE000
03FFF800
0FFBFC00
1F803E00
1E000F00
3C000F00
78000780
78000700
78000000
F0000000
F0000000
F0000000
F0000000
F003FF80
F003FF80
F003FF80
F0000380
F0000380
78000380
78000380
3C000380
3E000380
1F000F80
0FC03F80
07FFFE00
03FFFC00
00FFE000
00000000
00000000
00000000
000F0000
000F0000
000F0000
00030000
00070000
000E0000
000C0000
ENDCHAR
STARTCHAR uni0123
ENCODING 291
SWIDTH 556 0
DWIDTH 21 0
BBX 16 38 2 -8
BITMAP
0080
01C0
0380
0300
0300
0380
0380
0380
0000
0000
07C7
1FF7
3FFF
3C3F
781F
700F
E00F
E007
E007
E007
E007
E007
E007
E00F
700F
781F
3C3F
3FFF
1FF7
07E7
0007
0007
E007
F00E
F83E
7FFC
3FF8
0FE0
ENDCHAR
STARTCHAR Hcircumflex
ENCODING 292
SWIDTH 722 0
DWIDTH 27 0
BBX 21 34 3 0
BITMAP
007800
00FC00
01FE00
01CE00
038700
000000
000000
E00038
E00038
E00038
E00038
E00038
E00038
E00038
E00038
E00038
E00038
E00038
FFFFF8
FFFFF8
FFFFF8
E00038
E00038
E00038
E00038
E00038
E00038
E00038
E00038
E00038
E00038
E00038
E00038
E00038
ENDCHAR
STARTCHAR hcircumflex
ENCODING 293
SWIDTH 556 0
DWIDTH 21 0
BBX 15 34 3 0
BITMAP
01E0
03F0
07F8
0738
0E1C
0000
0000
E000
E000
E000
E000
E000
E000
E000
E3E0
EFF8
FFFC
FC3C
F01E
F00E
E00E
E00E
E00E
E00E
E00E
E00E
E00E
E00E
E00E
E00E
E00E
E00E
E00E
E00E
ENDCHAR
STARTCHAR Hbar
ENCODING 294
SWIDTH 722 0
DWIDTH 27 0
BBX 25 27 1 0
BITMAP
38000E00
38000E00
38000E00
38000E00
FFFFFF80
FFFFFF80
FFFFFF80
38000E00
38000E00
38000E00
38000E00
3FFFFE00
3FFFFE00
3FFFFE00
38000E00
38000E00
38000E00
38000E00
38000E00
38000E00
38000E00
38000E00
38000E00
38000E00
38000E00
38000E00
38000E00
ENDCHAR
STARTCHAR hbar
ENCODING 295
SWIDTH 556 0
DWIDTH 21 0
BBX 18 27 0 0
BITMAP
1C0000
1C0000
1C0000
FFF800
FFF800
1C0000
1C0000
1C7C00
1DFF00
1FFF80
1F8780
1E03C0
1E01C0
1C01C0
1C01C0
1C01C0
1C01C0
1C01C0
1C01C0
1C01C0
1C01C0
1C01C0
1C01C0
1C01C0
1C01C0
1C01C0
1C01C0
ENDCHAR
STARTCHAR Itilde
ENCODING 296
SWIDTH 277 0
DWIDTH 11 0
BBX 11 34 0 0
BITMAP
38E0
7DE0
FFC0
EFC0
E380
0000
0000
0E00
0E00
0E00
0E00
0E00
0E00
0E00
0E00
0E00
0E00
0E00
0E00
0E00
0E00
0E00
0E00
0E00
0E00
0E00
0E00
0E00
0E00
0E00
0E00
0E00
0E00
0E00
ENDCHAR
STARTCHAR itilde
ENCODING 297
SWIDTH 277 0
DWIDTH 11 0
BBX 11 27 0 0
BITMAP
38E0
7CE0
FFE0
E7C0
E380
0000
0000
0E00
0E00
0E00
0E00
0E00
0E00
0E00
0E00
0E00
0E00
0E00
0E00
0E00
0E00
0E00
0E00
0E00
0E00
0E00
0E00
ENDCHAR
STARTCHAR Imacron
ENCODING 298
SWIDTH 277 0
DWIDTH 11 0
BBX 12 32 0 0
BITMAP
FFF0
FFF0
FFF0
0000
0000
0E00
0E00
0E00
0E00
0E00
0E00
0E00
0E00
0E00
0E00
0E00
0E00
0E00
0E00
0E00
0E00
0E00
0E00
0E00
0E00
0E00
0E00
0E00
0E00
0E00
0E00
0E00
ENDCHAR
STARTCHAR imacron
ENCODING 299
SWIDTH 277 0
DWIDTH 11 0
BBX 12 26 0 0
BITMAP
FFF0
FFF0
FFF0
0000
0000
0000
0E00
0E00
0E00
0E00
0E00
0E00
0E00
0E00
0E00
0E00
0E00
0E00
0E00
0E00
0E00
0E00
0E00
0E00
0E00
0E00
ENDCHAR
STARTCHAR Ibreve
ENCODING 300
SWIDTH 277 0
DWIDTH 11 0
BBX 11 34 0 0
BITMAP
C060
E060
70C0
3FC0
1F00
0000
0000
0E00
0E00
0E00
0E00
0E00
0E00
0E00
0E00
0E00
0E00
0E00
0E00
0E00
0E00
0E00
0E00
0E00
0E00
0E00
0E00
0E00
0E00
0E00
0E00
0E00
0E00
0E00
ENDCHAR
STARTCHAR ibreve
ENCODING 301
SWIDTH 277 0
DWIDTH 11 0
BBX 11 27 0 0
BITMAP
C060
E060
70C0
3FC0
1F00
0000
0000
0E00
0E00
0E00
0E00
0E00
0E00
0E00
0E00
0E00
0E00
0E00
0E00
0E00
0E00
0E00
0E00
0E00
0E00
0E00
0E00
ENDCHAR
STARTCHAR Iogonek
ENCODING 302
SWIDTH 277 0
DWIDTH 11 0
BBX 6 35 2 -8
BITMAP
38
38
38
38
38
38
38
38
38
38
38
38
38
38
38
38
38
38
38
38
38
38
38
38
38
38
38
30
60
C0
C0
C0
E0
FC
3C
ENDCHAR
STARTCHAR iogonek
ENCODING 303
SWIDTH 222 0
DWIDTH 9 0
BBX 6 35 1 -8
BITMAP
38
38
38
00
00
00
00
38
38
38
38
38
38
38
38
38
38
38
38
38
38
38
38
38
38
38
38
30
60
40
C0
C0
E0
7C
3C
ENDCHAR
STARTCHAR Idotaccent
ENCODING 304
SWIDTH 277 0
DWIDTH 11 0
BBX 3 32 4 0
BITMAP
E0
E0
E0
00
00
E0
E0
E0
E0
E0
E0
E0
E0
E0
E0
E0
E0
E0
E0
E0
E0
E0
E0
E0
E0
E0
E0
E0
E0
E0
E0
E0
ENDCHAR
STARTCHAR dotlessi
ENCODING 305
SWIDTH 277 0
DWIDTH 11 0
BBX 3 20 4 0
BITMAP
E0
E0
E0
E0
E0
E0
E0
E0
E0
E0
E0
E0
E0
E0
E0
E0
E0
E0
E0
E0
ENDCHAR
STARTCHAR IJ
ENCODING 306
SWIDTH 734 0
DWIDTH 28 0
BBX 21 27 4 0
BITMAP
E00038
E00038
E00038
E00038
E00038
E00038
E00038
E00038
E00038
E00038
E00038
E00038
E00038
E00038
E00038
E00038
E00038
E00038
E38038
E38038
E38038
E3C038
E3C070
E1E0F0
E0FFE0
E0FFC0
E03F00
ENDCHAR
STARTCHAR ij
ENCODING 307
SWIDTH 443 0
DWIDTH 17 0
BBX 12 35 3 -8
BITMAP
E070
E070
E070
0000
0000
0000
0000
E070
E070
E070
E070
E070
E070
E070
E070
E070
E070
E070
E070
E070
E070
E070
E070
E070
E070
E070
E070
0070
0070
0070
0070
00F0
07E0
0FE0
0F80
ENDCHAR
STARTCHAR Jcircumflex
ENCODING 308
SWIDTH 500 0
DWIDTH 19 0
BBX 19 34 1 0
BITMAP
001F00
003F00
003B80
0071C0
00E1E0
000000
000000
000E00
000E00
000E00
000E00
000E00
000E00
000E00
000E00
000E00
000E00
000E00
000E00
000E00
000E00
000E00
000E00
000E00
000E00
E00E00
E00E00
E00E00
F00E00
F01C00
783C00
3FF800
3FF000
0FC000
ENDCHAR
STARTCHAR jcircumflex
ENCODING 309
SWIDTH 222 0
DWIDTH 9 0
BBX 11 35 -2 -8
BITMAP
0F00
1F80
3FC0
39C0
70E0
0000
0000
0700
0700
0700
0700
0700
0700
0700
0700
0700
0700
0700
0700
0700
0700
0700
0700
0700
0700
0700
0700
0700
0700
0700
0700
0F00
7E00
FE00
FC00
ENDCHAR
STARTCHAR uni0136
ENCODING 310
SWIDTH 666 0
DWIDTH 25 0
BBX 22 37 3 -10
BITMAP
E000F8
E001F0
E003E0
E007C0
E00F80
E01F00
E03E00
E07C00
E0F800
E1F000
E3E000
E7E000
EFF000
FFF000
FE7800
FC7C00
F83E00
E01E00
E00F00
E00F80
E00780
E003C0
E003E0
E001F0
E000F0
E000F8
E0007C
000000
000000
000000
00F000
00F000
00F000
003000
007000
00E000
00C000
ENDCHAR
STARTCHAR uni0137
ENCODING 311
SWIDTH 500 0
DWIDTH 19 0
BBX 16 37 3 -10
BITMAP
E000
E000
E000
E000
E000
E000
E000
E01E
E03C
E078
E0F0
E1E0
E3C0
E780
EF00
FF00
FF80
FBC0
F3C0
E1E0
E0F0
E0F0
E078
E07C
E03C
E01E
E01F
0000
0000
0000
0780
0780
0780
0180
0380
0700
0600
ENDCHAR
STARTCHAR kgreenlandic
ENCODING 312
SWIDTH 500 0
DWIDTH 19 0
BBX 15 20 3 0
BITMAP
E03C
E038
E070
E0E0
E1C0
E380
E700
EF00
FF00
FB80
F380
E1C0
E1E0
E0E0
E070
E078
E038
E01C
E01E
E00E
ENDCHAR
STARTCHAR Lacute
ENCODING 313
SWIDTH 556 0
DWIDTH 21 0
BBX 17 34 3 0
BITMAP
078000
0F0000
1E0000
1C0000
380000
000000
000000
E00000
E00000
E00000
E00000
E00000
E00000
E00000
E00000
E00000
E00000
E00000
E00000
E00000
E00000
E00000
E00000
E00000
E00000
E00000
E00000
E00000
E00000
E00000
E00000
FFFF80
FFFF80
FFFF80
ENDCHAR
STARTCHAR lacute
ENCODING 314
SWIDTH 222 0
DWIDTH 9 0
BBX 7 34 2 0
BITMAP
1E
3C
78
70
E0
00
00
70
70
70
70
70
70
70
70
70
70
70
70
70
70
70
70
70
70
70
70
70
70
70
70
70
70
70
ENDCHAR
STARTCHAR uni013B
ENCODING 315
SWIDTH 556 0
DWIDTH 21 0
BBX 17 37 3 -10
BITMAP
E00000
E00000
E00000
E00000
E00000
E00000
E00000
E00000
E00000
E00000
E00000
E00000
E00000
E00000
E00000
E00000
E00000
E00000
E00000
E00000
E00000
E00000
E00000
E00000
FFFF80
FFFF80
FFFF80
000000
000000
000000
01E000
01E000
01E000
00C000
00C000
01C000
018000
ENDCHAR
STARTCHAR uni013C
ENCODING 316
SWIDTH 222 0
DWIDTH 8 0
BBX 4 37 2 -10
BITMAP
F0
F0
F0
F0
F0
F0
F0
F0
F0
F0
F0
F0
F0
F0
F0
F0
F0
F0
F0
F0
F0
F0
F0
F0
F0
F0
F0
00
00
00
F0
F0
F0
30
70
E0
C0
ENDCHAR
STARTCHAR Lcaron
ENCODING 317
SWIDTH 556 0
DWIDTH 21 0
BBX 16 27 3 0
BITMAP
E038
E038
E038
E008
E008
E008
E018
E030
E020
E000
E000
E000
E000
E000
E000
E000
E000
E000
E000
E000
E000
E000
E000
E000
FFFF
FFFF
FFFF
ENDCHAR
STARTCHAR lcaron
ENCODING 318
SWIDTH 291 0
DWIDTH 11 0
BBX 8 27 3 0
BITMAP
E7
E7
E7
E3
E3
E3
E2
E6
E0
E0
E0
E0
E0
E0
E0
E0
E0
E0
E0
E0
E0
E0
E0
E0
E0
E0
E0
ENDCHAR
STARTCHAR Ldot
ENCODING 319
SWIDTH 556 0
DWIDTH 21 0
BBX 17 27 3 0
BITMAP
E00000
E00000
E00000
E00000
E00000
E00000
E00000
E00000
E00000
E00000
E00000
E00000
E01C00
E01C00
E01C00
E00000
E00000
E00000
E00000
E00000
E00000
E00000
E00000
E00000
FFFF80
FFFF80
FFFF80
ENDCHAR
STARTCHAR ldot
ENCODING 320
SWIDTH 333 0
DWIDTH 13 0
BBX 9 27 3 0
BITMAP
E000
E000
E000
E000
E000
E000
E000
E000
E000
E000
E000
E000
E380
E380
E380
E000
E000
E000
E000
E000
E000
E000
E000
E000
E000
E000
E000
ENDCHAR
STARTCHAR Lslash
ENCODING 321
SWIDTH 556 0
DWIDTH 21 0
BBX 20 27 0 0
BITMAP
1C0000
1C0000
1C0000
1C0000
1C0000
1C0000
1C1000
1C3000
1CF000
1DE000
1FC000
1F0000
1E0000
3C0000
7C0000
FC0000
DC0000
9C0000
1C0000
1C0000
1C0000
1C0000
1C0000
1C0000
1FFFF0
1FFFF0
1FFFF0
ENDCHAR
STARTCHAR lslash
ENCODING 322
SWIDTH 222 0
DWIDTH 8 0
BBX 8 27 0 0
BITMAP
1C
1C
1C
1C
1C
1C
1C
1C
1C
1D
1F
1F
1E
3C
7C
FC
DC
9C
1C
1C
1C
1C
1C
1C
1C
1C
1C
ENDCHAR
STARTCHAR Nacute
ENCODING 323
SWIDTH 722 0
DWIDTH 27 0
BBX 21 34 3 0
BITMAP
001E00
003C00
007800
007000
00E000
000000
000000
F00038
F00038
F80038
FC0038
FC0038
EE0038
EF0038
E70038
E38038
E3C038
E1C038
E0E038
E0F038
E07038
E07838
E03838
E01C38
E01E38
E00E38
E00738
E007B8
E003B8
E001F8
E001F8
E000F8
E00078
E00078
ENDCHAR
STARTCHAR nacute
ENCODING 324
SWIDTH 556 0
DWIDTH 21 0
BBX 15 27 3 0
BITMAP
00F0
01E0
03C0
0380
0700
0000
0000
E3E0
EFF8
FFFC
FC3C
F01E
F00E
E00E
E00E
E00E
E00E
E00E
E00E
E00E
E00E
E00E
E00E
E00E
E00E
E00E
E00E
ENDCHAR
STARTCHAR uni0145
ENCODING 325
SWIDTH 722 0
DWIDTH 27 0
BBX 21 37 3 -10
BITMAP
F00038
F80038
F80038
FC0038
FE0038
FE0038
EF0038
E78038
E78038
E3C038
E1E038
E1E038
E0F038
E07838
E07838
E03C38
E01E38
E01E38
E00F38
E007B8
E007B8
E003F8
E001F8
E001F8
E000F8
E00078
E00078
000000
000000
000000
00F000
00F000
00F000
003000
003000
006000
006000
ENDCHAR
STARTCHAR uni0146
ENCODING 326
SWIDTH 556 0
DWIDTH 21 0
BBX 17 30 2 -10
BITMAP
F3F800
F7FE00
FFFF00
FC0F00
F80700
F00700
F00700
F00780
F00780
F00780
F00780
F00780
F00780
F00780
F00780
F00780
F00780
F00780
F00780
F00780
000000
000000
000000
01E000
01E000
01E000
006000
00C000
01C000
018000
ENDCHAR
STARTCHAR Ncaron
ENCODING 327
SWIDTH 722 0
DWIDTH 27 0
BBX 21 34 3 0
BITMAP
038700
01CE00
01FE00
00FC00
007800
000000
000000
F00038
F00038
F80038
FC0038
FC0038
EE0038
EF0038
E70038
E38038
E3C038
E1C038
E0E038
E0F038
E07038
E07838
E03838
E01C38
E01E38
E00E38
E00738
E007B8
E003B8
E001F8
E001F8
E000F8
E00078
E00078
ENDCHAR
STARTCHAR ncaron
ENCODING 328
SWIDTH 556 0
DWIDTH 21 0
BBX 15 27 3 0
BITMAP
1C38
0E78
0F70
07E0
03E0
0000
0000
E3E0
EFF8
FFFC
FC3C
F01E
F00E
E00E
E00E
E00E
E00E
E00E
E00E
E00E
E00E
E00E
E00E
E00E
E00E
E00E
E00E
ENDCHAR
STARTCHAR napostrophe
ENCODING 329
SWIDTH 604 0
DWIDTH 23 0
BBX 20 27 0 0
BITMAP
E00000
E00000
E00000
600000
600000
600000
C00000
CE3F80
0E7FE0
0EFFE0
0FC1F0
0F80F0
0F0070
0F0070
0F0070
0F0070
0F0070
0F0070
0F0070
0F0070
0F0070
0F0070
0F0070
0F0070
0F0070
0F0070
0F0070
ENDCHAR
STARTCHAR Eng
ENCODING 330
SWIDTH 723 0
DWIDTH 27 0
BBX 22 27 3 0
BITMAP
E1FE00
E7FF80
EFFFE0
FF03E0
FC00F0
F80078
F00038
F00038
E0003C
E0001C
E0001C
E0001C
E0001C
E0001C
E0001C
E0001C
E0001C
E0001C
E0001C
E00038
E00038
E00078
E00070
E030F0
E03FE0
E07FC0
E01F00
ENDCHAR
STARTCHAR eng
ENCODING 331
SWIDTH 556 0
DWIDTH 21 0
BBX 16 28 3 -8
BITMAP
E3F0
EFFC
FFFE
FC1E
F00F
F007
E007
E007
E007
E007
E007
E007
E007
E007
E007
E007
E007
E007
E007
E007
0007
0007
0007
0007
000F
007E
007E
007C
ENDCHAR
STARTCHAR Omacron
ENCODING 332
SWIDTH 777 0
DWIDTH 30 0
BBX 26 32 2 0
BITMAP
01FFE000
01FFE000
01FFE000
00000000
00000000
007F8000
01FFE000
07FFF800
0FC0FC00
1E001E00
3C000F00
38000700
70000780
70000380
F00003C0
E00001C0
E00001C0
E00001C0
E00001C0
E00001C0
E00001C0
E00001C0
E00003C0
70000380
70000380
38000700
3C000F00
1E001E00
0FC0FC00
07FFF800
01FFE000
007F8000
ENDCHAR
STARTCHAR omacron
ENCODING 333
SWIDTH 556 0
DWIDTH 21 0
BBX 17 26 2 0
BITMAP
1FFE00
1FFE00
1FFE00
000000
000000
000000
07E000
0FF800
3FFE00
3C1E00
780F00
700700
F00780
E00380
E00380
E00380
E00380
E00380
E00380
F00780
700700
780F00
3C1E00
3FFE00
0FF800
03F000
ENDCHAR
STARTCHAR Obreve
ENCODING 334
SWIDTH 777 0
DWIDTH 30 0
BBX 26 34 2 0
BITMAP
0180C000
01C1C000
00C18000
00FF8000
003E0000
00000000
00000000
007F8000
01FFE000
07FFF800
0FC0FC00
1E001E00
3C000F00
38000700
70000780
70000380
F00003C0
E00001C0
E00001C0
E00001C0
E00001C0
E00001C0
E00001C0
E00001C0
E00003C0
70000380
70000380
38000700
3C000F00
1E001E00
0FC0FC00
07FFF800
01FFE000
007F8000
ENDCHAR
STARTCHAR obreve
ENCODING 335
SWIDTH 556 0
DWIDTH 21 0
BBX 17 27 2 0
BITMAP
180C00
0C0C00
0E1C00
07F800
03E000
000000
000000
07E000
0FF800
3FFE00
3C1E00
780F00
700700
F00780
E00380
E00380
E00380
E00380
E00380
E00380
F00780
700700
780F00
3C1E00
3FFE00
0FF800
03F000
ENDCHAR
STARTCHAR Ohungarumlaut
ENCODING 336
SWIDTH 777 0
DWIDTH 30 0
BBX 26 34 2 0
BITMAP
001C7000
0038E000
0038E000
0030C000
00618000
00000000
00000000
007F8000
01FFE000
07FFF800
0FC0FC00
1E001E00
3C000F00
38000700
70000780
70000380
F00003C0
E00001C0
E00001C0
E00001C0
E00001C0
E00001C0
E00001C0
E00001C0
E00003C0
70000380
70000380
38000700
3C000F00
1E001E00
0FC0FC00
07FFF800
01FFE000
007F8000
ENDCHAR
STARTCHAR ohungarumlaut
ENCODING 337
SWIDTH 556 0
DWIDTH 21 0
BBX 17 27 2 0
BITMAP
071C00
0E3800
0E3800
0C3000
186000
000000
000000
07E000
0FF800
3FFE00
3C1E00
780F00
700700
F00780
E00380
E00380
E00380
E00380
E00380
E00380
F00780
700700
780F00
3C1E00
3FFE00
0FF800
03F000
ENDCHAR
STARTCHAR OE
ENCODING 338
SWIDTH 1000 0
DWIDTH 38 0
BBX 35 27 2 0
BITMAP
00FE1FFFC0
07FF9FFFC0
0FFFDFFFC0
1F03FC0000
3C00FC0000
38007C0000
78007C0000
70003C0000
70003C0000
E0001C0000
E0001C0000
E0001C0000
E0001FFF80
E0001FFF80
E0001FFF80
E0001C0000
E0001C0000
E0001C0000
70003C0000
70003C0000
78007C0000
38007C0000
3C00FC0000
1F03FC0000
0FFFDFFFE0
07FF9FFFE0
00FE1FFFE0
ENDCHAR
STARTCHAR oe
ENCODING 339
SWIDTH 943 0
DWIDTH 36 0
BBX 32 20 2 0
BITMAP
03F007C0
0FFC1FF0
1FFE3FF8
3E1F783C
7807F01E
7003E00E
F003C006
E001C007
E001FFFF
E001FFFF
E001FFFF
E001C000
E001C000
F003C000
7003E007
7807F00E
3E1F783E
1FFE7FFC
0FFC1FF8
03F007E0
ENDCHAR
STARTCHAR Racute
ENCODING 340
SWIDTH 722 0
DWIDTH 27 0
BBX 22 34 3 0
BITMAP
007800
00F000
01E000
01C000
038000
000000
000000
FFFF00
FFFFC0
FFFFE0
E001F0
E00070
E00038
E00038
E00038
E00038
E00078
E00070
E001F0
FFFFE0
FFFFC0
FFFF00
E03C00
E01E00
E00F00
E00F80
E00780
E003C0
E001E0
E001E0
E000F0
E00078
E00078
E0003C
ENDCHAR
STARTCHAR racute
ENCODING 341
SWIDTH 333 0
DWIDTH 13 0
BBX 10 27 3 0
BITMAP
0F00
1E00
3C00
3800
7000
0000
0000
E7C0
EFC0
FF80
F800
F000
F000
E000
E000
E000
E000
E000
E000
E000
E000
E000
E000
E000
E000
E000
E000
ENDCHAR
STARTCHAR uni0156
ENCODING 342
SWIDTH 722 0
DWIDTH 27 0
BBX 24 37 3 -10
BITMAP
FFFFC0
FFFFE0
FFFFF0
F000F8
F00078
F0003C
F0003C
F0003C
F0003C
F00078
F00078
F003F0
FFFFE0
FFFFC0
FFFE00
F01F00
F00F80
F007C0
F003C0
F001E0
F001F0
F000F0
F00078
F0007C
F0003C
F0003E
F0001F
000000
000000
000000
007800
007800
007800
001800
003800
007000
002000
ENDCHAR
STARTCHAR uni0157
ENCODING 343
SWIDTH 333 0
DWIDTH 13 0
BBX 11 30 2 -10
BITMAP
E3C0
E7E0
EFE0
FC40
F800
F000
F000
F000
F000
F000
F000
F000
F000
F000
F000
F000
F000
F000
F000
F000
0000
0000
0000
F000
F000
F000
3000
7000
E000
C000
ENDCHAR
STARTCHAR Rcaron
ENCODING 344
SWIDTH 722 0
DWIDTH 27 0
BBX 22 34 3 0
BITMAP
0E1C00
073800
07F800
03F000
01E000
000000
000000
FFFF00
FFFFC0
FFFFE0
E001F0
E00070
E00038
E00038
E00038
E00038
E00078
E00070
E001F0
FFFFE0
FFFFC0
FFFF00
E03C00
E01E00
E00F00
E00F80
E00780
E003C0
E001E0
E001E0
E000F0
E00078
E00078
E0003C
ENDCHAR
STARTCHAR rcaron
ENCODING 345
SWIDTH 333 0
DWIDTH 13 0
BBX 10 27 3 0
BITMAP
E1C0
7380
7F80
3F00
1E00
0000
0000
E7C0
EFC0
FF80
F800
F000
F000
E000
E000
E000
E000
E000
E000
E000
E000
E000
E000
E000
E000
E000
E000
ENDCHAR
STARTCHAR Sacute
ENCODING 346
SWIDTH 666 0
DWIDTH 25 0
BBX 21 34 2 0
BITMAP
003C00
007800
00F000
00E000
01C000
000000
000000
01FC00
0FFF00
1FFFC0
3E03E0
3801E0
7000F0
700070
700070
700000
780000
3F0000
1FF000
0FFF00
03FFC0
007FE0
0007F0
0000F0
E00078
E00038
F00038
700038
780078
3C00F0
3F03F0
1FFFE0
07FF80
01FE00
ENDCHAR
STARTCHAR sacute
ENCODING 347
SWIDTH 500 0
DWIDTH 19 0
BBX 15 27 2 0
BITMAP
01E0
03C0
0780
0700
0E00
0000
0000
0FC0
3FF0
7FF8
F03C
E01C
E000
F000
FC00
7FC0
3FF0
0FFC
01FC
003E
000E
E00E
F00E
783C
7FFC
3FF8
0FE0
ENDCHAR
STARTCHAR Scircumflex
ENCODING 348
SWIDTH 666 0
DWIDTH 25 0
BBX 21 34 2 0
BITMAP
00F800
01F800
03DC00
039E00
070E00
000000
000000
01FC00
0FFF00
1FFFC0
3E03E0
3801E0
7000F0
700070
700070
700000
780000
3F0000
1FF000
0FFF00
03FFC0
007FE0
0007F0
0000F0
E00078
E00038
F00038
700038
780078
3C00F0
3F03F0
1FFFE0
07FF80
01FE00
ENDCHAR
STARTCHAR scircumflex
ENCODING 349
SWIDTH 500 0
DWIDTH 19 0
BBX 15 27 2 0
BITMAP
0F80
1FC0
1DC0
38E0
7070
0000
0000
0FC0
3FF0
7FF8
F03C
E01C
E000
F000
FC00
7FC0
3FF0
0FFC
01FC
003E
000E
E00E
F00E
783C
7FFC
3FF8
0FE0
ENDCHAR
STARTCHAR Scedilla
ENCODING 350
SWIDTH 666 0
DWIDTH 25 0
BBX 21 34 2 -7
BITMAP
01FC00
0FFF00
1FFFC0
3E03E0
3801E0
7000F0
700070
700070
700000
780000
3F0000
1FF000
0FFF00
03FFC0
007FE0
0007F0
0000F0
E00078
E00038
F00038
700038
780078
3C00F0
3F03F0
1FFFE0
07FF80
01FE00
003000
002000
007C00
000E00
000E00
01FC00
01F800
ENDCHAR
STARTCHAR scedilla
ENCODING 351
SWIDTH 500 0
DWIDTH 19 0
BBX 15 27 2 -7
BITMAP
0FC0
3FF0
7FF8
F03C
E01C
E000
F000
FC00
7FC0
3FF0
0FFC
01FC
003E
000E
E00E
F00E
783C
7FFC
3FF8
0FE0
0180
0100
03E0
0070
0070
0FE0
0FC0
ENDCHAR
STARTCHAR Scaron
ENCODING 352
SWIDTH 666 0
DWIDTH 25 0
BBX 21 34 2 0
BITMAP
038700
01CE00
01FE00
00FC00
007800
000000
000000
01FC00
0FFF00
1FFFC0
3E03E0
3801E0
7000F0
700070
700070
700000
780000
3F0000
1FF000
0FFF00
03FFC0
007FE0
0007F0
0000F0
E00078
E00038
F00038
700038
780078
3C00F0
3F03F0
1FFFE0
07FF80
01FE00
ENDCHAR
STARTCHAR scaron
ENCODING 353
SWIDTH 500 0
DWIDTH 19 0
BBX 15 27 2 0
BITMAP
3870
1CE0
1FE0
0FC0
0780
0000
0000
0FC0
3FF0
7FF8
F03C
E01C
E000
F000
FC00
7FC0
3FF0
0FFC
01FC
003E
000E
E00E
F00E
783C
7FFC
3FF8
0FE0
ENDCHAR
STARTCHAR uni0162
ENCODING 354
SWIDTH 610 0
DWIDTH 23 0
BBX 21 34 1 -7
BITMAP
FFFFF8
FFFFF8
FFFFF8
007000
007000
007000
007000
007000
007000
007000
007000
007000
007000
007000
007000
007000
007000
007000
007000
007000
007000
007000
007000
007000
007000
007000
007000
006000
006000
007C00
001C00
001C00
01FC00
01F800
ENDCHAR
STARTCHAR uni0163
ENCODING 355
SWIDTH 277 0
DWIDTH 11 0
BBX 10 34 0 -7
BITMAP
0400
0C00
1C00
1C00
1C00
1C00
1C00
FFC0
FFC0
FFC0
1C00
1C00
1C00
1C00
1C00
1C00
1C00
1C00
1C00
1C00
1C00
1C00
1C00
1E00
1FC0
0FC0
07C0
0600
0600
0F80
01C0
01C0
3F80
3F00
ENDCHAR
STARTCHAR Tcaron
ENCODING 356
SWIDTH 610 0
DWIDTH 23 0
BBX 21 34 1 0
BITMAP
038700
01CE00
01FE00
00FC00
007800
000000
000000
FFFFF8
FFFFF8
FFFFF8
007000
007000
007000
007000
007000
007000
007000
007000
007000
007000
007000
007000
007000
007000
007000
007000
007000
007000
007000
007000
007000
007000
007000
007000
ENDCHAR
STARTCHAR tcaron
ENCODING 357
SWIDTH 375 0
DWIDTH 14 0
BBX 13 27 1 0
BITMAP
0838
1838
3838
3808
3808
3808
3810
FF30
FF00
FF00
3800
3800
3800
3800
3800
3800
3800
3800
3800
3800
3800
3800
3800
3800
3F00
1F00
0F00
ENDCHAR
STARTCHAR Tbar
ENCODING 358
SWIDTH 610 0
DWIDTH 23 0
BBX 21 27 1 0
BITMAP
FFFFF8
FFFFF8
FFFFF8
007000
007000
007000
007000
007000
007000
007000
007000
007000
007000
1FFFC0
1FFFC0
1FFFC0
007000
007000
007000
007000
007000
007000
007000
007000
007000
007000
007000
ENDCHAR
STARTCHAR tbar
ENCODING 359
SWIDTH 277 0
DWIDTH 11 0
BBX 10 26 0 0
BITMAP
0C00
1C00
1C00
1C00
1C00
1C00
FFC0
FFC0
FFC0
1C00
1C00
1C00
1C00
1C00
FFC0
FFC0
FFC0
1C00
1C00
1C00
1C00
1C00
1C00
1FC0
0FC0
07C0
ENDCHAR
STARTCHAR Utilde
ENCODING 360
SWIDTH 722 0
DWIDTH 27 0
BBX 21 34 3 0
BITMAP
01C700
03E700
07FE00
073E00
071C00
000000
000000
E00038
E00038
E00038
E00038
E00038
E00038
E00038
E00038
E00038
E00038
E00038
E00038
E00038
E00038
E00038
E00038
E00038
E00038
E00038
E00038
700070
700070
7800F0
3E03E0
1FFFC0
0FFF80
03FC00
ENDCHAR
STARTCHAR utilde
ENCODING 361
SWIDTH 556 0
DWIDTH 21 0
BBX 15 27 3 0
BITMAP
1C70
3F70
3FF0
7BF0
71E0
0000
0000
E00E
E00E
E00E
E00E
E00E
E00E
E00E
E00E
E00E
E00E
E00E
E00E
E00E
E00E
E01E
F01E
787E
7FEE
3FCE
1F8E
ENDCHAR
STARTCHAR Umacron
ENCODING 362
SWIDTH 722 0
DWIDTH 27 0
BBX 21 32 3 0
BITMAP
0FFF00
0FFF00
0FFF00
000000
000000
E00038
E00038
E00038
E00038
E00038
E00038
E00038
E00038
E00038
E00038
E00038
E00038
E00038
E00038
E00038
E00038
E00038
E00038
E00038
E00038
700070
700070
7800F0
3E03E0
1FFFC0
0FFF80
03FC00
ENDCHAR
STARTCHAR umacron
ENCODING 363
SWIDTH 556 0
DWIDTH 21 0
BBX 15 26 3 0
BITMAP
7FF8
7FF8
7FF8
0000
0000
0000
E00E
E00E
E00E
E00E
E00E
E00E
E00E
E00E
E00E
E00E
E00E
E00E
E00E
E00E
E01E
F01E
787E
7FEE
3FCE
1F8E
ENDCHAR
STARTCHAR Ubreve
ENCODING 364
SWIDTH 722 0
DWIDTH 27 0
BBX 21 34 3 0
BITMAP
070300
030300
038700
01FE00
00F800
000000
000000
E00038
E00038
E00038
E00038
E00038
E00038
E00038
E00038
E00038
E00038
E00038
E00038
E00038
E00038
E00038
E00038
E00038
E00038
E00038
E00038
700070
700070
7800F0
3E03E0
1FFFC0
0FFF80
03FC00
ENDCHAR
STARTCHAR ubreve
ENCODING 365
SWIDTH 556 0
DWIDTH 21 0
BBX 15 27 3 0
BITMAP
3018
3838
1830
1FF0
07C0
0000
0000
E00E
E00E
E00E
E00E
E00E
E00E
E00E
E00E
E00E
E00E
E00E
E00E
E00E
E00E
E01E
F01E
787E
7FEE
3FCE
1F8E
ENDCHAR
STARTCHAR Uring
ENCODING 366
SWIDTH 722 0
DWIDTH 27 0
BBX 21 34 3 0
BITMAP
007000
008800
010400
010400
010400
008800
007000
E00038
E00038
E00038
E00038
E00038
E00038
E00038
E00038
E00038
E00038
E00038
E00038
E00038
E00038
E00038
E00038
E00038
E00038
E00038
E00038
700070
700070
7800F0
3E03E0
1FFFC0
0FFF80
03FC00
ENDCHAR
STARTCHAR uring
ENCODING 367
SWIDTH 556 0
DWIDTH 21 0
BBX 15 29 3 0
BITMAP
0380
0440
0820
0820
0820
0440
0380
0000
0000
E00E
E00E
E00E
E00E
E00E
E00E
E00E
E00E
E00E
E00E
E00E
E00E
E00E
E00E
E01E
F01E
787E
7FEE
3FCE
1F8E
ENDCHAR
STARTCHAR Uhungarumlaut
ENCODING 368
SWIDTH 722 0
DWIDTH 27 0
BBX 21 34 3 0
BITMAP
00E380
01C700
01C700
018600
030C00
000000
000000
E00038
E00038
E00038
E00038
E00038
E00038
E00038
E00038
E00038
E00038
E00038
E00038
E00038
E00038
E00038
E00038
E00038
E00038
E00038
E00038
700070
700070
7800F0
3E03E0
1FFFC0
0FFF80
03FC00
ENDCHAR
STARTCHAR uhungarumlaut
ENCODING 369
SWIDTH 556 0
DWIDTH 21 0
BBX 15 27 3 0
BITMAP
071C
0E38
0E38
0C30
1860
0000
0000
E00E
E00E
E00E
E00E
E00E
E00E
E00E
E00E
E00E
E00E
E00E
E00E
E00E
E00E
E01E
F01E
787E
7FEE
3FCE
1F8E
ENDCHAR
STARTCHAR Uogonek
ENCODING 370
SWIDTH 722 0
DWIDTH 27 0
BBX 21 35 3 -8
BITMAP
E00038
E00038
E00038
E00038
E00038
E00038
E00038
E00038
E00038
E00038
E00038
E00038
E00038
E00038
E00038
E00038
E00038
E00038
E00038
E00038
700070
700070
7800F0
3E03E0
1FFFC0
0FFF80
03FC00
000800
001000
003000
003000
003000
003000
003F00
001E00
ENDCHAR
STARTCHAR uogonek
ENCODING 371
SWIDTH 556 0
DWIDTH 21 0
BBX 17 28 3 -8
BITMAP
E00E00
E00E00
E00E00
E00E00
E00E00
E00E00
E00E00
E00E00
E00E00
E00E00
E00E00
E00E00
E00E00
E00E00
E01E00
F01E00
787E00
7FEE00
3FCE00
1F8E00
000400
000800
001800
001800
001800
001800
001F80
000F00
ENDCHAR
STARTCHAR Wcircumflex
ENCODING 372
SWIDTH 943 0
DWIDTH 38 0
BBX 37 34 0 0
BITMAP
0000780000
0000FC0000
0001FE0000
0001CE0000
0003870000
0000000000
0000000000
E000F80038
F000F80078
7000F80070
7001DC0070
7001DC0070
3801DC00E0
3803DE00E0
38038E00E0
38038E00E0
1C038E01C0
1C070701C0
1C070701C0
1E070703C0
0E0E038380
0E0E038380
0E0E038380
071E03C700
071C01C700
071C01C700
071C01C700
03B800EE00
03B800EE00
03B800EE00
01F8007E00
01F0007C00
01F0007C00
01F0007C00
ENDCHAR
STARTCHAR wcircumflex
ENCODING 373
SWIDTH 722 0
DWIDTH 27 0
BBX 27 27 0 0
BITMAP
000F0000
001F8000
003FC000
0039C000
0070E000
00000000
00000000
E00E00E0
E00E00E0
E01F00E0
701F01C0
701F01C0
703B81C0
383B8380
38398380
3831C380
1C71C700
1C70C700
1C60C700
0EE0EE00
0EE0EE00
0EE06C00
07C07C00
07C07C00
03C07800
03803800
03803800
ENDCHAR
STARTCHAR Ycircumflex
ENCODING 374
SWIDTH 666 0
DWIDTH 25 0
BBX 23 34 1 0
BITMAP
007C00
007E00
00EF00
01E700
01C380
000000
000000
F0001E
70001C
380038
3C0078
1C0070
0E00E0
0F01E0
0701C0
0783C0
038780
01C700
01EF00
00EE00
007C00
007C00
003800
003800
003800
003800
003800
003800
003800
003800
003800
003800
003800
003800
ENDCHAR
STARTCHAR ycircumflex
ENCODING 375
SWIDTH 500 0
DWIDTH 19 0
BBX 17 35 1 -8
BITMAP
01E000
03F000
07F800
073800
0E1C00
000000
000000
E00380
700780
700700
700700
380F00
380E00
3C0E00
1C1E00
1C1C00
1E1C00
0E3C00
0E3800
0F3800
077000
077000
07F000
03E000
03E000
03E000
01C000
01C000
01C000
038000
038000
070000
7F0000
7E0000
7C0000
ENDCHAR
STARTCHAR Ydieresis
ENCODING 376
SWIDTH 666 0
DWIDTH 25 0
BBX 23 32 1 0
BITMAP
01C700
01C700
01C700
000000
000000
F0001E
70001C
380038
3C0078
1C0070
0E00E0
0F01E0
0701C0
0783C0
038780
01C700
01EF00
00EE00
007C00
007C00
003800
003800
003800
003800
003800
003800
003800
003800
003800
003800
003800
003800
ENDCHAR
STARTCHAR Zacute
ENCODING 377
SWIDTH 610 0
DWIDTH 23 0
BBX 21 34 1 0
BITMAP
001E00
003C00
007800
007000
00E000
000000
000000
3FFFF0
3FFFF0
3FFFF0
0000F0
0001E0
0003C0
000380
000700
000F00
001E00
003C00
003800
007800
00F000
01E000
01C000
038000
078000
0F0000
1E0000
1C0000
380000
780000
F00000
FFFFF8
FFFFF8
FFFFF8
ENDCHAR
STARTCHAR zacute
ENCODING 378
SWIDTH 500 0
DWIDTH 18 0
BBX 17 27 0 0
BITMAP
007800
00F000
01E000
01C000
038000
000000
000000
7FFF80
7FFF80
7FFF80
000F00
001E00
003C00
003800
007800
00F000
01E000
03C000
078000
0F0000
1E0000
3C0000
780000
F00000
FFFF80
FFFF80
FFFF80
ENDCHAR
STARTCHAR Zdotaccent
ENCODING 379
SWIDTH 610 0
DWIDTH 23 0
BBX 21 32 1 0
BITMAP
007000
007000
007000
000000
000000
3FFFF0
3FFFF0
3FFFF0
0000F0
0001E0
0003C0
000380
000700
000F00
001E00
003C00
003800
007800
00F000
01E000
01C000
038000
078000
0F0000
1E0000
1C0000
380000
780000
F00000
FFFFF8
FFFFF8
FFFFF8
ENDCHAR
STARTCHAR zdotaccent
ENCODING 380
SWIDTH 500 0
DWIDTH 18 0
BBX 17 25 0 0
BITMAP
01C000
01C000
01C000
000000
000000
7FFF80
7FFF80
7FFF80
000F00
001E00
003C00
003800
007800
00F000
01E000
03C000
078000
0F0000
1E0000
3C0000
780000
F00000
FFFF80
FFFF80
FFFF80
ENDCHAR
STARTCHAR Zcaron
ENCODING 381
SWIDTH 610 0
DWIDTH 23 0
BBX 21 34 1 0
BITMAP
038700
01CF00
01EE00
00FC00
007800
000000
000000
3FFFF0
3FFFF0
3FFFF0
0000F0
0001E0
0003C0
000380
000700
000F00
001E00
003C00
003800
007800
00F000
01E000
01C000
038000
078000
0F0000
1E0000
1C0000
380000
780000
F00000
FFFFF8
FFFFF8
FFFFF8
ENDCHAR
STARTCHAR zcaron
ENCODING 382
SWIDTH 500 0
DWIDTH 18 0
BBX 17 27 0 0
BITMAP
0E1E00
071C00
03B800
03F000
01F000
000000
000000
7FFF80
7FFF80
7FFF80
000F00
001E00
003C00
003800
007800
00F000
01E000
03C000
078000
0F0000
1E0000
3C0000
780000
F00000
FFFF80
FFFF80
FFFF80
ENDCHAR
STARTCHAR longs
ENCODING 383
SWIDTH 222 0
DWIDTH 9 0
BBX 8 27 3 0
BITMAP
3F
7F
FF
F0
E0
E0
E0
E0
E0
E0
E0
E0
E0
E0
E0
E0
E0
E0
E0
E0
E0
E0
E0
E0
E0
E0
E0
ENDCHAR
STARTCHAR uni0180
ENCODING 384
SWIDTH 556 0
DWIDTH 21 0
BBX 19 27 0 0
BITMAP
380000
380000
FFF000
FFF000
380000
380000
380000
38FC00
3BFE00
3FFF80
3F0780
3E03C0
3C01C0
3C01E0
3800E0
3800E0
3800E0
3800E0
3800E0
3800E0
3C01E0
3C01C0
3E03C0
3F0780
3FFF00
3BFE00
38F800
ENDCHAR
STARTCHAR uni0181
ENCODING 385
SWIDTH 758 0
DWIDTH 29 0
BBX 27 27 0 0
BITMAP
1FFFF800
7FFFFE00
7FFFFF00
F1C00780
E1C00380
E1C001C0
E1C001C0
C1C001C0
01C001C0
01C001C0
01C00380
01C00F00
01FFFE00
01FFFE00
01FFFF80
01C007C0
01C001C0
01C000E0
01C000E0
01C000E0
01C000E0
01C000E0
01C001C0
01C007C0
01FFFF80
01FFFF00
01FFFC00
ENDCHAR
STARTCHAR uni0182
ENCODING 386
SWIDTH 656 0
DWIDTH 25 0
BBX 21 27 3 0
BITMAP
FFFFC0
FFFFC0
FFFFC0
F00000
F00000
F00000
F00000
F00000
F00000
F00000
F00000
FFF000
FFFF80
FFFFC0
FFFFE0
F001F0
F000F0
F000F0
F00078
F00078
F00070
F000F0
F000F0
F003E0
FFFFE0
FFFFC0
FFFF00
ENDCHAR
STARTCHAR uni0183
ENCODING 387
SWIDTH 556 0
DWIDTH 21 0
BBX 17 27 2 0
BITMAP
FFFC00
FFFC00
FFFC00
E00000
E00000
E00000
E00000
E3F000
EFF800
FFFE00
FC1E00
F80F00
F00700
F00780
E00380
E00380
E00380
E00380
E00380
E00380
F00780
F00700
F80F00
FC1E00
FFFC00
EFF800
E3E000
ENDCHAR
STARTCHAR uni0184
ENCODING 388
SWIDTH 656 0
DWIDTH 25 0
BBX 24 27 0 0
BITMAP
040000
0C0000
1C0000
3C0000
7C0000
FC0000
7C0000
3C0000
1C0000
1C0000
1C0000
1C0000
1FFFC0
1FFFF8
1FFFFC
1C003E
1C000E
1C0007
1C0007
1C0007
1C0007
1C000F
1C000E
1C003E
1FFFFC
1FFFF8
1FFFC0
ENDCHAR
STARTCHAR uni0185
ENCODING 389
SWIDTH 556 0
DWIDTH 21 0
BBX 19 27 0 0
BITMAP
080000
180000
780000
F80000
F80000
780000
380000
38FC00
3BFE00
3FFF80
3F0780
3E03C0
3C01C0
3C01E0
3800E0
3800E0
3800E0
3800E0
3800E0
3800E0
3C01E0
3C01C0
3E03C0
3F0780
3FFF00
3BFE00
38F800
ENDCHAR
STARTCHAR uni0186
ENCODING 390
SWIDTH 722 0
DWIDTH 27 0
BBX 23 27 2 0
BITMAP
01FE00
07FF80
0FFFE0
1F03F0
3C00F0
780078
70003C
F0001C
E0001C
00000E
00000E
00000E
00000E
00000E
00000E
00000E
00000E
00001E
00001C
E0001C
F0003C
780078
7C00F0
3F03F0
1FFFC0
0FFF80
01FC00
ENDCHAR
STARTCHAR uni0187
ENCODING 391
SWIDTH 722 0
DWIDTH 27 0
BBX 27 30 2 0
BITMAP
000003E0
000007E0
00000FE0
007F0F00
03FFCE00
07FFEE00
1F81FE00
1E007E00
3C003E00
78001E00
70000E00
70000000
E0000000
E0000000
E0000000
E0000000
E0000000
E0000000
E0000000
E0000000
E0000000
70000E00
70001E00
78001C00
3C003C00
1E007800
1F81F000
0FFFE000
03FFC000
00FF0000
ENDCHAR
STARTCHAR uni0188
ENCODING 392
SWIDTH 500 0
DWIDTH 19 0
BBX 20 23 2 0
BITMAP
0001F0
0003F0
0007F0
03F780
0FFF00
3FFF00
3C1F00
780F00
700F00
E00700
E00000
E00000
E00000
E00000
E00000
E00000
E00700
700700
780E00
3C1E00
3FFC00
1FF800
07E000
ENDCHAR
STARTCHAR uni0189
ENCODING 393
SWIDTH 722 0
DWIDTH 27 0
BBX 25 27 0 0
BITMAP
1FFF8000
1FFFF000
1FFFF800
1C007C00
1C001E00
1C000E00
1C000F00
1C000700
1C000700
1C000380
1C000380
1C000380
FFFC0380
FFFC0380
FFFC0380
1C000380
1C000380
1C000380
1C000700
1C000700
1C000F00
1C000E00
1C001E00
1C007C00
1FFFF800
1FFFF000
1FFF8000
ENDCHAR
STARTCHAR uni018A
ENCODING 394
SWIDTH 809 0
DWIDTH 31 0
BBX 29 27 0 0
BITMAP
1FFFF800
7FFFFE00
7FFFFF80
F1C007C0
E1C001E0
E1C000E0
E1C000F0
C1C00070
01C00070
01C00038
01C00038
01C00038
01C00038
01C00038
01C00038
01C00038
01C00038
01C00038
01C00070
01C00070
01C000F0
01C000E0
01C001E0
01C00FC0
01FFFF80
01FFFF00
01FFF800
ENDCHAR
STARTCHAR uni018B
ENCODING 395
SWIDTH 656 0
DWIDTH 25 0
BBX 21 27 1 0
BITMAP
0FFFF8
0FFFF8
0FFFF8
000038
000038
000038
000038
000038
000038
000038
000038
000038
03FFF8
1FFFF8
3FFFF8
7C0038
700038
E00038
E00038
E00038
E00038
E00038
700038
7C0038
3FFFF8
1FFFF8
03FFF8
ENDCHAR
STARTCHAR uni018C
ENCODING 396
SWIDTH 556 0
DWIDTH 21 0
BBX 16 27 2 0
BITMAP
1FFF
1FFF
1FFF
0007
0007
0007
0007
07C7
1FF7
3FFF
3C3F
781F
700F
F00F
E007
E007
E007
E007
E007
E007
F00F
700F
781F
3C3F
3FFF
0FF7
07C7
ENDCHAR
STARTCHAR uni018D
ENCODING 397
SWIDTH 556 0
DWIDTH 21 0
BBX 17 28 2 -8
BITMAP
07F000
0FF800
3FFC00
3C1E00
780F00
700700
F00780
E00380
E00380
E00380
E00380
E00380
E00380
F00780
700700
780F00
3C1E00
3FFE00
1FFC00
07F000
03C000
01E000
00F000
007800
003C00
3FFE00
3FFE00
3FFE00
ENDCHAR
STARTCHAR uni018E
ENCODING 398
SWIDTH 666 0
DWIDTH 25 0
BBX 20 27 2 0
BITMAP
7FFFF0
7FFFF0
7FFFF0
000070
000070
000070
000070
000070
000070
000070
000070
000070
3FFFF0
3FFFF0
3FFFF0
000070
000070
000070
000070
000070
000070
000070
000070
000070
FFFFF0
FFFFF0
FFFFF0
ENDCHAR
STARTCHAR uni018F
ENCODING 399
SWIDTH 752 0
DWIDTH 29 0
BBX 25 27 2 0
BITMAP
007F0000
03FFE000
07FFF000
0F80F800
1E001C00
1C000E00
3C000700
18000700
00000300
00000380
00000380
FFFFFF80
FFFFFF80
FFFFFF80
E0000380
E0000380
E0000380
F0000780
70000700
70000700
78000F00
3C001E00
1E003C00
1F80FC00
0FFFF800
03FFE000
00FF8000
ENDCHAR
STARTCHAR uni0190
ENCODING 400
SWIDTH 604 0
DWIDTH 23 0
BBX 20 27 2 0
BITMAP
01FC00
0FFF00
1FFF80
3E07C0
3801E0
7800E0
7000F0
700070
700040
780000
380000
3E0000
0FF000
0FF000
3FF000
7E0000
780000
F00000
E00040
E00070
E000E0
F001E0
7803C0
7E0FC0
3FFF80
0FFF00
03F800
ENDCHAR
STARTCHAR uni0191
ENCODING 401
SWIDTH 610 0
DWIDTH 23 0
BBX 22 35 -1 -8
BITMAP
0FFFFC
0FFFFC
0FFFFC
0E0000
0E0000
0E0000
0E0000
0E0000
0E0000
0E0000
0E0000
0E0000
0FFFF0
0FFFF0
0FFFF0
0E0000
0E0000
0E0000
0E0000
0E0000
0E0000
0E0000
0E0000
0E0000
0E0000
0E0000
0E0000
0E0000
0E0000
0E0000
0E0000
1E0000
FC0000
FC0000
F80000
ENDCHAR
STARTCHAR florin
ENCODING 402
SWIDTH 556 0
DWIDTH 21 0
BBX 19 35 1 -8
BITMAP
000FC0
001FE0
003FC0
003800
003800
007000
007000
07FF00
07FF00
07FF00
007000
00E000
00E000
00E000
00E000
00E000
00E000
01C000
01C000
01C000
01C000
01C000
01C000
038000
038000
038000
038000
038000
038000
070000
070000
070000
FF0000
FE0000
FC0000
ENDCHAR
STARTCHAR uni0193
ENCODING 403
SWIDTH 777 0
DWIDTH 30 0
BBX 30 30 2 0
BITMAP
0000007C
000000FC
000001FC
003FE1E0
01FFF9C0
07FFFFC0
0FC03FC0
1F000FC0
3C0007C0
380003C0
780003C0
70000100
70000000
E0000000
E0000000
E0000000
E003FFC0
E003FFC0
E003FFC0
E00001C0
F00001C0
700001C0
700001C0
380001C0
3C0001C0
1F0007C0
0FC03F80
07FFFE00
01FFF800
003FC000
ENDCHAR
STARTCHAR uni0194
ENCODING 404
SWIDTH 624 0
DWIDTH 24 0
BBX 24 35 0 -8
BITMAP
F0000F
70000E
78001E
38001C
38001C
1C0038
1C0038
0E0070
0E0070
0F00F0
0700E0
0781E0
0381C0
0381C0
01C380
01C380
00E700
00E700
00FF00
007E00
007E00
003C00
003C00
003C00
003C00
007E00
007E00
00FF00
00E700
00E700
00E700
00E700
00FF00
007E00
003C00
ENDCHAR
STARTCHAR uni0195
ENCODING 405
SWIDTH 880 0
DWIDTH 33 0
BBX 28 27 3 0
BITMAP
E0000000
E0000000
E0000000
E0000000
E0000000
E0000000
E0000000
E3F00070
EFF80070
FFFC0070
FC3E0070
F01E0070
F00E0070
E00E0070
E00E0070
E00E0070
E00E0070
E00E0070
E00E0070
E00E0070
E00E0070
E00F00F0
E00F00E0
E007C3E0
E003FFC0
E001FF80
E0007E00
ENDCHAR
STARTCHAR uni0196
ENCODING 406
SWIDTH 222 0
DWIDTH 8 0
BBX 3 27 2 0
BITMAP
E0
E0
E0
E0
E0
E0
E0
E0
E0
E0
E0
E0
E0
E0
E0
E0
E0
E0
E0
E0
E0
E0
E0
E0
E0
E0
E0
ENDCHAR
STARTCHAR uni0197
ENCODING 407
SWIDTH 277 0
DWIDTH 11 0
BBX 9 27 1 0
BITMAP
1C00
1C00
1C00
1C00
1C00
1C00
1C00
1C00
1C00
1C00
1C00
1C00
FF80
FF80
FF80
1C00
1C00
1C00
1C00
1C00
1C00
1C00
1C00
1C00
1C00
1C00
1C00
ENDCHAR
STARTCHAR uni0198
ENCODING 408
SWIDTH 666 0
DWIDTH 25 0
BBX 22 27 3 0
BITMAP
3F0078
7F00F0
FF01E0
F003C0
E00780
E00F00
E01E00
E03C00
E07800
E0F000
E1E000
E3E000
E7F000
EFF000
FE7800
FC3C00
F83E00
F01E00
E00F00
E00780
E00780
E003C0
E001E0
E001F0
E000F0
E00078
E0007C
ENDCHAR
STARTCHAR uni0199
ENCODING 409
SWIDTH 500 0
DWIDTH 19 0
BBX 16 27 3 0
BITMAP
3F00
7F00
7F00
F000
E000
E000
E000
E01E
E03C
E078
E0F0
E1E0
E3C0
E780
EF00
FF00
FF80
FBC0
F1C0
E0E0
E0F0
E070
E038
E03C
E01C
E00E
E00F
ENDCHAR
STARTCHAR uni019A
ENCODING 410
SWIDTH 222 0
DWIDTH 8 0
BBX 7 27 0 0
BITMAP
38
38
38
38
38
38
38
38
38
38
38
38
FE
FE
FE
38
38
38
38
38
38
38
38
38
38
38
38
ENDCHAR
STARTCHAR uni019B
ENCODING 411
SWIDTH 500 0
DWIDTH 19 0
BBX 19 27 0 0
BITMAP
070800
03BC00
03F000
07C000
1FC000
39C000
20E000
00E000
01F000
01F000
01F000
03B800
03B800
07BC00
071C00
071C00
0E0E00
0E0E00
1E0F00
1C0700
1C0700
380380
380380
7803C0
7001C0
7001C0
E000E0
ENDCHAR
STARTCHAR uni019C
ENCODING 412
SWIDTH 890 0
DWIDTH 34 0
BBX 28 27 3 0
BITMAP
E00E0070
E00E0070
E00E0070
E00E0070
E00E0070
E00E0070
E00E0070
E00E0070
E00E0070
E00E0070
E00E0070
E00E0070
E00E0070
E00E0070
E00E0070
E00E0070
E00E0070
E00E0070
E00E0070
E00E0070
E00E00F0
E01E00F0
F01F01F0
787F83F0
7FF7FFF0
3FE3FF70
0F81FC70
ENDCHAR
STARTCHAR uni019D
ENCODING 413
SWIDTH 722 0
DWIDTH 27 0
BBX 25 35 -1 -8
BITMAP
0F000380
0F000380
0F800380
0FC00380
0FC00380
0EE00380
0EF00380
0E700380
0E380380
0E3C0380
0E1C0380
0E0E0380
0E0F0380
0E070380
0E078380
0E038380
0E01C380
0E01E380
0E00E380
0E007380
0E007B80
0E003B80
0E001F80
0E001F80
0E000F80
0E000780
0E000780
0E000000
0E000000
0E000000
0E000000
1E000000
FC000000
FC000000
F8000000
ENDCHAR
STARTCHAR uni019E
ENCODING 414
SWIDTH 556 0
DWIDTH 21 0
BBX 15 28 3 -8
BITMAP
E3E0
E7F8
EFFC
FC3C
F01E
F00E
E00E
E00E
E00E
E00E
E00E
E00E
E00E
E00E
E00E
E00E
E00E
E00E
E00E
E00E
000E
000E
000E
000E
000E
000E
000E
000E
ENDCHAR
STARTCHAR uni019F
ENCODING 415
SWIDTH 777 0
DWIDTH 30 0
BBX 26 27 2 0
BITMAP
007F8000
03FFF000
07FFF800
0FC0FC00
1E001E00
3C000F00
38000700
70000380
70000380
F00003C0
E00001C0
E00001C0
FFFFFFC0
FFFFFFC0
FFFFFFC0
E00001C0
E00001C0
E00003C0
70000380
70000380
38000700
3C000F00
1E001E00
0FC0FC00
07FFF800
01FFE000
007F8000
ENDCHAR
STARTCHAR Ohorn
ENCODING 416
SWIDTH 857 0
DWIDTH 33 0
BBX 29 27 2 0
BITMAP
007F8038
01FFF038
07FFF838
0FC0FE18
1E001E18
3C000F18
380007B0
700003E0
700003C0
F00003C0
E00001C0
E00001C0
E00001C0
E00001C0
E00001C0
E00001C0
E00001C0
F0000380
70000380
70000380
38000700
3C000F00
1E001E00
0FC0FC00
07FFF800
01FFE000
007F8000
ENDCHAR
STARTCHAR ohorn
ENCODING 417
SWIDTH 655 0
DWIDTH 25 0
BBX 21 20 2 0
BITMAP
03F038
0FFC38
1FFF38
3C0F18
780798
700398
F003F0
E001F0
E001E0
E001C0
E001C0
E001C0
E001C0
F003C0
700380
780780
3C0F00
1FFE00
0FFC00
03F000
ENDCHAR
STARTCHAR uni01A2
ENCODING 418
SWIDTH 868 0
DWIDTH 33 0
BBX 28 35 2 -8
BITMAP
007F8030
03FFF3F0
07FFFFF0
0FC07FF0
1E003870
3C003870
38003870
70003870
70003870
F0003870
E0003870
E0003870
E0003870
E0003870
E0003870
E0003870
E0003870
F0003870
70003870
70003870
38003870
3C003870
1E003870
0FC07870
07FFF870
01FFF070
007F8070
00000070
00000070
00000070
00000070
00000070
00000070
00000070
00000070
ENDCHAR
STARTCHAR uni01A3
ENCODING 419
SWIDTH 667 0
DWIDTH 25 0
BBX 21 28 1 -8
BITMAP
03F818
0FFFF8
1FFFF8
3E0E38
780E38
700E38
F00E38
E00E38
E00E38
E00E38
E00E38
E00E38
E00E38
F00E38
700E38
780E38
3E0E38
1FFE38
0FFE38
03F838
000038
000038
000038
000038
000038
000038
000038
000038
ENDCHAR
STARTCHAR uni01A4
ENCODING 420
SWIDTH 754 0
DWIDTH 29 0
BBX 27 27 0 0
BITMAP
1FFFFC00
7FFFFF00
7FFFFF80
F1C007C0
E1C001C0
E1C001E0
E1C000E0
C1C000E0
01C000E0
01C000E0
01C001E0
01C001C0
01C007C0
01FFFF80
01FFFF00
01FFF800
01C00000
01C00000
01C00000
01C00000
01C00000
01C00000
01C00000
01C00000
01C00000
01C00000
01C00000
ENDCHAR
STARTCHAR uni01A5
ENCODING 421
SWIDTH 556 0
DWIDTH 21 0
BBX 17 35 2 -8
BITMAP
3F0000
7F0000
7F0000
F00000
E00000
E00000
E00000
E3F000
E7FC00
EFFE00
FC1E00
F80F00
F00700
F00780
E00380
E00380
E00380
E00380
E00380
E00380
F00780
F00700
F80F00
FC1E00
FFFC00
EFF800
E3E000
E00000
E00000
E00000
E00000
E00000
E00000
E00000
E00000
ENDCHAR
STARTCHAR uni01A6
ENCODING 422
SWIDTH 666 0
DWIDTH 25 0
BBX 22 35 3 -8
BITMAP
E00000
E00000
E00000
FFFE00
FFFF80
FFFFC0
E003E0
E000E0
E000F0
E00070
E00070
E00070
E00070
E000F0
E000E0
E003E0
FFFFC0
FFFF80
FFFC00
E07000
E07800
E03800
E01C00
E01E00
E00E00
E00F00
E00780
000380
0003C0
0001C0
0000E0
0000F0
000070
000038
00003C
ENDCHAR
STARTCHAR uni01A7
ENCODING 423
SWIDTH 666 0
DWIDTH 25 0
BBX 21 27 2 0
BITMAP
01FE00
07FF80
1FFFC0
3E03E0
3C00E0
780070
700070
700070
000070
0001F0
0007E0
007FC0
07FF80
1FFE00
3FE000
7E0000
F80000
F00038
E00038
E00078
E00070
F000F0
7001F0
7E07E0
3FFFC0
0FFF00
03FC00
ENDCHAR
STARTCHAR uni01A8
ENCODING 424
SWIDTH 500 0
DWIDTH 19 0
BBX 17 20 1 0
BITMAP
07F000
1FFC00
3FFE00
3C0F00
780700
700700
000700
003F00
03FE00
1FFC00
7FE000
7F0000
F00000
E00380
E00780
E00700
781F00
7FFE00
3FFC00
0FF000
ENDCHAR
STARTCHAR uni01A9
ENCODING 425
SWIDTH 618 0
DWIDTH 23 0
BBX 19 27 3 0
BITMAP
FFFFC0
FFFFC0
FFFFC0
F00000
780000
3C0000
1E0000
0F0000
078000
07C000
03E000
01F000
00F800
00F000
01F000
03E000
03C000
078000
0F0000
1E0000
3C0000
7C0000
F80000
F00000
FFFFE0
FFFFE0
FFFFE0
ENDCHAR
STARTCHAR uni01AA
ENCODING 426
SWIDTH 380 0
DWIDTH 14 0
BBX 13 35 1 -8
BITMAP
7800
CE00
8600
8700
CF00
7F00
0700
0700
0700
0700
0700
0700
0700
0700
0700
0700
0700
0700
0700
0700
0700
0700
0700
0700
0700
0700
0700
0700
0700
0700
0700
0780
03F0
03F8
00F8
ENDCHAR
STARTCHAR uni01AB
ENCODING 427
SWIDTH 277 0
DWIDTH 11 0
BBX 9 35 1 -8
BITMAP
0800
1800
3800
3800
3800
3800
3800
FF80
FF80
FF80
3800
3800
3800
3800
3800
3800
3800
3800
3800
3800
3800
3800
3800
3C00
3F80
1F80
0F80
0380
0380
0380
0380
0780
3F00
3F00
3E00
ENDCHAR
STARTCHAR uni01AC
ENCODING 428
SWIDTH 610 0
DWIDTH 23 0
BBX 23 27 0 0
BITMAP
1FFFFE
7FFFFE
7FFFFE
F03800
E03800
E03800
E03800
C03800
003800
003800
003800
003800
003800
003800
003800
003800
003800
003800
003800
003800
003800
003800
003800
003800
003800
003800
003800
ENDCHAR
STARTCHAR uni01AD
ENCODING 429
SWIDTH 277 0
DWIDTH 11 0
BBX 11 27 1 0
BITMAP
07E0
1FE0
3FE0
3C00
3800
3800
3800
FFC0
FFC0
FFC0
3800
3800
3800
3800
3800
3800
3800
3800
3800
3800
3800
3800
3800
3C00
3FC0
1FC0
0FC0
ENDCHAR
STARTCHAR uni01AE
ENCODING 430
SWIDTH 610 0
DWIDTH 23 0
BBX 21 35 1 -8
BITMAP
FFFFF8
FFFFF8
FFFFF8
007000
007000
007000
007000
007000
007000
007000
007000
007000
007000
007000
007000
007000
007000
007000
007000
007000
007000
007000
007000
007000
007000
007000
007000
007000
007000
007000
007000
007800
003F00
003F00
001F00
ENDCHAR
STARTCHAR Uhorn
ENCODING 431
SWIDTH 854 0
DWIDTH 32 0
BBX 27 27 3 0
BITMAP
E00038E0
E00038E0
E00038E0
E0003860
E0003860
E0003860
E00038E0
E00039C0
E0003F80
E0003E00
E0003800
E0003800
E0003800
E0003800
E0003800
E0003800
E0003800
E0003800
E0003800
E0003800
70007000
70007000
7800F000
3E03E000
1FFFC000
0FFF8000
03FC0000
ENDCHAR
STARTCHAR uhorn
ENCODING 432
SWIDTH 669 0
DWIDTH 25 0
BBX 20 20 3 0
BITMAP
E00E70
E00E70
E00E70
E00E30
E00E30
E00E30
E00E70
E00E60
E00FC0
E00F80
E00E00
E00E00
E00E00
E00E00
E01E00
F01E00
787E00
7FEE00
3FCE00
0F8E00
ENDCHAR
STARTCHAR uni01B1
ENCODING 433
SWIDTH 747 0
DWIDTH 28 0
BBX 24 27 2 0
BITMAP
FFC3FF
FFC3FF
FFC3FF
0781E0
0E0070
1C0038
38001C
38000C
70000E
70000E
E00006
E00007
E00007
E00007
E00007
E00007
E00007
F0000F
70000E
70000E
78001E
3C003C
3E007C
1F81F8
0FFFF0
03FFC0
00FF00
ENDCHAR
STARTCHAR uni01B2
ENCODING 434
SWIDTH 722 0
DWIDTH 27 0
BBX 21 27 3 0
BITMAP
E007C0
E007E0
E007F0
E00070
E00078
E00038
E00038
E00038
E00038
E00038
E00038
E00038
E00038
E00038
E00038
E00078
E00070
E00070
E00070
F00070
7000E0
7800E0
7801C0
3E07C0
1FFF80
0FFF00
03FC00
ENDCHAR
STARTCHAR uni01B3
ENCODING 435
SWIDTH 772 0
DWIDTH 29 0
BBX 28 27 1 0
BITMAP
F0000780
70000FE0
38001FF0
3C003C60
1C007800
0E007000
0F00F000
0701E000
0781C000
03838000
01C78000
01EF0000
00EE0000
007E0000
007C0000
00380000
00380000
00380000
00380000
00380000
00380000
00380000
00380000
00380000
00380000
00380000
00380000
ENDCHAR
STARTCHAR uni01B4
ENCODING 436
SWIDTH 500 0
DWIDTH 19 0
BBX 26 35 1 -8
BITMAP
00001E00
00007F80
00007FC0
0000F180
0000E000
0000E000
0001C000
E001C000
7003C000
70038000
70038000
38078000
38070000
3C070000
1C0E0000
1C0E0000
0E1E0000
0E1C0000
0F1C0000
073C0000
07380000
07F80000
03F00000
03F00000
03F00000
01E00000
01E00000
01E00000
01C00000
01C00000
03800000
07800000
7F000000
3E000000
3C000000
ENDCHAR
STARTCHAR uni01B5
ENCODING 437
SWIDTH 610 0
DWIDTH 23 0
BBX 21 27 1 0
BITMAP
3FFFF8
3FFFF8
3FFFF8
000078
0000F0
0001E0
0001C0
000380
000700
000F00
001E00
003C00
FFFFF8
FFFFF8
FFFFF8
01E000
03C000
078000
070000
0E0000
1C0000
3C0000
780000
F00000
FFFFF8
FFFFF8
FFFFF8
ENDCHAR
STARTCHAR uni01B6
ENCODING 438
SWIDTH 500 0
DWIDTH 19 0
BBX 17 20 1 0
BITMAP
7FFF00
7FFF00
7FFF00
001E00
003C00
007800
007000
00F000
FFFF80
FFFF80
FFFF80
070000
0E0000
1E0000
3C0000
780000
F00000
FFFF80
FFFF80
FFFF80
ENDCHAR
STARTCHAR uni01B7
ENCODING 439
SWIDTH 610 0
DWIDTH 23 0
BBX 21 35 1 -8
BITMAP
3FFFF8
3FFFF8
3FFFF8
000078
0000F0
0001E0
0003C0
000780
000F00
001E00
003C00
007800
007E00
007F80
007FC0
0007E0
0001F0
0000F0
000070
000078
000038
000038
000038
000038
000038
000038
200078
E00070
F00070
7800F0
7C01E0
3E07C0
1FFF80
0FFF00
03FC00
ENDCHAR
STARTCHAR uni01B8
ENCODING 440
SWIDTH 610 0
DWIDTH 23 0
BBX 21 35 1 -8
BITMAP
FFFFE0
FFFFE0
FFFFE0
F00000
780000
3C0000
1E0000
0F0000
078000
03C000
01E000
00F000
03F000
0FF000
1FF000
3F0000
7C0000
780000
700000
F00000
E00000
E00000
E00000
E00000
E00000
E00000
E00020
700038
700078
7800F0
3C01F0
1F03E0
0FFFC0
07FF80
01FE00
ENDCHAR
STARTCHAR uni01B9
ENCODING 441
SWIDTH 544 0
DWIDTH 21 0
BBX 19 28 1 -8
BITMAP
7FFFC0
7FFFC0
7FFFC0
1E0000
0F0000
078000
03C000
01E000
00F000
03F000
0FF000
3FF000
3E0000
780000
700000
F00000
E00000
E00000
E00000
E00000
E000E0
7000E0
7001E0
7803C0
3E0F80
1FFF80
0FFE00
03F800
ENDCHAR
STARTCHAR uni01BA
ENCODING 442
SWIDTH 544 0
DWIDTH 21 0
BBX 19 28 1 -8
BITMAP
7FFF80
7FFF80
7FFF80
000F00
001E00
003C00
007800
00F000
01E000
03F800
03FE00
03FF00
001F00
000700
000700
001F00
00FE00
07FC00
3FF000
7F0000
F00000
E000E0
E001E0
E003C0
F80FC0
7FFF80
3FFE00
07F800
ENDCHAR
STARTCHAR uni01BB
ENCODING 443
SWIDTH 556 0
DWIDTH 21 0
BBX 18 27 1 0
BITMAP
03F800
0FFE00
1FFF00
3E0F80
380380
7801C0
7001C0
7001C0
0001C0
0003C0
000380
000780
FFFFC0
FFFFC0
FFFFC0
007C00
00F000
01E000
03C000
078000
0F0000
1E0000
3C0000
780000
7FFFC0
FFFFC0
FFFFC0
ENDCHAR
STARTCHAR uni01BC
ENCODING 444
SWIDTH 556 0
DWIDTH 21 0
BBX 17 27 2 0
BITMAP
FFFF00
FFFF00
FFFF00
1C0000
1C0000
1C0000
1C0000
1C0000
1C0000
1FF000
1FF800
1FFE00
001E00
000F00
000780
000380
000380
000380
000380
E00380
E00780
F00700
780F00
7C1E00
3FFC00
1FF800
07E000
ENDCHAR
STARTCHAR uni01BD
ENCODING 445
SWIDTH 458 0
DWIDTH 17 0
BBX 15 20 1 0
BITMAP
FFFC
FFFC
FFFC
1C00
1C00
1C00
1C00
1FE0
1FF8
1FFC
003C
001E
000E
600E
F00E
F01E
7C3C
3FFC
1FF8
07E0
ENDCHAR
STARTCHAR uni01BE
ENCODING 446
SWIDTH 486 0
DWIDTH 19 0
BBX 17 27 1 0
BITMAP
040000
0C0000
1C0000
1C0000
1C0000
1C0000
1C0000
FF8000
FF8000
FF8000
1C0000
1C0000
1C0000
1C0000
1E0000
0FC000
07F800
01FE00
003F00
000780
E00380
E00380
700780
7C0F00
3FFF00
1FFE00
07F000
ENDCHAR
STARTCHAR uni01BF
ENCODING 447
SWIDTH 556 0
DWIDTH 21 0
BBX 16 28 3 -8
BITMAP
E3E0
EFF8
FFFC
FC3E
F80E
F00F
F007
E007
E007
E007
E007
E007
E00E
E00E
E01E
E03C
E078
E0F0
E3E0
EFC0
FF00
FC00
F000
E000
E000
E000
E000
E000
ENDCHAR
STARTCHAR uni01C0
ENCODING 448
SWIDTH 259 0
DWIDTH 10 0
BBX 3 27 4 0
BITMAP
E0
E0
E0
E0
E0
E0
E0
E0
E0
E0
E0
E0
E0
E0
E0
E0
E0
E0
E0
E0
E0
E0
E0
E0
E0
E0
E0
ENDCHAR
STARTCHAR uni01C1
ENCODING 449
SWIDTH 413 0
DWIDTH 16 0
BBX 9 27 4 0
BITMAP
E380
E380
E380
E380
E380
E380
E380
E380
E380
E380
E380
E380
E380
E380
E380
E380
E380
E380
E380
E380
E380
E380
E380
E380
E380
E380
E380
ENDCHAR
STARTCHAR uni01C2
ENCODING 450
SWIDTH 583 0
DWIDTH 22 0
BBX 19 27 2 0
BITMAP
00E000
00E000
00E000
00E000
00E000
00E000
00E000
00E000
FFFFE0
FFFFE0
FFFFE0
00E000
00E000
00E000
00E000
00E000
FFFFE0
FFFFE0
FFFFE0
00E000
00E000
00E000
00E000
00E000
00E000
00E000
00E000
ENDCHAR
STARTCHAR uni01C3
ENCODING 451
SWIDTH 277 0
DWIDTH 11 0
BBX 3 27 4 0
BITMAP
E0
E0
E0
E0
E0
E0
E0
E0
E0
E0
E0
E0
E0
E0
40
40
40
40
40
40
40
00
00
00
E0
E0
E0
ENDCHAR
STARTCHAR uni01C4
ENCODING 452
SWIDTH 1333 0
DWIDTH 51 0
BBX 46 34 3 0
BITMAP
00000001C380
00000000E700
00000000FF00
000000007E00
000000003C00
000000000000
000000000000
FFFC001FFFF8
FFFF801FFFF8
FFFFC01FFFF8
E003E0000078
E000F00000F0
E000700001E0
E000780001C0
E00038000380
E00038000780
E0001C000F00
E0001C001E00
E0001C001C00
E0001C003C00
E0001C007800
E0001C00F000
E0001C00E000
E0001C01C000
E0001C03C000
E00038078000
E000380F0000
E000780E0000
E000701C0000
E000F03C0000
E003E0780000
FFFFC07FFFFC
FFFF807FFFFC
FFFC007FFFFC
ENDCHAR
STARTCHAR uni01C5
ENCODING 453
SWIDTH 1222 0
DWIDTH 46 0
BBX 41 27 3 0
BITMAP
FFFC000E1C00
FFFF800F3800
FFFFC0077800
E003E003F000
E000F003E000
E00070000000
E00078000000
E000387FFF80
E000387FFF80
E0001C7FFF80
E0001C000F00
E0001C001E00
E0001C003C00
E0001C003800
E0001C007800
E0001C00F000
E0001C01E000
E0001C03C000
E00038078000
E000380F0000
E000781E0000
E000703C0000
E000F0780000
E003E0F00000
FFFFC0FFFF80
FFFF80FFFF80
FFFC00FFFF80
ENDCHAR
STARTCHAR uni01C6
ENCODING 454
SWIDTH 1048 0
DWIDTH 40 0
BBX 36 27 2 0
BITMAP
000701C380
000700E780
000700F700
0007007E00
0007003E00
0007000000
0007000000
07C70FFFF0
1FF70FFFF0
3FFF0FFFF0
3C3F0001E0
781F0003C0
700F000780
E00F000700
E007000F00
E007001E00
E007003C00
E007007800
E00700F000
E00701E000
F00703C000
700F078000
781F0F0000
3C3F1E0000
3FFF1FFFF0
1FF71FFFF0
07C71FFFF0
ENDCHAR
STARTCHAR uni01C7
ENCODING 455
SWIDTH 1062 0
DWIDTH 40 0
BBX 34 27 3 0
BITMAP
E0000001C0
E0000001C0
E0000001C0
E0000001C0
E0000001C0
E0000001C0
E0000001C0
E0000001C0
E0000001C0
E0000001C0
E0000001C0
E0000001C0
E0000001C0
E0000001C0
E0000001C0
E0000001C0
E0000001C0
E0000001C0
E0001C01C0
E0001C01C0
E0001C01C0
E0001E01C0
E0001E0380
E0000F0780
FFFF87FF00
FFFF87FE00
FFFF81F800
ENDCHAR
STARTCHAR uni01C8
ENCODING 456
SWIDTH 833 0
DWIDTH 32 0
BBX 26 35 3 -8
BITMAP
E00001C0
E00001C0
E00001C0
E0000000
E0000000
E0000000
E0000000
E00001C0
E00001C0
E00001C0
E00001C0
E00001C0
E00001C0
E00001C0
E00001C0
E00001C0
E00001C0
E00001C0
E00001C0
E00001C0
E00001C0
E00001C0
E00001C0
E00001C0
FFFF81C0
FFFF81C0
FFFF81C0
000001C0
000001C0
000001C0
000001C0
000003C0
00001F80
00003F80
00003E00
ENDCHAR
STARTCHAR uni01C9
ENCODING 457
SWIDTH 451 0
DWIDTH 17 0
BBX 12 35 3 -8
BITMAP
E070
E070
E070
E000
E000
E000
E000
E070
E070
E070
E070
E070
E070
E070
E070
E070
E070
E070
E070
E070
E070
E070
E070
E070
E070
E070
E070
0070
0070
0070
0070
00F0
07E0
0FE0
0F80
ENDCHAR
STARTCHAR uni01CA
ENCODING 458
SWIDTH 1222 0
DWIDTH 46 0
BBX 40 27 3 0
BITMAP
F000380007
F000380007
F800380007
FC00380007
FC00380007
EE00380007
EF00380007
E700380007
E380380007
E3C0380007
E1C0380007
E0E0380007
E0F0380007
E070380007
E078380007
E038380007
E01C380007
E01E380007
E00E387007
E007387007
E007B87007
E003B87807
E001F8780E
E001F83C1E
E000F81FFC
E000781FF8
E0007807E0
ENDCHAR
STARTCHAR uni01CB
ENCODING 459
SWIDTH 944 0
DWIDTH 36 0
BBX 30 35 3 -8
BITMAP
F000381C
F000381C
F800381C
FC003800
FC003800
EE003800
EF003800
E700381C
E380381C
E3C0381C
E1C0381C
E0E0381C
E0F0381C
E070381C
E078381C
E038381C
E01C381C
E01E381C
E00E381C
E007381C
E007B81C
E003B81C
E001F81C
E001F81C
E000F81C
E000781C
E000781C
0000001C
0000001C
0000001C
0000001C
0000003C
000001F8
000003F8
000003E0
ENDCHAR
STARTCHAR uni01CC
ENCODING 460
SWIDTH 770 0
DWIDTH 29 0
BBX 24 35 3 -8
BITMAP
000007
000007
000007
000000
000000
000000
000000
E3E007
EFF807
FFFC07
FC3C07
F01E07
F00E07
E00E07
E00E07
E00E07
E00E07
E00E07
E00E07
E00E07
E00E07
E00E07
E00E07
E00E07
E00E07
E00E07
E00E07
000007
000007
000007
000007
00000F
00007E
0000FE
0000F8
ENDCHAR
STARTCHAR uni01CD
ENCODING 461
SWIDTH 666 0
DWIDTH 25 0
BBX 25 34 0 0
BITMAP
00E1C000
00F38000
00778000
003F0000
003E0000
00000000
00000000
003E0000
003E0000
003E0000
00770000
00770000
00F78000
00E38000
00E38000
01C1C000
01C1C000
03C1E000
0380E000
0380E000
07007000
07007000
0F007800
0FFFF800
0FFFF800
1FFFFC00
1C001C00
3C001E00
38000E00
38000E00
70000700
70000700
F0000780
E0000380
ENDCHAR
STARTCHAR uni01CE
ENCODING 462
SWIDTH 556 0
DWIDTH 21 0
BBX 17 28 2 0
BITMAP
1C1C00
0E3800
077000
03F000
03E000
000000
000000
000000
07F000
1FFC00
3FFE00
781F00
F00700
E00700
000700
001F00
07FF00
1FFF00
7FE700
7C0700
F00700
E00700
E00F00
E01F00
F03F00
7FFF00
3FF700
1FC380
ENDCHAR
STARTCHAR uni01CF
ENCODING 463
SWIDTH 277 0
DWIDTH 11 0
BBX 10 34 1 0
BITMAP
E1C0
E380
7700
3F00
3E00
0000
0000
1C00
1C00
1C00
1C00
1C00
1C00
1C00
1C00
1C00
1C00
1C00
1C00
1C00
1C00
1C00
1C00
1C00
1C00
1C00
1C00
1C00
1C00
1C00
1C00
1C00
1C00
1C00
ENDCHAR
STARTCHAR uni01D0
ENCODING 464
SWIDTH 222 0
DWIDTH 8 0
BBX 11 27 -1 0
BITMAP
F1E0
7BC0
3B80
3F00
1E00
0000
0000
0E00
0E00
0E00
0E00
0E00
0E00
0E00
0E00
0E00
0E00
0E00
0E00
0E00
0E00
0E00
0E00
0E00
0E00
0E00
0E00
ENDCHAR
STARTCHAR uni01D1
ENCODING 465
SWIDTH 777 0
DWIDTH 30 0
BBX 26 34 2 0
BITMAP
00E1E000
0071C000
003B8000
003F0000
001F0000
00000000
00000000
007F8000
01FFE000
07FFF800
0FC0FC00
1E001E00
3C000F00
38000700
70000780
70000380
F00003C0
E00001C0
E00001C0
E00001C0
E00001C0
E00001C0
E00001C0
E00001C0
E00003C0
70000380
70000380
38000700
3C000F00
1E001E00
0FC0FC00
07FFF800
01FFE000
007F8000
ENDCHAR
STARTCHAR uni01D2
ENCODING 466
SWIDTH 556 0
DWIDTH 21 0
BBX 17 28 2 0
BITMAP
0E1C00
0F3800
077800
03F000
01E000
000000
000000
000000
07E000
0FF800
3FFE00
3C1E00
780F00
700700
F00780
E00380
E00380
E00380
E00380
E00380
E00380
F00780
700700
780F00
3C1E00
3FFE00
0FF800
03F000
ENDCHAR
STARTCHAR uni01D3
ENCODING 467
SWIDTH 722 0
DWIDTH 27 0
BBX 21 34 3 0
BITMAP
070F00
038E00
01DC00
01F800
00F800
000000
000000
E00038
E00038
E00038
E00038
E00038
E00038
E00038
E00038
E00038
E00038
E00038
E00038
E00038
E00038
E00038
E00038
E00038
E00038
E00038
E00038
700070
700070
7800F0
3E03E0
1FFFC0
0FFF80
03FC00
ENDCHAR
STARTCHAR uni01D4
ENCODING 468
SWIDTH 556 0
DWIDTH 21 0
BBX 15 28 3 0
BITMAP
1C38
0E78
0FF0
07E0
03C0
0000
0000
0000
E00E
E00E
E00E
E00E
E00E
E00E
E00E
E00E
E00E
E00E
E00E
E00E
E00E
E00E
E01E
F01E
787E
7FEE
3FCE
1F8E
ENDCHAR
STARTCHAR uni01D5
ENCODING 469
SWIDTH 722 0
DWIDTH 27 0
BBX 21 34 3 0
BITMAP
03FF00
03FF00
000000
000000
038700
038700
000000
F00038
F00038
F00038
F00038
F00038
F00038
F00038
F00038
F00038
F00038
F00038
F00038
F00038
F00038
F00038
F00038
F00038
F00038
F00038
F00078
F00078
780078
7800F0
3E01F0
3FFFE0
1FFFC0
07FF00
ENDCHAR
STARTCHAR uni01D6
ENCODING 470
SWIDTH 556 0
DWIDTH 21 0
BBX 15 33 3 0
BITMAP
3FFC
3FFC
3FFC
0000
0000
0000
0000
0000
1C70
1C70
1C70
0000
0000
E00E
E00E
E00E
E00E
E00E
E00E
E00E
E00E
E00E
E00E
E00E
E00E
E00E
E00E
E01E
F01E
787E
7FEE
3FCE
1F8E
ENDCHAR
STARTCHAR uni01D7
ENCODING 471
SWIDTH 722 0
DWIDTH 27 0
BBX 21 34 3 0
BITMAP
001E00
003800
007000
000000
038700
038700
000000
F00038
F00038
F00038
F00038
F00038
F00038
F00038
F00038
F00038
F00038
F00038
F00038
F00038
F00038
F00038
F00038
F00038
F00038
F00038
F00078
F00078
780078
7800F0
3E01F0
3FFFE0
1FFFC0
07FF00
ENDCHAR
STARTCHAR uni01D8
ENCODING 472
SWIDTH 556 0
DWIDTH 21 0
BBX 15 34 3 0
BITMAP
0078
00F0
00E0
01C0
01C0
0000
0000
0000
0000
1C70
1C70
1C70
0000
0000
E00E
E00E
E00E
E00E
E00E
E00E
E00E
E00E
E00E
E00E
E00E
E00E
E00E
E00E
E01E
F01E
787E
7FEE
3FCE
1F8E
ENDCHAR
STARTCHAR uni01D9
ENCODING 473
SWIDTH 722 0
DWIDTH 27 0
BBX 21 34 3 0
BITMAP
01CC00
00FC00
007800
000000
038700
038700
000000
F00038
F00038
F00038
F00038
F00038
F00038
F00038
F00038
F00038
F00038
F00038
F00038
F00038
F00038
F00038
F00038
F00038
F00038
F00038
F00078
F00078
780078
7800F0
3E01F0
3FFFE0
1FFFC0
07FF00
ENDCHAR
STARTCHAR uni01DA
ENCODING 474
SWIDTH 556 0
DWIDTH 21 0
BBX 15 34 3 0
BITMAP
1C38
0E78
0FF0
07E0
03C0
0000
0000
0000
0000
1C70
1C70
1C70
0000
0000
E00E
E00E
E00E
E00E
E00E
E00E
E00E
E00E
E00E
E00E
E00E
E00E
E00E
E00E
E01E
F01E
787E
7FEE
3FCE
1F8E
ENDCHAR
STARTCHAR uni01DB
ENCODING 475
SWIDTH 722 0
DWIDTH 27 0
BBX 21 34 3 0
BITMAP
01E000
00F000
003000
000000
038700
038700
000000
F00038
F00038
F00038
F00038
F00038
F00038
F00038
F00038
F00038
F00038
F00038
F00038
F00038
F00038
F00038
F00038
F00038
F00038
F00038
F00078
F00078
780078
7800F0
3E01F0
3FFFE0
1FFFC0
07FF00
ENDCHAR
STARTCHAR uni01DC
ENCODING 476
SWIDTH 556 0
DWIDTH 21 0
BBX 15 34 3 0
BITMAP
1E00
0F00
0700
0380
03C0
0000
0000
0000
0000
1C70
1C70
1C70
0000
0000
E00E
E00E
E00E
E00E
E00E
E00E
E00E
E00E
E00E
E00E
E00E
E00E
E00E
E00E
E01E
F01E
787E
7FEE
3FCE
1F8E
ENDCHAR
STARTCHAR uni01DD
ENCODING 477
SWIDTH 556 0
DWIDTH 21 0
BBX 17 20 2 0
BITMAP
07E000
1FF800
3FFE00
7C1E00
700F00
F00700
E00780
000380
000380
FFFF80
FFFF80
FFFF80
E00380
E00380
700700
700F00
3C1E00
3FFE00
1FF800
07E000
ENDCHAR
STARTCHAR uni01DE
ENCODING 478
SWIDTH 666 0
DWIDTH 25 0
BBX 25 34 0 0
BITMAP
01FF8000
01FF8000
00000000
00000000
01C18000
01C18000
00000000
003E0000
003E0000
007E0000
007F0000
00770000
00F78000
00E78000
01E38000
01E3C000
01C1C000
03C1E000
0381E000
0780E000
0780F000
07007000
0F007800
0FFFF800
0FFFFC00
1FFFFC00
1C003C00
3C001E00
3C001E00
38000F00
78000F00
78000F00
F0000780
F0000780
ENDCHAR
STARTCHAR uni01DF
ENCODING 479
SWIDTH 556 0
DWIDTH 21 0
BBX 17 33 2 0
BITMAP
1FFE00
1FFE00
1FFE00
000000
000000
000000
0E3800
0E3800
0E3800
000000
000000
000000
000000
07F000
1FFC00
3FFE00
781F00
F00700
E00700
000700
001F00
07FF00
1FFF00
7FE700
7C0700
F00700
E00700
E00F00
E01F00
F03F00
7FFF00
3FF700
1FC380
ENDCHAR
STARTCHAR uni01E0
ENCODING 480
SWIDTH 666 0
DWIDTH 25 0
BBX 25 34 0 0
BITMAP
00FF8000
00FF8000
00000000
00000000
001C0000
001C0000
00000000
003E0000
003E0000
007E0000
007F0000
00770000
00F78000
00E78000
01E38000
01E3C000
01C1C000
03C1E000
0381E000
0780E000
0780F000
07007000
0F007800
0FFFF800
0FFFFC00
1FFFFC00
1C003C00
3C001E00
3C001E00
38000F00
78000F00
78000F00
F0000780
F0000780
ENDCHAR
STARTCHAR uni01E1
ENCODING 481
SWIDTH 556 0
DWIDTH 21 0
BBX 17 33 2 0
BITMAP
1FFE00
1FFE00
1FFE00
000000
000000
000000
01C000
01C000
01C000
000000
000000
000000
000000
07F000
1FFC00
3FFE00
781F00
F00700
E00700
000700
001F00
07FF00
1FFF00
7FE700
7C0700
F00700
E00700
E00F00
E01F00
F03F00
7FFF00
3FF700
1FC380
ENDCHAR
STARTCHAR uni01E2
ENCODING 482
SWIDTH 1000 0
DWIDTH 38 0
BBX 36 32 0 0
BITMAP
00001FFE00
00001FFE00
00001FFE00
0000000000
0000000000
0007FFFFE0
000FFFFFE0
000FFFFFE0
001C380000
001C380000
0038380000
0038380000
0070380000
0070380000
00E0380000
00E0380000
01C0380000
01C03FFFC0
03803FFFC0
03803FFFC0
0700380000
07FFF80000
0FFFF80000
0FFFF80000
1C00380000
1C00380000
3800380000
3800380000
7000380000
70003FFFF0
F0003FFFF0
E0003FFFF0
ENDCHAR
STARTCHAR uni01E3
ENCODING 483
SWIDTH 889 0
DWIDTH 34 0
BBX 31 26 2 0
BITMAP
003FFC00
003FFC00
003FFC00
00000000
00000000
00000000
07F81F80
1FFE7FE0
3FFFFFF0
780FF078
F003E01C
E003C01C
0003800C
000F800E
03FFFFFE
1FFFFFFE
3FF3FFFE
7C038000
F0038000
E0038000
E007C00E
E00FE01C
F83FF07C
7FFCFFF8
3FF07FF0
0FC01FC0
ENDCHAR
STARTCHAR uni01E4
ENCODING 484
SWIDTH 777 0
DWIDTH 30 0
BBX 28 27 2 0
BITMAP
003FE000
01FFF800
07FFFE00
0FC03F00
1F000F00
3C000780
38000380
780003C0
70000180
F0000000
E0000000
E0000000
E0000000
E003FFC0
E003FFC0
E003FFC0
E00001C0
F00001C0
700001C0
7803FFF0
3803FFF0
3C0003C0
1F0007C0
0FC03F80
07FFFE00
01FFF800
003FC000
ENDCHAR
STARTCHAR uni01E5
ENCODING 485
SWIDTH 556 0
DWIDTH 21 0
BBX 18 28 1 -8
BITMAP
03E380
0FFB80
1FFF80
3E1F80
3C0F80
380780
700780
700380
700380
700380
700380
700380
700380
780780
380780
3E1F80
1FFF80
0FFB80
03E380
000380
FFFFC0
FFFFC0
000700
380700
3C1F00
1FFE00
0FFC00
03F000
ENDCHAR
STARTCHAR Gcaron
ENCODING 486
SWIDTH 777 0
DWIDTH 30 0
BBX 26 34 2 0
BITMAP
0070E000
0039E000
003DC000
001F8000
000F0000
00000000
00000000
003FC000
01FFF800
07FFFE00
0FC03F00
1F000F00
3C000780
38000380
780003C0
70000000
70000000
E0000000
E0000000
E0000000
E003FFC0
E003FFC0
E003FFC0
E00001C0
F00001C0
700001C0
700001C0
380001C0
3C0001C0
1F0007C0
0FC03F80
07FFFE00
01FFFC00
003FC000
ENDCHAR
STARTCHAR gcaron
ENCODING 487
SWIDTH 556 0
DWIDTH 21 0
BBX 16 35 2 -8
BITMAP
1C1C
0E38
0770
07F0
03E0
0000
0000
07C7
1FF7
3FFF
3C3F
781F
700F
E00F
E007
E007
E007
E007
E007
E007
E007
700F
781F
3C3F
3FFF
1FF7
07E7
0007
0007
E00F
F00E
F83E
7FFC
3FF8
0FE0
ENDCHAR
STARTCHAR uni01E8
ENCODING 488
SWIDTH 666 0
DWIDTH 25 0
BBX 22 34 3 0
BITMAP
1C3800
0E7800
0F7000
07E000
03E000
000000
000000
E000F8
E001F0
E003E0
E007C0
E00F80
E01F00
E03E00
E07C00
E0F800
E1F000
E3E000
E7E000
EFF000
FE7000
FC7800
F83C00
F01C00
E00E00
E00F00
E00780
E00380
E001C0
E001E0
E000E0
E00070
E00078
E0003C
ENDCHAR
STARTCHAR uni01E9
ENCODING 489
SWIDTH 500 0
DWIDTH 19 0
BBX 16 34 3 0
BITMAP
3870
3CE0
1DE0
0FC0
0F80
0000
0000
E000
E000
E000
E000
E000
E000
E000
E01E
E03C
E078
E0F0
E1E0
E3C0
E780
EF00
FF00
FF80
FBC0
F3C0
E1E0
E0F0
E070
E078
E03C
E01C
E01E
E00F
ENDCHAR
STARTCHAR uni01EA
ENCODING 490
SWIDTH 777 0
DWIDTH 30 0
BBX 26 35 2 -8
BITMAP
007F8000
01FFE000
07FFF800
0FC0FC00
1E001E00
3C000F00
38000700
70000780
70000380
F00003C0
E00001C0
E00001C0
E00001C0
E00001C0
E00001C0
E00001C0
E00001C0
E00003C0
70000380
70000380
38000700
3C000F00
1E001E00
0FC0FC00
07FFF800
01FFE000
007F8000
00030000
00020000
00060000
00060000
000E0000
00060000
0007E000
0003C000
ENDCHAR
STARTCHAR uni01EB
ENCODING 491
SWIDTH 556 0
DWIDTH 21 0
BBX 17 28 2 -8
BITMAP
07E000
0FF800
3FFE00
3C1E00
780F00
700700
F00780
E00380
E00380
E00380
E00380
E00380
E00380
F00780
700700
780F00
3C1E00
3FFE00
0FF800
03F000
002000
006000
00C000
00C000
00C000
00C000
00FC00
007800
ENDCHAR
STARTCHAR uni01EC
ENCODING 492
SWIDTH 777 0
DWIDTH 30 0
BBX 26 40 2 -8
BITMAP
00FFF000
00FFF000
00FFF000
00000000
00000000
007F8000
01FFE000
07FFF800
0FC0FC00
1E001E00
3C000F00
38000700
70000780
70000380
F00003C0
E00001C0
E00001C0
E00001C0
E00001C0
E00001C0
E00001C0
E00001C0
E00003C0
70000380
70000380
38000700
3C000F00
1E001E00
0FC0FC00
07FFF800
01FFE000
007F8000
00030000
00020000
00060000
00060000
000E0000
00060000
0007E000
0003C000
ENDCHAR
STARTCHAR uni01ED
ENCODING 493
SWIDTH 556 0
DWIDTH 21 0
BBX 17 34 2 -8
BITMAP
3FFC00
3FFC00
3FFC00
000000
000000
000000
07E000
0FF800
3FFE00
3C1E00
780F00
700700
F00780
E00380
E00380
E00380
E00380
E00380
E00380
F00780
700700
780F00
3C1E00
3FFE00
0FF800
03F000
002000
006000
00C000
00C000
00C000
00C000
00FC00
007800
ENDCHAR
STARTCHAR uni01EE
ENCODING 494
SWIDTH 610 0
DWIDTH 23 0
BBX 21 42 1 -8
BITMAP
038380
01C700
00EE00
007E00
007C00
000000
000000
3FFFF8
3FFFF8
3FFFF8
000078
0000F0
0001E0
0003C0
000780
000F00
001E00
003C00
007800
007E00
007F80
007FC0
0007E0
0001F0
0000F0
000070
000078
000038
000038
000038
000038
000038
000038
200078
E00070
F00070
7800F0
7C01E0
3E07C0
1FFF80
0FFF00
03FC00
ENDCHAR
STARTCHAR uni01EF
ENCODING 495
SWIDTH 544 0
DWIDTH 21 0
BBX 19 35 1 -8
BITMAP
070E00
079C00
03BC00
01F800
01F000
000000
000000
7FFFC0
7FFFC0
7FFFC0
000F80
001E00
003C00
007800
00F000
01E000
01F800
01FE00
01FF80
000F80
0003C0
0001C0
0001E0
0000E0
0000E0
0000E0
0000E0
E000E0
E001C0
F001C0
7803C0
7E0F80
3FFF00
0FFE00
03F000
ENDCHAR
STARTCHAR uni01F0
ENCODING 496
SWIDTH 222 0
DWIDTH 8 0
BBX 11 35 -1 -8
BITMAP
F0E0
71C0
3B80
1F80
1F00
0000
0000
0E00
0E00
0E00
0E00
0E00
0E00
0E00
0E00
0E00
0E00
0E00
0E00
0E00
0E00
0E00
0E00
0E00
0E00
0E00
0E00
0E00
0E00
0E00
0E00
1E00
FC00
FC00
F800
ENDCHAR
STARTCHAR uni01F1
ENCODING 497
SWIDTH 1333 0
DWIDTH 51 0
BBX 46 27 3 0
BITMAP
FFFC001FFFF8
FFFF801FFFF8
FFFFC01FFFF8
E003E0000078
E000F00000F0
E000700001E0
E000780001C0
E00038000380
E00038000780
E0001C000F00
E0001C001E00
E0001C001C00
E0001C003C00
E0001C007800
E0001C00F000
E0001C00E000
E0001C01C000
E0001C03C000
E00038078000
E000380F0000
E000780E0000
E000701C0000
E000F03C0000
E003E0780000
FFFFC07FFFFC
FFFF807FFFFC
FFFC007FFFFC
ENDCHAR
STARTCHAR uni01F2
ENCODING 498
SWIDTH 1222 0
DWIDTH 46 0
BBX 41 27 3 0
BITMAP
FFFC00000000
FFFF80000000
FFFFC0000000
E003E0000000
E000F0000000
E00070000000
E00078000000
E000387FFF80
E000387FFF80
E0001C7FFF80
E0001C000F00
E0001C001E00
E0001C003C00
E0001C003800
E0001C007800
E0001C00F000
E0001C01E000
E0001C03C000
E00038078000
E000380F0000
E000781E0000
E000703C0000
E000F0780000
E003E0F00000
FFFFC0FFFF80
FFFF80FFFF80
FFFC00FFFF80
ENDCHAR
STARTCHAR uni01F3
ENCODING 499
SWIDTH 1048 0
DWIDTH 40 0
BBX 36 27 2 0
BITMAP
0007000000
0007000000
0007000000
0007000000
0007000000
0007000000
0007000000
07C70FFFF0
1FF70FFFF0
3FFF0FFFF0
3C3F0001E0
781F0003C0
700F000780
E00F000700
E007000F00
E007001E00
E007003C00
E007007800
E00700F000
E00701E000
F00703C000
700F078000
781F0F0000
3C3F1E0000
3FFF1FFFF0
1FF71FFFF0
07C71FFFF0
ENDCHAR
STARTCHAR uni01F4
ENCODING 500
SWIDTH 777 0
DWIDTH 30 0
BBX 26 34 2 0
BITMAP
0003C000
0003C000
00078000
00070000
000E0000
00000000
00000000
003FC000
01FFF800
07FFFE00
0FC03F00
1F000F00
3C000780
38000380
780003C0
70000000
70000000
E0000000
E0000000
E0000000
E003FFC0
E003FFC0
E003FFC0
E00001C0
F00001C0
700001C0
700001C0
380001C0
3C0001C0
1F0007C0
0FC03F80
07FFFE00
01FFFC00
003FC000
ENDCHAR
STARTCHAR uni01F5
ENCODING 501
SWIDTH 556 0
DWIDTH 21 0
BBX 16 35 2 -8
BITMAP
00F0
01E0
01C0
03C0
0380
0000
0000
07C7
1FF7
3FFF
3C3F
781F
700F
E00F
E007
E007
E007
E007
E007
E007
E007
700F
781F
3C3F
3FFF
1FF7
07E7
0007
0007
E00F
F00E
F83E
7FFC
3FF8
0FE0
ENDCHAR
STARTCHAR uni01F6
ENCODING 502
SWIDTH 1034 0
DWIDTH 39 0
BBX 34 27 3 0
BITMAP
E000380000
E000380000
E000380000
E000380000
E000380000
E000380000
E000380000
E0003801C0
E0003801C0
E0003801C0
E0003801C0
FFFFF801C0
FFFFF801C0
FFFFF801C0
E0003801C0
E0003801C0
E0003801C0
E0003801C0
E0003801C0
E0003801C0
E0003801C0
E0003803C0
E0003C0380
E0001E0F80
E0001FFF00
E0000FFE00
E00003F800
ENDCHAR
STARTCHAR uni01F7
ENCODING 503
SWIDTH 618 0
DWIDTH 23 0
BBX 18 35 3 -8
BITMAP
E1F800
E7FE00
EFFF00
FE0F80
F80380
F803C0
F001C0
E001C0
E001C0
E001C0
E001C0
E001C0
E001C0
E003C0
E00380
E00380
E00780
E00700
E00F00
E00E00
E01E00
E03C00
E03800
E07000
E0E000
E1E000
E7C000
EF0000
FE0000
FC0000
F00000
E00000
E00000
E00000
E00000
ENDCHAR
STARTCHAR uni01F8
ENCODING 504
SWIDTH 722 0
DWIDTH 27 0
BBX 21 34 3 0
BITMAP
03C000
01E000
00E000
007000
007800
000000
000000
F00038
F00038
F80038
FC0038
FC0038
EE0038
EF0038
E70038
E38038
E3C038
E1C038
E0E038
E0F038
E07038
E07838
E03838
E01C38
E01E38
E00E38
E00738
E007B8
E003B8
E001F8
E001F8
E000F8
E00078
E00078
ENDCHAR
STARTCHAR uni01F9
ENCODING 505
SWIDTH 556 0
DWIDTH 21 0
BBX 15 27 3 0
BITMAP
1E00
0F00
0780
0380
01C0
0000
0000
E3E0
EFF8
FFFC
FC3C
F01E
F00E
E00E
E00E
E00E
E00E
E00E
E00E
E00E
E00E
E00E
E00E
E00E
E00E
E00E
E00E
ENDCHAR
STARTCHAR Aringacute
ENCODING 506
SWIDTH 666 0
DWIDTH 25 0
BBX 25 38 0 0
BITMAP
0003C000
00078000
000F0000
000E0000
001C0000
001C0000
00220000
00410000
00410000
00410000
00220000
003E0000
003E0000
003E0000
00770000
00770000
00F78000
00E38000
00E38000
01C1C000
01C1C000
03C1E000
0380E000
0380E000
07007000
07007000
0F007800
0FFFF800
0FFFF800
1FFFFC00
1C001C00
3C001E00
38000E00
38000E00
70000700
70000700
F0000780
E0000380
ENDCHAR
STARTCHAR aringacute
ENCODING 507
SWIDTH 556 0
DWIDTH 21 0
BBX 17 35 2 0
BITMAP
007800
00F000
01E000
01C000
038000
000000
01C000
022000
041000
041000
041000
022000
01C000
000000
000000
07F000
1FFC00
3FFE00
781F00
F00700
E00700
000700
001F00
07FF00
1FFF00
7FE700
7C0700
F00700
E00700
E00F00
E01F00
F03F00
7FFF00
3FF700
1FC380
ENDCHAR
STARTCHAR AEacute
ENCODING 508
SWIDTH 1000 0
DWIDTH 38 0
BBX 36 34 0 0
BITMAP
00003C0000
0000780000
0000700000
0000E00000
0000E00000
0000000000
0000000000
0007FFFFE0
000FFFFFE0
000FFFFFE0
001C380000
001C380000
0038380000
0038380000
0070380000
0070380000
00E0380000
00E0380000
01C0380000
01C03FFFC0
03803FFFC0
03803FFFC0
0700380000
07FFF80000
0FFFF80000
0FFFF80000
1C00380000
1C00380000
3800380000
3800380000
7000380000
70003FFFF0
F0003FFFF0
E0003FFFF0
ENDCHAR
STARTCHAR aeacute
ENCODING 509
SWIDTH 889 0
DWIDTH 34 0
BBX 31 27 2 0
BITMAP
00007800
0000F000
0001E000
0001C000
00038000
00000000
00000000
07F81F80
1FFE7FE0
3FFFFFF0
780FF078
F003E01C
E003C01C
0003800C
000F800E
03FFFFFE
1FFFFFFE
3FF3FFFE
7C038000
F0038000
E0038000
E007C00E
E00FE01C
F83FF07C
7FFCFFF8
3FF07FF0
0FC01FC0
ENDCHAR
STARTCHAR Oslashacute
ENCODING 510
SWIDTH 777 0
DWIDTH 30 0
BBX 26 35 2 -1
BITMAP
0003C000
00078000
000F0000
000E0000
001C0000
00000000
00000180
007F81C0
01FFF380
07FFFF00
0FC0FF00
1E001E00
3C003F00
38007F00
7000F780
7000E380
F001C3C0
E003C1C0
E00781C0
E00F01C0
E01E01C0
E03C01C0
E03801C0
E07001C0
F0E00380
71E00380
7BC00380
7F800700
3F000F00
1E001E00
1FC0FC00
3FFFF800
7BFFE000
F07F8000
60000000
ENDCHAR
STARTCHAR oslashacute
ENCODING 511
SWIDTH 610 0
DWIDTH 23 0
BBX 17 28 3 -1
BITMAP
007800
00F000
01E000
01C000
038000
000000
000300
07E780
1FFF00
3FFE00
7C1E00
783F00
707F00
E07780
E0F380
E1E380
E1C380
E38380
E78380
EF0380
EE0780
FE0700
7C0F00
781E00
7FFE00
FFF800
E3E000
400000
ENDCHAR
STARTCHAR uni0200
ENCODING 512
SWIDTH 666 0
DWIDTH 25 0
BBX 25 34 0 0
BITMAP
01CE0000
00E70000
00630000
00738000
00318000
00000000
00000000
003E0000
003E0000
003E0000
00770000
00770000
00F78000
00E38000
00E38000
01C1C000
01C1C000
03C1E000
0380E000
0380E000
07007000
07007000
0F007800
0FFFF800
0FFFF800
1FFFFC00
1C001C00
3C001E00
38000E00
38000E00
70000700
70000700
F0000780
E0000380
ENDCHAR
STARTCHAR uni0201
ENCODING 513
SWIDTH 556 0
DWIDTH 21 0
BBX 17 27 2 0
BITMAP
0C6000
0E7000
063000
073800
031800
000000
000000
07F000
1FFC00
3FFE00
781F00
F00700
E00700
000700
001F00
07FF00
1FFF00
7FE700
7C0700
F00700
E00700
E00F00
E01F00
F03F00
7FFF00
3FF700
1FC380
ENDCHAR
STARTCHAR uni0202
ENCODING 514
SWIDTH 666 0
DWIDTH 25 0
BBX 25 34 0 0
BITMAP
003F0000
007F8000
00E1C000
00C0C000
0180C000
00000000
00000000
003E0000
003E0000
003E0000
00770000
00770000
00F78000
00E38000
00E38000
01C1C000
01C1C000
03C1E000
0380E000
0380E000
07007000
07007000
0F007800
0FFFF800
0FFFF800
1FFFFC00
1C001C00
3C001E00
38000E00
38000E00
70000700
70000700
F0000780
E0000380
ENDCHAR
STARTCHAR uni0203
ENCODING 515
SWIDTH 556 0
DWIDTH 21 0
BBX 17 27 2 0
BITMAP
01F000
07F800
0E1C00
0C0C00
0C0600
000000
000000
07F000
1FFC00
3FFE00
781F00
F00700
E00700
000700
001F00
07FF00
1FFF00
7FE700
7C0700
F00700
E00700
E00F00
E01F00
F03F00
7FFF00
3FF700
1FC380
ENDCHAR
STARTCHAR uni0204
ENCODING 516
SWIDTH 666 0
DWIDTH 25 0
BBX 20 34 3 0
BITMAP
0E7000
0E7000
063000
071800
031800
000000
000000
FFFFE0
FFFFE0
FFFFE0
E00000
E00000
E00000
E00000
E00000
E00000
E00000
E00000
E00000
FFFFC0
FFFFC0
FFFFC0
E00000
E00000
E00000
E00000
E00000
E00000
E00000
E00000
E00000
FFFFF0
FFFFF0
FFFFF0
ENDCHAR
STARTCHAR uni0205
ENCODING 517
SWIDTH 556 0
DWIDTH 20 0
BBX 17 27 2 0
BITMAP
0C6000
0E7000
063000
073800
031800
000000
000000
03F000
0FF800
1FFE00
3C1E00
780700
700700
E00380
E00380
FFFF80
FFFF80
FFFF80
E00000
E00000
F00000
700380
780700
3C1F00
3FFE00
0FFC00
07F000
ENDCHAR
STARTCHAR uni0206
ENCODING 518
SWIDTH 666 0
DWIDTH 25 0
BBX 20 34 3 0
BITMAP
01F000
07FC00
061C00
0C0E00
0C0600
000000
000000
FFFFE0
FFFFE0
FFFFE0
E00000
E00000
E00000
E00000
E00000
E00000
E00000
E00000
E00000
FFFFC0
FFFFC0
FFFFC0
E00000
E00000
E00000
E00000
E00000
E00000
E00000
E00000
E00000
FFFFF0
FFFFF0
FFFFF0
ENDCHAR
STARTCHAR uni0207
ENCODING 519
SWIDTH 556 0
DWIDTH 20 0
BBX 17 27 2 0
BITMAP
03F000
07F800
0E1C00
0C0C00
0C0C00
000000
000000
03F000
0FF800
1FFE00
3C1E00
780700
700700
E00380
E00380
FFFF80
FFFF80
FFFF80
E00000
E00000
F00000
700380
780700
3C1F00
3FFE00
0FFC00
07F000
ENDCHAR
STARTCHAR uni0208
ENCODING 520
SWIDTH 277 0
DWIDTH 11 0
BBX 9 34 -1 0
BITMAP
E700
E700
6300
7380
3180
0000
0000
0700
0700
0700
0700
0700
0700
0700
0700
0700
0700
0700
0700
0700
0700
0700
0700
0700
0700
0700
0700
0700
0700
0700
0700
0700
0700
0700
ENDCHAR
STARTCHAR uni0209
ENCODING 521
SWIDTH 277 0
DWIDTH 11 0
BBX 9 27 -1 0
BITMAP
E700
E300
7380
3180
3180
0000
0000
0700
0700
0700
0700
0700
0700
0700
0700
0700
0700
0700
0700
0700
0700
0700
0700
0700
0700
0700
0700
ENDCHAR
STARTCHAR uni020A
ENCODING 522
SWIDTH 277 0
DWIDTH 11 0
BBX 10 34 1 0
BITMAP
3F00
7F80
E1C0
C0C0
C0C0
0000
0000
1C00
1C00
1C00
1C00
1C00
1C00
1C00
1C00
1C00
1C00
1C00
1C00
1C00
1C00
1C00
1C00
1C00
1C00
1C00
1C00
1C00
1C00
1C00
1C00
1C00
1C00
1C00
ENDCHAR
STARTCHAR uni020B
ENCODING 523
SWIDTH 277 0
DWIDTH 11 0
BBX 11 27 0 0
BITMAP
1F00
3FC0
70E0
6060
C060
0000
0000
0E00
0E00
0E00
0E00
0E00
0E00
0E00
0E00
0E00
0E00
0E00
0E00
0E00
0E00
0E00
0E00
0E00
0E00
0E00
0E00
ENDCHAR
STARTCHAR uni020C
ENCODING 524
SWIDTH 777 0
DWIDTH 30 0
BBX 26 34 2 0
BITMAP
01CE0000
00E70000
00E70000
00630000
00318000
00000000
00000000
007F8000
01FFE000
07FFF800
0FC0FC00
1E001E00
3C000F00
38000700
70000780
70000380
F00003C0
E00001C0
E00001C0
E00001C0
E00001C0
E00001C0
E00001C0
E00001C0
E00003C0
70000380
70000380
38000700
3C000F00
1E001E00
0FC0FC00
07FFF800
01FFE000
007F8000
ENDCHAR
STARTCHAR uni020D
ENCODING 525
SWIDTH 556 0
DWIDTH 21 0
BBX 17 27 2 0
BITMAP
1CE000
0E7000
0E7000
063000
071800
000000
000000
07E000
0FF800
3FFE00
3C1E00
780F00
700700
F00780
E00380
E00380
E00380
E00380
E00380
E00380
F00780
700700
780F00
3C1E00
3FFE00
0FF800
03F000
ENDCHAR
STARTCHAR uni020E
ENCODING 526
SWIDTH 777 0
DWIDTH 30 0
BBX 26 34 2 0
BITMAP
001F0000
007F8000
0061C000
00C0E000
00C06000
00000000
00000000
007F8000
01FFE000
07FFF800
0FC0FC00
1E001E00
3C000F00
38000700
70000780
70000380
F00003C0
E00001C0
E00001C0
E00001C0
E00001C0
E00001C0
E00001C0
E00001C0
E00003C0
70000380
70000380
38000700
3C000F00
1E001E00
0FC0FC00
07FFF800
01FFE000
007F8000
ENDCHAR
STARTCHAR uni020F
ENCODING 527
SWIDTH 556 0
DWIDTH 21 0
BBX 17 27 2 0
BITMAP
01F000
07F800
0E1C00
0C0C00
0C0600
000000
000000
07E000
0FF800
3FFE00
3C1E00
780F00
700700
F00780
E00380
E00380
E00380
E00380
E00380
E00380
F00780
700700
780F00
3C1E00
3FFE00
0FF800
03F000
ENDCHAR
STARTCHAR uni0210
ENCODING 528
SWIDTH 722 0
DWIDTH 27 0
BBX 22 34 3 0
BITMAP
1CE000
0E7000
063000
073800
031800
000000
000000
FFFF00
FFFFC0
FFFFE0
E001F0
E00070
E00038
E00038
E00038
E00038
E00078
E00070
E001F0
FFFFE0
FFFFC0
FFFF00
E03C00
E01E00
E00F00
E00F80
E00780
E003C0
E001E0
E001E0
E000F0
E00078
E00078
E0003C
ENDCHAR
STARTCHAR uni0211
ENCODING 529
SWIDTH 333 0
DWIDTH 13 0
BBX 11 27 2 0
BITMAP
E700
E700
7380
3180
3180
0000
0000
73E0
77E0
7FC0
7C00
7800
7800
7000
7000
7000
7000
7000
7000
7000
7000
7000
7000
7000
7000
7000
7000
ENDCHAR
STARTCHAR uni0212
ENCODING 530
SWIDTH 722 0
DWIDTH 27 0
BBX 22 34 3 0
BITMAP
01F000
07FC00
061C00
0C0E00
0C0600
000000
000000
FFFF00
FFFFC0
FFFFE0
E001F0
E00070
E00038
E00038
E00038
E00038
E00078
E00070
E001F0
FFFFE0
FFFFC0
FFFF00
E03C00
E01E00
E00F00
E00F80
E00780
E003C0
E001E0
E001E0
E000F0
E00078
E00078
E0003C
ENDCHAR
STARTCHAR uni0213
ENCODING 531
SWIDTH 333 0
DWIDTH 13 0
BBX 11 27 2 0
BITMAP
1F80
3FC0
70E0
6060
E060
0000
0000
73E0
77E0
7FC0
7C00
7800
7800
7000
7000
7000
7000
7000
7000
7000
7000
7000
7000
7000
7000
7000
7000
ENDCHAR
STARTCHAR uni0214
ENCODING 532
SWIDTH 722 0
DWIDTH 27 0
BBX 21 34 3 0
BITMAP
031800
039C00
018C00
01CE00
00C600
000000
000000
E00038
E00038
E00038
E00038
E00038
E00038
E00038
E00038
E00038
E00038
E00038
E00038
E00038
E00038
E00038
E00038
E00038
E00038
E00038
E00038
700070
700070
7800F0
3E03E0
1FFFC0
0FFF80
03FC00
ENDCHAR
STARTCHAR uni0215
ENCODING 533
SWIDTH 556 0
DWIDTH 21 0
BBX 15 27 3 0
BITMAP
39C0
18C0
1CE0
0C60
0E70
0000
0000
E00E
E00E
E00E
E00E
E00E
E00E
E00E
E00E
E00E
E00E
E00E
E00E
E00E
E00E
E01E
F01E
787E
7FEE
3FCE
1F8E
ENDCHAR
STARTCHAR uni0216
ENCODING 534
SWIDTH 722 0
DWIDTH 27 0
BBX 21 34 3 0
BITMAP
007C00
01FE00
038700
030300
030180
000000
000000
E00038
E00038
E00038
E00038
E00038
E00038
E00038
E00038
E00038
E00038
E00038
E00038
E00038
E00038
E00038
E00038
E00038
E00038
E00038
E00038
700070
700070
7800F0
3E03E0
1FFFC0
0FFF80
03FC00
ENDCHAR
STARTCHAR uni0217
ENCODING 535
SWIDTH 556 0
DWIDTH 21 0
BBX 15 27 3 0
BITMAP
07E0
0FF0
1C38
1818
3818
0000
0000
E00E
E00E
E00E
E00E
E00E
E00E
E00E
E00E
E00E
E00E
E00E
E00E
E00E
E00E
E01E
F01E
787E
7FEE
3FCE
1F8E
ENDCHAR
STARTCHAR uni0218
ENCODING 536
SWIDTH 666 0
DWIDTH 25 0
BBX 21 38 2 -10
BITMAP
00F000
07FF00
1FFFC0
3FFFE0
3C01E0
7800F0
7000F0
700070
700070
780000
7C0000
3F8000
1FF800
0FFF00
03FFC0
003FE0
0003F0
0000F8
000078
E00038
E00038
F00038
F00078
780078
7E01F0
3FFFE0
1FFFC0
07FF00
000000
000000
000000
007800
007800
007800
003000
003000
007000
006000
ENDCHAR
STARTCHAR uni0219
ENCODING 537
SWIDTH 500 0
DWIDTH 19 0
BBX 17 30 1 -10
BITMAP
0FF000
1FFC00
3FFE00
781E00
700F00
700E00
780000
7E0000
3FC000
1FF800
07FE00
00FF00
001F00
000700
F00780
F00700
780F00
7E3E00
3FFE00
0FF800
000000
000000
000000
03C000
03C000
03C000
00C000
00C000
038000
018000
ENDCHAR
STARTCHAR uni021A
ENCODING 538
SWIDTH 610 0
DWIDTH 23 0
BBX 21 37 1 -10
BITMAP
FFFFF8
FFFFF8
FFFFF8
007000
007000
007000
007000
007000
007000
007000
007000
007000
007000
007000
007000
007000
007000
007000
007000
007000
007000
007000
007000
007000
007000
007000
007000
000000
000000
007000
007000
007000
001000
001000
003000
006000
004000
ENDCHAR
STARTCHAR uni021B
ENCODING 539
SWIDTH 277 0
DWIDTH 10 0
BBX 9 37 1 -10
BITMAP
0800
1800
3800
3800
3800
3800
3800
FF80
FF80
FF80
3800
3800
3800
3800
3800
3800
3800
3800
3800
3800
3800
3800
3800
3C00
3F80
1F80
0F80
0000
0000
0E00
0E00
0E00
0200
0200
0600
0C00
0800
ENDCHAR
STARTCHAR uni021C
ENCODING 540
SWIDTH 544 0
DWIDTH 21 0
BBX 17 35 2 -8
BITMAP
07F000
1FFC00
3FFE00
7C1F00
F00700
600780
200380
000380
000380
000380
000380
000700
000F00
000E00
001E00
007E00
01FF00
07F700
1FC380
7F0380
780380
600380
000380
000380
000700
000F00
000E00
001C00
007C00
00F000
07E000
1F8000
7E0000
780000
600000
ENDCHAR
STARTCHAR uni021D
ENCODING 541
SWIDTH 436 0
DWIDTH 17 0
BBX 16 28 0 -8
BITMAP
07F0
1FFC
3FFE
7C1E
F00F
2007
0007
0007
0007
000E
001E
003C
01FE
1FFE
7FCF
7E07
6007
0007
0007
000F
000E
001E
007C
03F8
1FE0
7F80
7C00
6000
ENDCHAR
STARTCHAR uni021E
ENCODING 542
SWIDTH 722 0
DWIDTH 27 0
BBX 21 34 3 0
BITMAP
070E00
038E00
01DC00
01F800
00F800
000000
000000
E00038
E00038
E00038
E00038
E00038
E00038
E00038
E00038
E00038
E00038
E00038
FFFFF8
FFFFF8
FFFFF8
E00038
E00038
E00038
E00038
E00038
E00038
E00038
E00038
E00038
E00038
E00038
E00038
E00038
ENDCHAR
STARTCHAR uni021F
ENCODING 543
SWIDTH 556 0
DWIDTH 21 0
BBX 15 34 3 0
BITMAP
1C38
1C70
0EE0
07E0
07C0
0000
0000
E000
E000
E000
E000
E000
E000
E000
E3E0
EFF8
FFFC
FC3C
F01E
F00E
E00E
E00E
E00E
E00E
E00E
E00E
E00E
E00E
E00E
E00E
E00E
E00E
E00E
E00E
ENDCHAR
STARTCHAR uni0220
ENCODING 544
SWIDTH 706 0
DWIDTH 27 0
BBX 21 35 3 -8
BITMAP
E1FE00
EFFFC0
FFFFE0
FE01F0
F000F0
E00078
E00078
E00038
E00038
E00038
E00038
E00038
E00038
E00038
E00038
E00038
E00038
E00038
E00038
E00038
E00038
E00038
E00038
E00038
E00038
E00038
E00038
000038
000038
000038
000038
000038
000038
000038
000038
ENDCHAR
STARTCHAR uni0221
ENCODING 545
SWIDTH 681 0
DWIDTH 26 0
BBX 24 35 2 -8
BITMAP
000380
000380
000380
000380
000380
000380
000380
03E380
0FFB80
3FFF80
3C1F80
780F80
700780
F00780
E00380
E00380
E00380
E00380
E00380
E00380
F00780
700780
780F80
3C1F80
1FFF80
0FFBFC
03E3FE
0003FE
0007CF
000F87
001F87
001FCF
003DFF
0019FE
00107C
ENDCHAR
STARTCHAR uni0222
ENCODING 546
SWIDTH 604 0
DWIDTH 23 0
BBX 19 27 2 0
BITMAP
003C00
003F00
000F80
078380
3F81C0
3C01C0
7001C0
7001C0
7001C0
780380
3C0F00
1FFE00
03F800
1FFF00
3C0780
7001C0
F001E0
E000E0
E000E0
E000E0
E000E0
F001E0
7803C0
7C07C0
3FFF80
1FFF00
03F800
ENDCHAR
STARTCHAR uni0223
ENCODING 547
SWIDTH 565 0
DWIDTH 21 0
BBX 17 27 2 0
BITMAP
041000
1C1C00
3C1E00
380E00
700700
700700
700700
700700
700700
380E00
3C1E00
1FFC00
07F000
1FFE00
7C1F00
700700
F00380
E00380
E00380
E00380
E00380
F00780
700700
7C1F00
3FFE00
1FFC00
07F000
ENDCHAR
STARTCHAR uni0224
ENCODING 548
SWIDTH 610 0
DWIDTH 23 0
BBX 21 32 1 -5
BITMAP
3FFFF8
3FFFF8
3FFFF8
000078
0000F0
0001E0
0003C0
000380
000700
000F00
001E00
003C00
003800
007000
00E000
01E000
03C000
078000
070000
0E0000
1C0000
3C0000
780000
F00000
FFFFC0
FFFFF0
FFFFF0
000078
000038
000038
000038
000018
ENDCHAR
STARTCHAR uni0225
ENCODING 549
SWIDTH 500 0
DWIDTH 19 0
BBX 17 24 1 -4
BITMAP
7FFF00
7FFF00
7FFF00
001E00
003C00
007800
007000
00E000
01E000
03C000
078000
070000
0E0000
1E0000
3C0000
780000
F00000
FFFE00
FFFF00
FFFF80
000780
000380
000380
000380
ENDCHAR
STARTCHAR uni0226
ENCODING 550
SWIDTH 666 0
DWIDTH 25 0
BBX 25 32 0 0
BITMAP
001C0000
001C0000
001C0000
00000000
00000000
003E0000
003E0000
003E0000
00770000
00770000
00F78000
00E38000
00E38000
01C1C000
01C1C000
03C1E000
0380E000
0380E000
07007000
07007000
0F007800
0FFFF800
0FFFF800
1FFFFC00
1C001C00
3C001E00
38000E00
38000E00
70000700
70000700
F0000780
E0000380
ENDCHAR
STARTCHAR uni0227
ENCODING 551
SWIDTH 556 0
DWIDTH 21 0
BBX 17 25 2 0
BITMAP
01C000
01C000
01C000
000000
000000
07F000
1FFC00
3FFE00
781F00
F00700
E00700
000700
001F00
07FF00
1FFF00
7FE700
7C0700
F00700
E00700
E00F00
E01F00
F03F00
7FFF00
3FF700
1FC380
ENDCHAR
STARTCHAR uni0228
ENCODING 552
SWIDTH 666 0
DWIDTH 25 0
BBX 20 35 3 -8
BITMAP
FFFFE0
FFFFE0
FFFFE0
E00000
E00000
E00000
E00000
E00000
E00000
E00000
E00000
E00000
FFFFC0
FFFFC0
FFFFC0
E00000
E00000
E00000
E00000
E00000
E00000
E00000
E00000
E00000
FFFFF0
FFFFF0
FFFFF0
006000
006000
00E000
00F800
001C00
001C00
03F800
03F000
ENDCHAR
STARTCHAR uni0229
ENCODING 553
SWIDTH 556 0
DWIDTH 21 0
BBX 18 28 1 -8
BITMAP
03F000
0FFC00
1FFE00
3E0F00
780780
700380
F001C0
E001C0
FFFFC0
FFFFC0
FFFFC0
E00000
E00000
F00000
7001C0
7803C0
3E0F80
1FFF00
0FFE00
03F800
00C000
00C000
00C000
01F000
003800
003800
07F000
07E000
ENDCHAR
STARTCHAR uni022A
ENCODING 554
SWIDTH 777 0
DWIDTH 30 0
BBX 26 34 2 0
BITMAP
00FFC000
00FFC000
00000000
00000000
00E1C000
00E1C000
001C0000
01FFC000
07FFF000
0FF7FC00
1F007C00
3E001E00
3C000F00
78000F00
78000780
F0000780
F0000380
F00003C0
F00003C0
F00003C0
F00003C0
F00003C0
F00003C0
F00003C0
F0000380
70000780
78000780
78000F00
3C000F00
1E003E00
1F807C00
0FFFF800
03FFF000
00FFC000
ENDCHAR
STARTCHAR uni022B
ENCODING 555
SWIDTH 556 0
DWIDTH 21 0
BBX 17 33 2 0
BITMAP
1FFE00
1FFE00
1FFE00
000000
000000
000000
0E3800
0E3800
0E3800
000000
000000
000000
000000
07E000
0FF800
3FFE00
3C1E00
780F00
700700
F00780
E00380
E00380
E00380
E00380
E00380
E00380
F00780
700700
780F00
3C1E00
3FFE00
0FF800
03F000
ENDCHAR
STARTCHAR uni022C
ENCODING 556
SWIDTH 777 0
DWIDTH 30 0
BBX 26 34 2 0
BITMAP
00FFC000
00FFC000
00000000
0038C000
007FC000
00C78000
001C0000
01FFC000
07FFF000
0FF7FC00
1F007C00
3E001E00
3C000F00
78000F00
78000780
F0000780
F0000380
F00003C0
F00003C0
F00003C0
F00003C0
F00003C0
F00003C0
F00003C0
F0000380
70000780
78000780
78000F00
3C000F00
1E003E00
1F807C00
0FFFF800
03FFF000
00FFC000
ENDCHAR
STARTCHAR uni022D
ENCODING 557
SWIDTH 556 0
DWIDTH 21 0
BBX 17 33 2 0
BITMAP
1FFE00
1FFE00
1FFE00
000000
000000
000000
071C00
0FDC00
0FFC00
0EFC00
1E7800
000000
000000
07E000
0FF800
3FFE00
3C1E00
780F00
700700
F00780
E00380
E00380
E00380
E00380
E00380
E00380
F00780
700700
780F00
3C1E00
3FFE00
0FF800
03F000
ENDCHAR
STARTCHAR uni022E
ENCODING 558
SWIDTH 777 0
DWIDTH 30 0
BBX 26 32 2 0
BITMAP
000E0000
000E0000
000E0000
00000000
00000000
007F8000
01FFE000
07FFF800
0FC0FC00
1E001E00
3C000F00
38000700
70000780
70000380
F00003C0
E00001C0
E00001C0
E00001C0
E00001C0
E00001C0
E00001C0
E00001C0
E00003C0
70000380
70000380
38000700
3C000F00
1E001E00
0FC0FC00
07FFF800
01FFE000
007F8000
ENDCHAR
STARTCHAR uni022F
ENCODING 559
SWIDTH 556 0
DWIDTH 21 0
BBX 17 25 2 0
BITMAP
01C000
01C000
01C000
000000
000000
07E000
0FF800
3FFE00
3C1E00
780F00
700700
F00780
E00380
E00380
E00380
E00380
E00380
E00380
F00780
700700
780F00
3C1E00
3FFE00
0FF800
03F000
ENDCHAR
STARTCHAR uni0230
ENCODING 560
SWIDTH 777 0
DWIDTH 30 0
BBX 26 34 2 0
BITMAP
00FFC000
00FFC000
00000000
00000000
000C0000
000C0000
001C0000
01FFC000
07FFF000
0FF7FC00
1F007C00
3E001E00
3C000F00
78000F00
78000780
F0000780
F0000380
F00003C0
F00003C0
F00003C0
F00003C0
F00003C0
F00003C0
F00003C0
F0000380
70000780
78000780
78000F00
3C000F00
1E003E00
1F807C00
0FFFF800
03FFF000
00FFC000
ENDCHAR
STARTCHAR uni0231
ENCODING 561
SWIDTH 556 0
DWIDTH 21 0
BBX 17 33 2 0
BITMAP
1FFE00
1FFE00
1FFE00
000000
000000
000000
01C000
01C000
01C000
000000
000000
000000
000000
07E000
0FF800
3FFE00
3C1E00
780F00
700700
F00780
E00380
E00380
E00380
E00380
E00380
E00380
F00780
700700
780F00
3C1E00
3FFE00
0FF800
03F000
ENDCHAR
STARTCHAR uni0232
ENCODING 562
SWIDTH 666 0
DWIDTH 25 0
BBX 23 32 1 0
BITMAP
03FFC0
03FFC0
03FFC0
000000
000000
F0001E
70001C
380038
3C0078
1C0070
0E00E0
0F01E0
0701C0
0783C0
038780
01C700
01EF00
00EE00
007C00
007C00
003800
003800
003800
003800
003800
003800
003800
003800
003800
003800
003800
003800
ENDCHAR
STARTCHAR uni0233
ENCODING 563
SWIDTH 500 0
DWIDTH 19 0
BBX 17 34 1 -8
BITMAP
1FFE00
1FFE00
1FFE00
000000
000000
000000
E00380
700780
700700
700700
380F00
380E00
3C0E00
1C1E00
1C1C00
1E1C00
0E3C00
0E3800
0F3800
077000
077000
07F000
03E000
03E000
03E000
01C000
01C000
01C000
038000
038000
070000
7F0000
7E0000
7C0000
ENDCHAR
STARTCHAR uni0234
ENCODING 564
SWIDTH 349 0
DWIDTH 13 0
BBX 15 35 -2 -8
BITMAP
0E00
0E00
0E00
0E00
0E00
0E00
0E00
0E00
0E00
0E00
0E00
0E00
0E00
0E00
0E00
0E00
0E00
0E00
0E00
0E00
0E00
0E00
0E00
0E00
0E00
0FF0
0FFC
0FFC
1F1E
3E0E
7E0E
7F1E
F7FC
E7FC
41F0
ENDCHAR
STARTCHAR uni0235
ENCODING 565
SWIDTH 684 0
DWIDTH 26 0
BBX 23 28 3 -8
BITMAP
E3F000
E7F800
EFFC00
FC3C00
F01E00
F00E00
E00E00
E00E00
E00E00
E00E00
E00E00
E00E00
E00E00
E00E00
E00E00
E00E00
E00E00
E00E00
E00FF0
E00FFC
000FFC
001F1E
003E0E
007E0E
007F1E
00F7FC
0067FC
0041F0
ENDCHAR
STARTCHAR uni0236
ENCODING 566
SWIDTH 367 0
DWIDTH 14 0
BBX 15 27 -1 0
BITMAP
0200
0600
0E00
0E00
0E00
0E00
0E00
3FE0
3FE0
3FE0
0E00
0E00
0E00
0E00
0E00
0E00
0E00
0FF0
0FFC
0FFC
1F1E
3E0E
7E0E
7F1E
F7FC
E7FC
41F0
ENDCHAR
STARTCHAR uni0237
ENCODING 567
SWIDTH 222 0
DWIDTH 8 0
BBX 7 28 -1 -8
BITMAP
0E
0E
0E
0E
0E
0E
0E
0E
0E
0E
0E
0E
0E
0E
0E
0E
0E
0E
0E
0E
0E
0E
0E
0E
1E
FC
FC
F8
ENDCHAR
STARTCHAR uni0238
ENCODING 568
SWIDTH 886 0
DWIDTH 34 0
BBX 31 27 1 0
BITMAP
00038000
00038000
00038000
00038000
00038000
00038000
00038000
03E38FC0
0FFB9FE0
3FFBBFF8
3C1FF078
780FE03C
7007C01C
F007C01E
E003800E
E003800E
E003800E
E003800E
E003800E
E003800E
F007C01E
7007C01C
780FE03C
3C1FF078
1FFBBFF0
0FF3BFE0
03E38F80
ENDCHAR
STARTCHAR uni0239
ENCODING 569
SWIDTH 886 0
DWIDTH 34 0
BBX 31 28 1 -8
BITMAP
07E38FC0
0FF39FF0
3FFBBFF8
3C1FF078
780FE03C
7007C01C
F007C01E
E003800E
E003800E
E003800E
E003800E
E003800E
E003800E
F007C01E
7007C01C
780FE03C
3C1FF078
1FFFFFF0
0FFBBFE0
03E38F80
00038000
00038000
00038000
00038000
00038000
00038000
00038000
00038000
ENDCHAR
STARTCHAR uni023A
ENCODING 570
SWIDTH 666 0
DWIDTH 25 0
BBX 25 30 0 -2
BITMAP
00000700
003C0E00
003E1C00
007E1C00
00773800
00F77800
00E77000
00E3E000
01E3E000
01C3C000
01C3C000
0383C000
0387E000
078EE000
070EF000
071C7000
0F387000
0FFFF800
0FFFF800
1FFFFC00
1CE01C00
3DC01C00
39C00E00
3B800E00
7F000F00
77000700
7E000700
FC000380
1C000000
38000000
ENDCHAR
STARTCHAR uni023B
ENCODING 571
SWIDTH 722 0
DWIDTH 27 0
BBX 23 30 2 -2
BITMAP
00001C
007F38
03FFF8
0FFFF0
1F80F8
3E00FC
3C01FC
7803DE
70038E
700700
F00700
E00E00
E01E00
E01C00
E03800
E03800
E07000
E0F000
F0E000
71C00E
71C01E
7B801C
3F803C
1F0078
1F81F0
0FFFE0
1FFFC0
3CFF00
380000
700000
ENDCHAR
STARTCHAR uni023C
ENCODING 572
SWIDTH 500 0
DWIDTH 19 0
BBX 17 35 1 -8
BITMAP
000380
000700
000700
000700
000E00
000E00
001C00
03FC00
0FFC00
1FFE00
1E3F00
387700
387780
707380
70E000
70E000
71C000
71C000
71C000
738000
7B8380
3F0380
3F0700
1F0F00
1FFE00
0FFC00
1FF800
1C0000
1C0000
380000
380000
700000
700000
700000
E00000
ENDCHAR
STARTCHAR uni023D
ENCODING 573
SWIDTH 556 0
DWIDTH 21 0
BBX 20 27 0 0
BITMAP
1C0000
1C0000
1C0000
1C0000
1C0000
1C0000
1C0000
1C0000
1C0000
1C0000
1C0000
1C0000
1C0000
FFFC00
FFFC00
1C0000
1C0000
1C0000
1C0000
1C0000
1C0000
1C0000
1C0000
1C0000
1FFFF0
1FFFF0
1FFFF0
ENDCHAR
STARTCHAR uni023E
ENCODING 574
SWIDTH 610 0
DWIDTH 23 0
BBX 21 30 1 -2
BITMAP
000038
FFFFF8
FFFFF8
FFFFF8
0071C0
0071C0
007380
007780
007700
007E00
007E00
007C00
007C00
007800
007000
007000
00F000
01F000
01F000
03F000
03F000
077000
0F7000
0E7000
1C7000
1C7000
387000
787000
700000
E00000
ENDCHAR
STARTCHAR uni023F
ENCODING 575
SWIDTH 500 0
DWIDTH 19 0
BBX 16 28 2 -8
BITMAP
0FE0
3FF8
7FFC
F03C
E01E
E00E
F000
FE00
7FE0
3FF8
0FFE
00FE
001F
0007
2007
7007
FC1E
7FFE
3FFC
1FE0
0F00
0700
0780
03C2
01E6
01FF
00FE
003C
ENDCHAR
STARTCHAR uni0240
ENCODING 576
SWIDTH 500 0
DWIDTH 19 0
BBX 18 28 1 -8
BITMAP
7FFF80
7FFF80
7FFF80
000F00
001E00
003C00
007800
00F000
00E000
01C000
038000
078000
0F0000
1E0000
3C0000
780000
F00000
FC0000
FF0000
FF8000
078000
03C000
01E000
00F000
007980
007FC0
003F80
000F00
ENDCHAR
STARTCHAR uni0241
ENCODING 577
SWIDTH 580 0
DWIDTH 22 0
BBX 20 27 0 0
BITMAP
03F800
1FFF00
3FFF80
7E07C0
7801E0
F000E0
6000F0
000070
000070
000070
000070
000070
000070
0000F0
0000E0
0001E0
0007C0
00FF80
00FF00
00FC00
00E000
00E000
00E000
00E000
00E000
00E000
00E000
ENDCHAR
STARTCHAR uni0242
ENCODING 578
SWIDTH 453 0
DWIDTH 17 0
BBX 15 20 1 0
BITMAP
07E0
1FF8
3FFC
783C
701E
E00E
E00E
000E
000E
001E
003C
007C
03F8
03F0
03C0
0380
0380
0380
0380
0380
ENDCHAR
STARTCHAR uni0243
ENCODING 579
SWIDTH 666 0
DWIDTH 25 0
BBX 22 27 1 0
BITMAP
3FFF00
3FFFC0
3FFFE0
3800F0
380070
380038
380038
380038
380038
380038
380070
3801E0
3FFFC0
3FFFC0
3FFFF0
3800F8
380038
FFF01C
FFF01C
FFF01C
38001C
38001C
380038
3800F8
3FFFF0
3FFFE0
3FFF80
ENDCHAR
STARTCHAR uni0244
ENCODING 580
SWIDTH 722 0
DWIDTH 27 0
BBX 25 27 1 0
BITMAP
38000E00
38000E00
38000E00
38000E00
38000E00
38000E00
38000E00
38000E00
38000E00
38000E00
38000E00
FFFFFF80
FFFFFF80
FFFFFF80
38000E00
38000E00
38000E00
38000E00
38000E00
38000E00
1C001C00
1C001C00
1E003C00
0F80F800
07FFF000
03FFE000
00FF0000
ENDCHAR
STARTCHAR uni0245
ENCODING 581
SWIDTH 667 0
DWIDTH 25 0
BBX 23 27 1 0
BITMAP
003C00
007C00
007C00
00FE00
00EE00
00EE00
01C700
01C700
01C780
038380
038380
0781C0
0701C0
0701C0
0E00E0
0E00E0
1E00F0
1C0070
1C0070
3C0038
380038
380038
70001C
70001C
F0001E
E0000E
E0000E
ENDCHAR
STARTCHAR uni0246
ENCODING 582
SWIDTH 666 0
DWIDTH 25 0
BBX 20 30 3 -2
BITMAP
0000E0
FFFFE0
FFFFE0
FFFFE0
E00380
E00700
E00700
E00E00
E01C00
E01C00
E03800
E03800
E07000
FFFFC0
FFFFC0
FFFFC0
E1C000
E1C000
E38000
E38000
E70000
E70000
EE0000
EC0000
FC0000
FFFFF0
FFFFF0
FFFFF0
700000
E00000
ENDCHAR
STARTCHAR uni0247
ENCODING 583
SWIDTH 556 0
DWIDTH 21 0
BBX 18 34 1 -7
BITMAP
0001C0
000380
000380
000700
000700
000700
000E00
03FE00
0FFC00
1FFE00
3C3F00
783F80
707B80
E071C0
E071C0
FFFFC0
FFFFC0
FFFFC0
E1C000
E38000
F38000
7781C0
7F03C0
3F0F80
1FFF00
0FFE00
1FF800
1C0000
380000
380000
380000
700000
700000
E00000
ENDCHAR
STARTCHAR uni0248
ENCODING 584
SWIDTH 500 0
DWIDTH 19 0
BBX 18 27 1 0
BITMAP
000E00
000E00
000E00
000E00
000E00
000E00
000E00
000E00
000E00
000E00
000E00
000E00
007FC0
007FC0
007FC0
000E00
000E00
000E00
000E00
E00E00
E00E00
E00E00
F01E00
783C00
7FF800
3FF800
0FE000
ENDCHAR
STARTCHAR uni0249
ENCODING 585
SWIDTH 222 0
DWIDTH 8 0
BBX 10 35 -3 -8
BITMAP
0700
0700
0700
0000
0000
0000
0000
0700
0700
0700
0700
0700
0700
0700
0700
1FC0
1FC0
1FC0
0700
0700
0700
0700
0700
0700
0700
0700
0700
0700
0700
0700
0700
0F00
7E00
7E00
FC00
ENDCHAR
STARTCHAR uni024A
ENCODING 586
SWIDTH 737 0
DWIDTH 28 0
BBX 28 35 2 -8
BITMAP
003FE200
01FFFE00
07FFFE00
0FC03E00
1F000E00
3C000E00
38000E00
78000E00
70000E00
70000E00
E0000E00
E0000E00
E0000E00
E0000E00
E0000E00
E0000E00
E0000E00
F0000E00
70000E00
78000E00
78000E00
3C000E00
1F000E00
0FC03E00
07FFFE00
01FFFE00
007FCE00
00000E00
00000E00
00000E00
00000E00
00000F00
000007E0
000007E0
000001F0
ENDCHAR
STARTCHAR uni024B
ENCODING 587
SWIDTH 556 0
DWIDTH 21 0
BBX 22 28 1 -8
BITMAP
07E380
0FFB80
3FFF80
3C1F80
780F80
700780
F00780
E00380
E00380
E00380
E00380
E00380
E00380
F00780
700780
780F80
3C1F80
1FFF80
0FFB80
03F380
000380
000380
000380
000380
0003C0
0001F8
0001F8
0000FC
ENDCHAR
STARTCHAR uni024C
ENCODING 588
SWIDTH 722 0
DWIDTH 27 0
BBX 26 27 0 0
BITMAP
0FFFE000
0FFFF800
0FFFFC00
0E003E00
0E000E00
0E000700
0E000700
0E000700
0E000700
0E000F00
0E000E00
0E003E00
FFFFFC00
FFFFF000
FFFF8000
0E078000
0E03C000
0E01E000
0E00E000
0E007000
0E003800
0E003C00
0E001E00
0E000E00
0E000700
0E000380
0E0003C0
ENDCHAR
STARTCHAR uni024D
ENCODING 589
SWIDTH 333 0
DWIDTH 13 0
BBX 12 20 0 0
BITMAP
39E0
3BF0
3FF0
3E00
3C00
3800
3800
3800
FF00
FF00
FF00
3800
3800
3800
3800
3800
3800
3800
3800
3800
ENDCHAR
STARTCHAR uni024E
ENCODING 590
SWIDTH 666 0
DWIDTH 25 0
BBX 24 27 1 0
BITMAP
F0000F
70001E
38001C
3C003C
FFFFFF
FFFFFF
FFFFFF
0701E0
0783C0
03C380
01C780
01EF00
00FE00
007C00
007C00
003800
003800
003800
003800
003800
003800
003800
003800
003800
003800
003800
003800
ENDCHAR
STARTCHAR uni024F
ENCODING 591
SWIDTH 500 0
DWIDTH 19 0
BBX 18 28 1 -8
BITMAP
E001C0
700380
700380
700780
380700
380700
FFFFC0
FFFFC0
FFFFC0
1E1C00
0E1C00
0E3C00
0F3800
073800
077000
03F000
03F000
03E000
01E000
01E000
01C000
01C000
038000
038000
070000
7F0000
7E0000
7C0000
ENDCHAR
STARTCHAR uni0250
ENCODING 592
SWIDTH 556 0
DWIDTH 21 0
BBX 18 20 2 0
BITMAP
E0FC00
63FF00
77FF80
7F07C0
7C01C0
7801C0
7001C0
7003C0
700F80
73FF00
7FFE00
7FF000
7C0000
700380
700780
700700
7C0F00
3FFE00
1FFC00
07F000
ENDCHAR
STARTCHAR uni0251
ENCODING 593
SWIDTH 556 0
DWIDTH 21 0
BBX 16 20 2 0
BITMAP
07C7
1FF7
3FF7
7C3F
781F
700F
F00F
E007
E007
E007
E007
E007
E007
F00F
700F
781F
3C3F
1FFF
0FF7
07C7
ENDCHAR
STARTCHAR uni0252
ENCODING 594
SWIDTH 556 0
DWIDTH 21 0
BBX 17 20 2 0
BITMAP
E3F000
E7FC00
EFFE00
FC1E00
F80F00
F00700
F00780
E00380
E00380
E00380
E00380
E00380
E00380
F00700
F00700
F80F00
FC1E00
FFFC00
EFF800
E3E000
ENDCHAR
STARTCHAR uni0253
ENCODING 595
SWIDTH 556 0
DWIDTH 21 0
BBX 17 27 2 0
BITMAP
3F0000
7F0000
7F0000
F00000
E00000
E00000
E00000
E3F000
EFF800
FFFE00
FC1E00
F80F00
F00700
F00780
E00380
E00380
E00380
E00380
E00380
E00380
F00780
F00700
F80F00
FC1E00
FFFC00
EFF800
E3E000
ENDCHAR
STARTCHAR uni0254
ENCODING 596
SWIDTH 500 0
DWIDTH 19 0
BBX 16 20 1 0
BITMAP
0FE0
1FF0
3FFC
783C
701E
E00E
E00F
0007
0007
0007
0007
0007
0007
E007
E00E
701E
783C
3FFC
1FF8
07E0
ENDCHAR
STARTCHAR uni0255
ENCODING 597
SWIDTH 500 0
DWIDTH 19 0
BBX 16 21 2 -1
BITMAP
03F0
0FF8
3FFC
3C1E
780E
700F
F007
E000
E000
E000
E0FC
E3FE
E7FF
FF87
7E07
7C07
3C1F
7FFE
7FFC
F3F0
6000
ENDCHAR
STARTCHAR uni0256
ENCODING 598
SWIDTH 556 0
DWIDTH 21 0
BBX 20 35 2 -8
BITMAP
000700
000700
000700
000700
000700
000700
000700
07C700
1FF700
3FFF00
3C3F00
781F00
700F00
F00F00
E00700
E00700
E00700
E00700
E00700
E00700
F00F00
700F00
781F00
3C3F00
3FFF00
0FF700
07C700
000700
000700
000700
000700
000780
0003F0
0003F0
0000F0
ENDCHAR
STARTCHAR uni0257
ENCODING 599
SWIDTH 556 0
DWIDTH 21 0
BBX 21 27 2 0
BITMAP
0001F8
0003F8
0003F8
000780
000700
000700
000700
07C700
1FF700
3FFF00
3C3F00
781F00
700F00
F00F00
E00700
E00700
E00700
E00700
E00700
E00700
F00F00
700F00
781F00
3C3F00
3FFF00
0FF700
07C700
ENDCHAR
STARTCHAR uni0258
ENCODING 600
SWIDTH 556 0
DWIDTH 21 0
BBX 17 20 2 0
BITMAP
07E000
1FF800
3FFC00
3C1E00
700F00
700700
E00380
E00380
FFFF80
FFFF80
FFFF80
000380
000380
E00780
F00700
700F00
7C1E00
3FFE00
1FF800
07E000
ENDCHAR
STARTCHAR uni0259
ENCODING 601
SWIDTH 556 0
DWIDTH 21 0
BBX 19 20 1 0
BITMAP
03F800
1FFE00
3FFF00
7C0F80
7803C0
F001C0
E001E0
0000E0
0000E0
FFFFE0
FFFFE0
FFFFE0
E000E0
E001C0
7001C0
7803C0
3C0F80
1FFF00
0FFE00
03F800
ENDCHAR
STARTCHAR uni025A
ENCODING 602
SWIDTH 738 0
DWIDTH 28 0
BBX 26 20 2 0
BITMAP
07F00000
1FFC0000
3FFE0000
7C1F0000
70078000
F0039000
E003F000
007FF000
0FFFF800
FFFDF8C0
FF81FFC0
F001DFC0
E001CF80
E003C000
70038000
78078000
3C0F0000
3FFE0000
0FFC0000
03F00000
ENDCHAR
STARTCHAR uni025B
ENCODING 603
SWIDTH 458 0
DWIDTH 17 0
BBX 14 20 2 0
BITMAP
0F80
1FE0
3FF0
78F0
7078
7038
7000
7800
3F80
1F80
7F80
7800
E000
E018
E03C
E03C
F878
7FF8
3FF0
0FC0
ENDCHAR
STARTCHAR uni025C
ENCODING 604
SWIDTH 458 0
DWIDTH 17 0
BBX 15 20 1 0
BITMAP
0FE0
1FF8
3FF8
783C
701C
701C
001C
003C
03F8
03F0
03F8
003C
001E
000E
E00E
F01E
F81E
7C7C
3FF8
1FF0
ENDCHAR
STARTCHAR uni025D
ENCODING 605
SWIDTH 631 0
DWIDTH 24 0
BBX 23 20 1 0
BITMAP
07E000
1FF000
3FF800
3C3F80
701F80
701F80
001F80
003FC6
03F9FE
03F1FE
03FC7C
003C00
000E00
000E00
E00E00
F01E00
783E00
7FFC00
3FF800
0FE000
ENDCHAR
STARTCHAR uni025E
ENCODING 606
SWIDTH 507 0
DWIDTH 19 0
BBX 17 20 1 0
BITMAP
03F000
0FFC00
1FFE00
3E0F00
780700
700700
F00700
E01E00
E1FE00
E1FC00
E1FE00
E00F00
E00380
F00380
700380
780780
3E0F80
1FFF00
0FFE00
03F800
ENDCHAR
STARTCHAR uni025F
ENCODING 607
SWIDTH 277 0
DWIDTH 11 0
BBX 12 28 -1 -8
BITMAP
0380
0380
0380
0380
0380
0380
0380
0380
0380
0380
0380
0380
0380
0380
0380
0380
0380
7FF0
7FF0
7FF0
0380
0380
0380
0380
0780
FF00
FF00
FC00
ENDCHAR
STARTCHAR uni0260
ENCODING 608
SWIDTH 556 0
DWIDTH 21 0
BBX 21 35 2 -8
BITMAP
0000F8
0003F8
0003F8
000780
000700
000700
000700
07C700
1FF700
3FFF00
3C3F00
781F00
700F00
F00F00
E00700
E00700
E00700
E00700
E00700
E00700
E00F00
700F00
781F00
3C3F00
3FFF00
1FF700
07C700
000700
000700
E00F00
E00E00
F83E00
7FFC00
3FF800
0FE000
ENDCHAR
STARTCHAR uni0261
ENCODING 609
SWIDTH 556 0
DWIDTH 21 0
BBX 16 28 2 -8
BITMAP
07C7
1FF7
3FFF
3C3F
781F
700F
E00F
E007
E007
E007
E007
E007
E007
E007
700F
781F
3C3F
3FFF
1FF7
07E7
0007
0007
E00F
F00E
F83E
7FFC
3FF8
0FE0
ENDCHAR
STARTCHAR uni0262
ENCODING 610
SWIDTH 558 0
DWIDTH 21 0
BBX 17 20 2 0
BITMAP
03F000
0FFC00
1FFE00
3C1F00
780700
700780
F00380
E00000
E00000
E00000
E0FF80
E0FF80
E0FF80
E00380
700380
780380
3C0F80
3FFF80
0FFE00
03F800
ENDCHAR
STARTCHAR uni0263
ENCODING 611
SWIDTH 500 0
DWIDTH 19 0
BBX 19 28 0 -8
BITMAP
E000E0
F001E0
7001C0
7803C0
380380
3C0380
1C0700
1E0700
0E0E00
0F0E00
071E00
079C00
03BC00
03F800
01F800
01F000
00F000
00F000
00F000
01F800
01F800
01F800
039C00
039C00
039C00
03F800
01F800
00F000
ENDCHAR
STARTCHAR uni0264
ENCODING 612
SWIDTH 616 0
DWIDTH 23 0
BBX 23 20 0 0
BITMAP
1F00F0
3F83F8
7FC3FC
F1E79E
61E70C
20E708
00FE00
007E00
003C00
003C00
003C00
003C00
007E00
007E00
00FF00
00E700
00E700
00FF00
007E00
003C00
ENDCHAR
STARTCHAR uni0265
ENCODING 613
SWIDTH 556 0
DWIDTH 21 0
BBX 15 28 3 -8
BITMAP
E00E
E00E
E00E
E00E
E00E
E00E
E00E
E00E
E00E
E00E
E00E
E00E
E00E
E00E
E01E
F01E
787E
7FFE
3FEE
1F8E
000E
000E
000E
000E
000E
000E
000E
000E
ENDCHAR
STARTCHAR uni0266
ENCODING 614
SWIDTH 556 0
DWIDTH 21 0
BBX 15 27 3 0
BITMAP
3F00
7F00
7F00
F000
E000
E000
E000
E3F0
EFF8
FFFC
FC3C
F01E
F00E
E00E
E00E
E00E
E00E
E00E
E00E
E00E
E00E
E00E
E00E
E00E
E00E
E00E
E00E
ENDCHAR
STARTCHAR uni0267
ENCODING 615
SWIDTH 556 0
DWIDTH 21 0
BBX 15 35 3 -8
BITMAP
3F00
7F00
7F00
F000
E000
E000
E000
E3F0
EFF8
FFFC
FC3C
F01E
F00E
E00E
E00E
E00E
E00E
E00E
E00E
E00E
E00E
E00E
E00E
E00E
E00E
E00E
E00E
000E
000E
000E
000E
001E
00FC
00FC
00F8
ENDCHAR
STARTCHAR uni0268
ENCODING 616
SWIDTH 222 0
DWIDTH 8 0
BBX 7 27 0 0
BITMAP
38
38
38
00
00
00
00
38
38
38
38
38
38
38
38
FE
FE
FE
38
38
38
38
38
38
38
38
38
ENDCHAR
STARTCHAR uni0269
ENCODING 617
SWIDTH 222 0
DWIDTH 8 0
BBX 6 20 2 0
BITMAP
E0
E0
E0
E0
E0
E0
E0
E0
E0
E0
E0
E0
E0
E0
E0
E0
F0
7C
7C
3C
ENDCHAR
STARTCHAR uni026A
ENCODING 618
SWIDTH 355 0
DWIDTH 14 0
BBX 11 20 1 0
BITMAP
FFE0
FFE0
FFE0
0E00
0E00
0E00
0E00
0E00
0E00
0E00
0E00
0E00
0E00
0E00
0E00
0E00
0E00
FFE0
FFE0
FFE0
ENDCHAR
STARTCHAR uni026B
ENCODING 619
SWIDTH 327 0
DWIDTH 12 0
BBX 12 27 0 0
BITMAP
0E00
0E00
0E00
0E00
0E00
0E00
0E00
0E00
0E00
0E00
0E00
0E00
3E30
7E70
CFE0
CFC0
0E00
0E00
0E00
0E00
0E00
0E00
0E00
0E00
0E00
0E00
0E00
ENDCHAR
STARTCHAR uni026C
ENCODING 620
SWIDTH 303 0
DWIDTH 12 0
BBX 12 27 0 0
BITMAP
0700
0700
0700
0700
0700
0700
0700
0700
3F00
7F00
E700
C700
C700
E700
7FF0
3FF0
0700
0700
0700
0700
0700
0700
0700
0700
0700
0700
0700
ENDCHAR
STARTCHAR uni026D
ENCODING 621
SWIDTH 222 0
DWIDTH 8 0
BBX 7 35 2 -8
BITMAP
E0
E0
E0
E0
E0
E0
E0
E0
E0
E0
E0
E0
E0
E0
E0
E0
E0
E0
E0
E0
E0
E0
E0
E0
E0
E0
E0
E0
E0
E0
E0
F0
7E
7E
3E
ENDCHAR
STARTCHAR uni026E
ENCODING 622
SWIDTH 571 0
DWIDTH 22 0
BBX 19 35 2 -8
BITMAP
E00000
E00000
E00000
E00000
E00000
E00000
E00000
FFFFC0
FFFFC0
FFFFC0
E00780
E00F00
E01E00
E03C00
E07800
E0F000
E1E000
E3F800
E3FE00
E3FF00
E00F80
E003C0
E001C0
E000E0
E000E0
E000E0
E000E0
0000E0
0001E0
E001C0
F003C0
7C0F80
3FFF00
1FFE00
07F800
ENDCHAR
STARTCHAR uni026F
ENCODING 623
SWIDTH 833 0
DWIDTH 32 0
BBX 27 20 2 0
BITMAP
E00E00E0
E00E00E0
E00E00E0
E00E00E0
E00E00E0
E00E00E0
E00E00E0
E00E00E0
E00E00E0
E00E00E0
E00E00E0
E00E00E0
E00E00E0
E00E00E0
E01E01E0
F01F01E0
F87787E0
7FF7FEE0
3FE3FEE0
1F81F8E0
ENDCHAR
STARTCHAR uni0270
ENCODING 624
SWIDTH 833 0
DWIDTH 32 0
BBX 27 28 2 -8
BITMAP
E00E00E0
E00E00E0
E00E00E0
E00E00E0
E00E00E0
E00E00E0
E00E00E0
E00E00E0
E00E00E0
E00E00E0
E00E00E0
E00E00E0
E00E00E0
E00E00E0
E01E01E0
F01F01E0
F87787E0
7FF7FEE0
3FE3FCE0
1F81F8E0
000000E0
000000E0
000000E0
000000E0
000000E0
000000E0
000000E0
000000E0
ENDCHAR
STARTCHAR uni0271
ENCODING 625
SWIDTH 833 0
DWIDTH 32 0
BBX 27 28 3 -8
BITMAP
E3F03F00
E7F8FF80
EFFDFFC0
FC3DC3E0
F01F01E0
F00F00E0
E00E00E0
E00E00E0
E00E00E0
E00E00E0
E00E00E0
E00E00E0
E00E00E0
E00E00E0
E00E00E0
E00E00E0
E00E00E0
E00E00E0
E00E00E0
E00E00E0
000000E0
000000E0
000000E0
000000E0
000001E0
00000FC0
00000FC0
00000F80
ENDCHAR
STARTCHAR uni0272
ENCODING 626
SWIDTH 556 0
DWIDTH 21 0
BBX 19 28 -1 -8
BITMAP
0E3F00
0E7F80
0EFFC0
0FC3C0
0F01E0
0F00E0
0E00E0
0E00E0
0E00E0
0E00E0
0E00E0
0E00E0
0E00E0
0E00E0
0E00E0
0E00E0
0E00E0
0E00E0
0E00E0
0E00E0
0E0000
0E0000
0E0000
0E0000
1E0000
FC0000
FC0000
F80000
ENDCHAR
STARTCHAR uni0273
ENCODING 627
SWIDTH 556 0
DWIDTH 21 0
BBX 19 28 3 -8
BITMAP
E3F000
E7F800
EFFC00
FC3C00
F01E00
F00E00
E00E00
E00E00
E00E00
E00E00
E00E00
E00E00
E00E00
E00E00
E00E00
E00E00
E00E00
E00E00
E00E00
E00E00
000E00
000E00
000E00
000E00
000F00
0007E0
0007E0
0003E0
ENDCHAR
STARTCHAR uni0274
ENCODING 628
SWIDTH 552 0
DWIDTH 21 0
BBX 15 20 3 0
BITMAP
E00E
F00E
F80E
F80E
FC0E
FC0E
EE0E
EF0E
E70E
E78E
E3CE
E1CE
E1EE
E0EE
E07E
E07E
E03E
E03E
E01E
E00E
ENDCHAR
STARTCHAR uni0275
ENCODING 629
SWIDTH 556 0
DWIDTH 21 0
BBX 17 20 2 0
BITMAP
07F000
0FF800
3FFE00
3C1E00
780F00
700700
E00380
E00380
FFFF80
FFFF80
FFFF80
E00380
E00380
E00780
700700
780F00
3C1E00
3FFE00
1FF800
07F000
ENDCHAR
STARTCHAR uni0276
ENCODING 630
SWIDTH 790 0
DWIDTH 30 0
BBX 27 20 2 0
BITMAP
03F1FFE0
0FFDFFE0
1FFFFFE0
3C0FC000
7807C000
7003C000
F003C000
E001C000
E001FFC0
E001FFC0
E001FFC0
E001C000
E001C000
F003C000
7003C000
7807C000
3C0FC000
1FFFFFE0
0FFDFFE0
03F1FFE0
ENDCHAR
STARTCHAR uni0277
ENCODING 631
SWIDTH 780 0
DWIDTH 30 0
BBX 26 20 2 0
BITMAP
007F8000
03FFF000
0FFFFC00
1F807E00
3E001F00
78000780
70000380
F00003C0
E00001C0
E01C01C0
E01C01C0
E01C01C0
E01C01C0
E01C01C0
F03E03C0
703E0380
78770780
3FF7FF00
1FE3FE00
0F80FC00
ENDCHAR
STARTCHAR uni0278
ENCODING 632
SWIDTH 549 0
DWIDTH 21 0
BBX 19 35 1 -8
BITMAP
00E000
00E000
00E000
00E000
00E000
00E000
00E000
03F800
0FFE00
1FFF00
3EEF80
78E3C0
70E1C0
F0E1E0
E0E0E0
E0E0E0
E0E0E0
E0E0E0
E0E0E0
E0E0E0
F0E1E0
70E1C0
78E3C0
3EEF80
1FFF00
0FFE00
03F800
00E000
00E000
00E000
00E000
00E000
00E000
00E000
00E000
ENDCHAR
STARTCHAR uni0279
ENCODING 633
SWIDTH 333 0
DWIDTH 13 0
BBX 11 20 -1 0
BITMAP
00E0
00E0
00E0
00E0
00E0
00E0
00E0
00E0
00E0
00E0
00E0
00E0
00E0
00E0
01E0
01E0
43E0
7FE0
FEE0
7CE0
ENDCHAR
STARTCHAR uni027A
ENCODING 634
SWIDTH 333 0
DWIDTH 13 0
BBX 11 27 -1 0
BITMAP
00E0
00E0
00E0
00E0
00E0
00E0
00E0
00E0
00E0
00E0
00E0
00E0
00E0
00E0
00E0
00E0
00E0
00E0
00E0
00E0
00E0
01E0
01E0
43E0
7FE0
FEE0
7CE0
ENDCHAR
STARTCHAR uni027B
ENCODING 635
SWIDTH 333 0
DWIDTH 13 0
BBX 15 28 -1 -8
BITMAP
00E0
00E0
00E0
00E0
00E0
00E0
00E0
00E0
00E0
00E0
00E0
00E0
00E0
00E0
01E0
01E0
43E0
7FE0
FEE0
7CE0
00E0
00E0
00E0
00E0
00F0
007E
007E
003E
ENDCHAR
STARTCHAR uni027C
ENCODING 636
SWIDTH 333 0
DWIDTH 13 0
BBX 12 28 2 -8
BITMAP
E3E0
EFF0
FFE0
F820
F000
F000
E000
E000
E000
E000
E000
E000
E000
E000
E000
E000
E000
E000
E000
E000
E000
E000
E000
E000
E000
E000
E000
E000
ENDCHAR
STARTCHAR uni027D
ENCODING 637
SWIDTH 333 0
DWIDTH 13 0
BBX 12 28 2 -8
BITMAP
E3E0
EFF0
FFE0
F820
F000
F000
E000
E000
E000
E000
E000
E000
E000
E000
E000
E000
E000
E000
E000
E000
E000
E000
E000
E000
F000
7E00
7E00
3E00
ENDCHAR
STARTCHAR uni027E
ENCODING 638
SWIDTH 333 0
DWIDTH 13 0
BBX 12 20 2 0
BITMAP
07E0
1FF0
3FE0
7820
7000
E000
E000
E000
E000
E000
E000
E000
E000
E000
E000
E000
E000
E000
E000
E000
ENDCHAR
STARTCHAR uni027F
ENCODING 639
SWIDTH 333 0
DWIDTH 13 0
BBX 12 28 -1 -8
BITMAP
7E00
FF80
7FC0
41E0
00E0
0070
0070
0070
0070
0070
0070
0070
0070
0070
0070
0070
0070
0070
0070
0070
0070
0070
0070
0070
0070
0070
0070
0070
ENDCHAR
STARTCHAR uni0280
ENCODING 640
SWIDTH 541 0
DWIDTH 21 0
BBX 17 20 3 0
BITMAP
FFF000
FFFC00
FFFE00
E01F00
E00700
E00700
E00700
E00F00
E01E00
FFFE00
FFF800
FFE000
E0F000
E07800
E03800
E01C00
E01E00
E00E00
E00700
E00780
ENDCHAR
STARTCHAR uni0281
ENCODING 641
SWIDTH 541 0
DWIDTH 21 0
BBX 17 20 3 0
BITMAP
E00780
E00700
E00E00
E01E00
E01C00
E03800
E07800
E0F000
FFE000
FFF800
FFFE00
E01E00
E00F00
E00700
E00700
E00700
E01F00
FFFE00
FFFC00
FFF000
ENDCHAR
STARTCHAR uni0282
ENCODING 642
SWIDTH 500 0
DWIDTH 19 0
BBX 17 28 1 -8
BITMAP
07F000
1FFC00
3FFE00
781E00
700F00
700700
700000
7E0000
3FE000
1FFC00
03FF00
007F00
000780
E00380
E00380
F00380
FC0F00
FFFF00
FFFC00
E7F000
E00000
E00000
E00000
E00000
F00000
7E0000
7E0000
3E0000
ENDCHAR
STARTCHAR uni0283
ENCODING 643
SWIDTH 222 0
DWIDTH 8 0
BBX 12 35 -2 -8
BITMAP
03F0
07F0
07F0
0F00
0E00
0E00
0E00
0E00
0E00
0E00
0E00
0E00
0E00
0E00
0E00
0E00
0E00
0E00
0E00
0E00
0E00
0E00
0E00
0E00
0E00
0E00
0E00
0E00
0E00
0E00
0E00
1E00
FC00
FC00
F800
ENDCHAR
STARTCHAR uni0284
ENCODING 644
SWIDTH 259 0
DWIDTH 10 0
BBX 13 35 -1 -8
BITMAP
01F8
03F8
07F8
0780
0700
0700
0700
0700
0700
0700
0700
0700
0700
0700
0700
0700
0700
0700
0700
0700
0700
0700
0700
0700
7FE0
7FE0
7FE0
0700
0700
0700
0700
0F00
FF00
FE00
FC00
ENDCHAR
STARTCHAR uni0285
ENCODING 645
SWIDTH 222 0
DWIDTH 8 0
BBX 12 28 -3 -8
BITMAP
FC00
FE00
FE00
0F00
0700
0700
0700
0700
0700
0700
0700
0700
0700
0700
0700
0700
0700
0700
0700
0700
0700
0700
0700
0700
0780
03F0
03F0
01F0
ENDCHAR
STARTCHAR uni0286
ENCODING 646
SWIDTH 349 0
DWIDTH 13 0
BBX 15 35 0 -8
BITMAP
007E
00FE
01FE
01E0
01C0
01C0
01C0
01C0
01C0
01C0
01C0
01C0
01C0
01C0
01C0
01C0
01C0
01C0
01C0
01C0
01C0
01C0
01C0
01C0
01C0
1FC0
7FC0
FFC0
F3E0
E1F0
E1F0
F3F8
FFBC
7F98
3E08
ENDCHAR
STARTCHAR uni0287
ENCODING 647
SWIDTH 277 0
DWIDTH 11 0
BBX 9 27 1 0
BITMAP
F800
FC00
FE00
0E00
0E00
0E00
0E00
0E00
0E00
0E00
0E00
0E00
0E00
0E00
0E00
0E00
0E00
7F80
7F80
7F80
0E00
0E00
0E00
0E00
0E00
0C00
0800
ENDCHAR
STARTCHAR uni0288
ENCODING 648
SWIDTH 277 0
DWIDTH 11 0
BBX 10 35 1 -8
BITMAP
0800
1800
3800
3800
3800
3800
3800
FFC0
FFC0
FFC0
3800
3800
3800
3800
3800
3800
3800
3800
3800
3800
3800
3800
3800
3800
3800
3800
3800
3800
3800
3800
3800
3C00
3FC0
1FC0
0FC0
ENDCHAR
STARTCHAR uni0289
ENCODING 649
SWIDTH 556 0
DWIDTH 21 0
BBX 20 20 0 0
BITMAP
3801C0
3801C0
3801C0
3801C0
3801C0
3801C0
3801C0
3801C0
FFFFF0
FFFFF0
FFFFF0
3801C0
3801C0
3801C0
3803C0
3C07C0
1E0FC0
1FFDC0
0FF9C0
03E1C0
ENDCHAR
STARTCHAR uni028A
ENCODING 650
SWIDTH 568 0
DWIDTH 22 0
BBX 18 20 2 0
BITMAP
F003C0
F807C0
FC0FC0
1C0E00
1C0E00
180600
380700
700380
600180
E001C0
E001C0
E001C0
E001C0
E003C0
700380
780780
3C0F00
3FFF00
0FFC00
03F000
ENDCHAR
STARTCHAR uni028B
ENCODING 651
SWIDTH 546 0
DWIDTH 21 0
BBX 16 20 3 0
BITMAP
E1F8
E1FE
E1FE
E00F
E007
E007
E007
E007
E007
E007
E007
E00F
E00E
E00E
E01E
F01C
787C
7FF8
3FF0
0FC0
ENDCHAR
STARTCHAR uni028C
ENCODING 652
SWIDTH 500 0
DWIDTH 19 0
BBX 19 20 0 0
BITMAP
00E000
01F000
01F000
03F800
03B800
03B800
079C00
071C00
071C00
0E0E00
0E0E00
1E0F00
1C0700
1C0700
380380
380380
7803C0
7001C0
7001C0
E000E0
ENDCHAR
STARTCHAR uni028D
ENCODING 653
SWIDTH 722 0
DWIDTH 27 0
BBX 27 20 0 0
BITMAP
03803800
03C07800
07C07C00
07C07C00
07C07C00
0EE0EE00
0EE0EE00
0E60CE00
1C71C700
1C71C700
1C71C700
1C318700
383B8380
383B8380
383B8380
701F01C0
701F01C0
701F01C0
E01F00E0
E00E00E0
ENDCHAR
STARTCHAR uni028E
ENCODING 654
SWIDTH 500 0
DWIDTH 19 0
BBX 19 27 0 0
BITMAP
003C00
003800
003800
007000
007000
007000
00E000
00E000
01F000
01F000
01F000
03B800
03B800
07BC00
071C00
071C00
0E0E00
0E0E00
1E0F00
1C0700
1C0700
380380
380380
7803C0
7001C0
7001C0
E000E0
ENDCHAR
STARTCHAR uni028F
ENCODING 655
SWIDTH 519 0
DWIDTH 20 0
BBX 20 20 0 0
BITMAP
E00070
7000E0
3801C0
3C0380
1C0780
0E0700
0F0E00
079C00
03B800
01F800
01F000
00E000
00E000
00E000
00E000
00E000
00E000
00E000
00E000
00E000
ENDCHAR
STARTCHAR uni0290
ENCODING 656
SWIDTH 500 0
DWIDTH 19 0
BBX 21 28 1 -8
BITMAP
7FFF00
7FFF00
7FFF00
001E00
003C00
007800
007000
00F000
01E000
03C000
078000
0F0000
0E0000
1E0000
3C0000
780000
F00000
FFFF80
FFFF80
FFFF80
000380
000380
000380
000380
000380
0003F8
0001F8
0000F8
ENDCHAR
STARTCHAR uni0291
ENCODING 657
SWIDTH 541 0
DWIDTH 21 0
BBX 19 23 1 -3
BITMAP
7FFF80
7FFF80
7FFF80
000F00
001E00
003C00
007800
00F000
00E000
01C000
038000
078F80
0F1FC0
1E3FE0
3C78E0
78F0E0
F0E0E0
FFFFE0
FFFFC0
FFFF80
070000
070000
030000
ENDCHAR
STARTCHAR uni0292
ENCODING 658
SWIDTH 544 0
DWIDTH 21 0
BBX 19 28 1 -8
BITMAP
7FFFC0
7FFFC0
7FFFC0
000F80
001E00
003C00
007800
00F000
01E000
01F800
01FE00
01FF80
000F80
0003C0
0001C0
0001E0
0000E0
0000E0
0000E0
0000E0
E000E0
E001C0
F001C0
7803C0
7E0F80
3FFF00
0FFE00
03F000
ENDCHAR
STARTCHAR uni0293
ENCODING 659
SWIDTH 544 0
DWIDTH 21 0
BBX 19 28 2 -8
BITMAP
FFFF80
FFFF80
FFFF80
001F00
003E00
007C00
00F000
01E000
03C000
03F000
03FC00
03FF00
001F00
000780
000380
0003C0
0001C0
0001C0
0FC1C0
3FF9C0
3FFFC0
787F80
700F80
700F80
7C1FC0
3FFFE0
1FFCC0
07F040
ENDCHAR
STARTCHAR uni0294
ENCODING 660
SWIDTH 500 0
DWIDTH 19 0
BBX 17 27 1 0
BITMAP
07E000
1FF800
3FFC00
7C1E00
700F00
F00700
E00780
000380
000380
000380
000380
000380
000380
000780
000700
000F00
001E00
01FE00
01FC00
01F000
01C000
01C000
01C000
01C000
01C000
01C000
01C000
ENDCHAR
STARTCHAR uni0295
ENCODING 661
SWIDTH 500 0
DWIDTH 19 0
BBX 17 27 1 0
BITMAP
03F000
0FFC00
1FFE00
3C1F00
780700
700780
F00380
E00000
E00000
E00000
E00000
E00000
E00000
E00000
700000
780000
3C0000
3FC000
1FC000
07C000
01C000
01C000
01C000
01C000
01C000
01C000
01C000
ENDCHAR
STARTCHAR uni0296
ENCODING 662
SWIDTH 500 0
DWIDTH 19 0
BBX 17 27 1 0
BITMAP
01C000
01C000
01C000
01C000
01C000
01C000
01C000
01F000
01FC00
01FE00
001E00
000F00
000700
000380
000380
000380
000380
000380
000380
000380
E00780
F00700
700F00
7C1E00
3FFC00
1FF800
07E000
ENDCHAR
STARTCHAR uni0297
ENCODING 663
SWIDTH 500 0
DWIDTH 19 0
BBX 17 28 1 -8
BITMAP
03F000
0FFC00
1FFE00
3C1F00
780700
700780
F00380
E00000
E00000
E00000
E00000
E00000
E00000
E00000
E00000
E00000
E00000
E00000
E00000
E00000
E00380
F00380
700700
780700
3C1F00
1FFE00
0FFC00
03F000
ENDCHAR
STARTCHAR uni0298
ENCODING 664
SWIDTH 777 0
DWIDTH 30 0
BBX 26 27 2 0
BITMAP
007F8000
03FFE000
07FFF800
0F80FC00
1E001E00
3C000F00
38000700
70000380
70000380
F00003C0
E00001C0
E00001C0
E01C01C0
E01C01C0
E01C01C0
E00001C0
E00001C0
F00003C0
70000380
70000380
38000700
3C000F00
1E001E00
0FC07C00
07FFF800
01FFE000
007F8000
ENDCHAR
STARTCHAR uni0299
ENCODING 665
SWIDTH 531 0
DWIDTH 20 0
BBX 16 20 3 0
BITMAP
FF80
FFF8
FFFC
E03C
E01E
E01E
E01E
E01C
E0FC
FFF8
FFFC
E07E
E00E
E00F
E00F
E00F
E01E
FFFE
FFFC
FFF0
ENDCHAR
STARTCHAR uni029A
ENCODING 666
SWIDTH 507 0
DWIDTH 19 0
BBX 17 20 1 0
BITMAP
07E000
1FF800
3FFC00
783E00
700F00
700700
700780
3C0380
3FC380
1FC380
7FC380
780380
F00380
E00780
E00700
F00F00
F83E00
7FFC00
3FF800
0FE000
ENDCHAR
STARTCHAR uni029B
ENCODING 667
SWIDTH 558 0
DWIDTH 21 0
BBX 22 23 1 0
BITMAP
0000FC
0001FC
0003FC
03FBC0
0FFF80
1FFF80
3C1F80
780780
700780
F00380
E00000
E00000
E00000
E0FF80
E0FF80
E0FF80
E00380
700380
780380
3C0F80
3FFF80
0FFE00
03F800
ENDCHAR
STARTCHAR uni029C
ENCODING 668
SWIDTH 552 0
DWIDTH 21 0
BBX 15 20 3 0
BITMAP
E00E
E00E
E00E
E00E
E00E
E00E
E00E
E00E
FFFE
FFFE
FFFE
E00E
E00E
E00E
E00E
E00E
E00E
E00E
E00E
E00E
ENDCHAR
STARTCHAR uni029D
ENCODING 669
SWIDTH 397 0
DWIDTH 15 0
BBX 15 35 0 -8
BITMAP
0070
0070
0070
0000
0000
0000
0000
0070
0070
0070
0070
0070
0070
0070
0070
0070
0070
0070
0070
0070
0070
0070
0070
0070
0070
1FFE
7FFE
FFFE
F070
E070
E0F0
F1E0
7FE0
7FC0
1F00
ENDCHAR
STARTCHAR uni029E
ENCODING 670
SWIDTH 500 0
DWIDTH 19 0
BBX 16 28 0 -8
BITMAP
F007
7007
3807
3C07
1C07
0E07
0F07
0707
038F
03DF
01FF
00FF
00F7
01E7
03C7
0787
0F07
1E07
3C07
7807
0007
0007
0007
0007
0007
0007
0007
0007
ENDCHAR
STARTCHAR uni029F
ENCODING 671
SWIDTH 403 0
DWIDTH 15 0
BBX 11 20 3 0
BITMAP
E000
E000
E000
E000
E000
E000
E000
E000
E000
E000
E000
E000
E000
E000
E000
E000
E000
FFE0
FFE0
FFE0
ENDCHAR
STARTCHAR uni02A0
ENCODING 672
SWIDTH 556 0
DWIDTH 21 0
BBX 21 35 2 -8
BITMAP
0001F8
0003F8
0003F8
000780
000700
000700
000700
07C700
1FF700
3FFF00
3C3F00
781F00
700F00
F00F00
E00700
E00700
E00700
E00700
E00700
E00700
F00F00
700F00
781F00
3C3F00
1FFF00
0FF700
07C700
000700
000700
000700
000700
000700
000700
000700
000700
ENDCHAR
STARTCHAR uni02A1
ENCODING 673
SWIDTH 500 0
DWIDTH 19 0
BBX 17 27 1 0
BITMAP
07E000
1FF800
3FFC00
7C1E00
700F00
F00700
E00780
000380
000380
000380
000380
000380
000380
000780
000700
000F00
001E00
01FE00
01FC00
01F000
01C000
FFFF00
FFFF00
FFFF00
01C000
01C000
01C000
ENDCHAR
STARTCHAR uni02A2
ENCODING 674
SWIDTH 500 0
DWIDTH 19 0
BBX 17 27 1 0
BITMAP
03F000
0FFC00
1FFE00
3C1F00
780700
700780
F00380
E00000
E00000
E00000
E00000
E00000
E00000
E00000
700000
780000
3C0000
3FC000
1FC000
07C000
01C000
7FFF80
7FFF80
7FFF80
01C000
01C000
01C000
ENDCHAR
STARTCHAR uni02A3
ENCODING 675
SWIDTH 964 0
DWIDTH 37 0
BBX 34 27 2 0
BITMAP
0003800000
0003800000
0003800000
0003800000
0003800000
0003800000
0003800000
03E3FFFF80
0FFBFFFF80
3FFFFFFF80
3C1F800F00
780F801E00
7007803C00
F007803800
E003807000
E00380F000
E00381E000
E00383C000
E003838000
E003870000
F0078F0000
70079E0000
780FBC0000
3C1FF80000
1FFFFFFFC0
0FFBFFFFC0
03E3FFFFC0
ENDCHAR
STARTCHAR uni02A4
ENCODING 676
SWIDTH 906 0
DWIDTH 34 0
BBX 32 35 1 -8
BITMAP
00038000
00038000
00038000
00038000
00038000
00038000
00038000
03E3FFFE
0FFBFFFE
3FFFFFFE
3C1F803C
780F8078
700780F0
F00781E0
E00383C0
E0038780
E0038FE0
E0038FF8
E0038FFC
E003807C
F007801E
7007800E
780F800F
3C1F8007
1FFF8007
0FFB8007
03E38007
00000007
0000000E
0003800E
0003C01E
0001F07C
0000FFF8
00007FF0
00001FC0
ENDCHAR
STARTCHAR uni02A5
ENCODING 677
SWIDTH 1005 0
DWIDTH 38 0
BBX 35 30 2 -3
BITMAP
0003800000
0003800000
0003800000
0003800000
0003800000
0003800000
0003800000
03E3FFFF80
0FFBFFFF80
3FFFFFFF80
3C1F800F00
780F801E00
7007803C00
F007803800
E003807000
E00380F000
E00381E000
E00383C000
E003838780
E003871FC0
F0078F3FE0
70079E78E0
780FBC70E0
3C1FF8E0E0
1FFFFFFFE0
0FFBFFFFC0
03E3FFFF80
0000038000
0000038000
0000010000
ENDCHAR
STARTCHAR uni02A6
ENCODING 678
SWIDTH 712 0
DWIDTH 27 0
BBX 25 27 1 0
BITMAP
08000000
18000000
38000000
38000000
38000000
38000000
38000000
FFFFF000
FFFFFC00
FFFFFE00
38381E00
38700F00
38700700
38700000
387C0000
383FC000
381FF800
3807FE00
3800FF00
38000F80
38000380
38000380
38000380
3C000F80
3FFFFF00
1FFFFE00
0FFFF800
ENDCHAR
STARTCHAR uni02A7
ENCODING 679
SWIDTH 429 0
DWIDTH 16 0
BBX 17 35 1 -8
BITMAP
081F80
183F80
387F80
387800
387000
387000
387000
FFF000
FFF000
FFF000
387000
387000
387000
387000
387000
387000
387000
387000
387000
387000
387000
387000
387000
387000
3FF000
1FF000
0FF000
007000
007000
007000
007000
00F000
07E000
07E000
07C000
ENDCHAR
STARTCHAR uni02A8
ENCODING 680
SWIDTH 718 0
DWIDTH 27 0
BBX 25 27 1 0
BITMAP
08000000
18000000
38000000
38000000
38000000
38000000
38000000
FF03F000
FF0FFC00
FF1FFE00
383C1F00
38780700
38700780
38F00380
38E00000
38E00000
38E00000
38E07C00
38E3FF00
38E7FF80
38FF8780
387E0380
38780380
38FC0F80
3FFFFF00
1FCFFE00
0F03F800
ENDCHAR
STARTCHAR uni02A9
ENCODING 681
SWIDTH 763 0
DWIDTH 29 0
BBX 27 35 0 -8
BITMAP
07E00000
0FE00000
1FE00000
1E000000
1C000000
1C000000
1C000000
FFFC7E00
FFFDFF80
FFFFFFC0
1C1F83C0
1C1F01E0
1C1E00E0
1C1C00E0
1C1C00E0
1C1C00E0
1C1C00E0
1C1C00E0
1C1C00E0
1C1C00E0
1C1C00E0
1C1C00E0
1C1C00E0
1C1C00E0
1C1C00E0
1C1C00E0
1C1C00E0
000000E0
000000E0
000000E0
000000E0
000001E0
00000FC0
00000FC0
00000F80
ENDCHAR
STARTCHAR uni02AA
ENCODING 682
SWIDTH 661 0
DWIDTH 25 0
BBX 21 27 3 0
BITMAP
E00000
E00000
E00000
E00000
E00000
E00000
E00000
E07F00
E1FFC0
E3FFE0
E781E0
E700F0
E70070
E70000
E7E000
E3FE00
E1FFC0
E03FF0
E007F0
E00078
E00038
F00038
F80078
FF00F0
FFFFF0
EFFFC0
E1FF00
ENDCHAR
STARTCHAR uni02AB
ENCODING 683
SWIDTH 632 0
DWIDTH 24 0
BBX 21 27 2 0
BITMAP
E00000
E00000
E00000
E00000
E00000
E00000
E00000
FFFFF0
FFFFF0
FFFFF0
E001E0
E003C0
E00780
E00F00
E01E00
E01C00
E03800
E07800
E0F000
E1E000
E3C000
E78000
EF0000
FE0000
FFFFF8
FFFFF8
FFFFF8
ENDCHAR
STARTCHAR uni02AC
ENCODING 684
SWIDTH 485 0
DWIDTH 18 0
BBX 16 27 1 0
BITMAP
C183
E187
61C6
63C6
63C6
6266
366E
366C
366C
3C3C
3C3C
1C38
1818
0000
C183
E187
61C6
63C6
63C6
6266
366E
366C
366C
3C3C
3C3C
1C38
1818
ENDCHAR
STARTCHAR uni02AD
ENCODING 685
SWIDTH 527 0
DWIDTH 20 0
BBX 16 27 2 0
BITMAP
FFFF
FFFF
FFFF
E007
E007
E007
E007
E007
E007
0000
0000
0000
0000
0000
0000
0000
0000
0000
FFFF
FFFF
FFFF
E007
E007
E007
E007
E007
E007
ENDCHAR
STARTCHAR uni02AE
ENCODING 686
SWIDTH 687 0
DWIDTH 26 0
BBX 23 28 0 -8
BITMAP
7C000E
FF000E
7F800E
47800E
03C00E
01C00E
01C00E
01C00E
01C00E
01C00E
01C00E
01C00E
01C00E
01C00E
01C01E
01E03E
00F07E
00FFFE
007FEE
001F8E
00000E
00000E
00000E
00000E
00000E
00000E
00000E
00000E
ENDCHAR
STARTCHAR uni02AF
ENCODING 687
SWIDTH 687 0
DWIDTH 26 0
BBX 30 28 0 -8
BITMAP
7C000E00
FF000E00
7F800E00
47800E00
03C00E00
01C00E00
01C00E00
01C00E00
01C00E00
01C00E00
01C00E00
01C00E00
01C00E00
01C00E00
01C01E00
01E03E00
00F07E00
00FFFE00
007FEE00
001F8E00
00000E00
00000E00
00000E00
00000700
00000788
000003F8
000003FC
000000F8
ENDCHAR
STARTCHAR uni02B0
ENCODING 688
SWIDTH 383 0
DWIDTH 15 0
BBX 11 18 2 9
BITMAP
C000
C000
C000
C000
C000
CF80
DFC0
F0E0
E060
C060
C060
C060
C060
C060
C060
C060
C060
C060
ENDCHAR
STARTCHAR uni02B1
ENCODING 689
SWIDTH 383 0
DWIDTH 15 0
BBX 11 18 2 9
BITMAP
3C00
7C00
C000
C000
C000
CF80
DFC0
F0E0
E060
C060
C060
C060
C060
C060
C060
C060
C060
C060
ENDCHAR
STARTCHAR uni02B2
ENCODING 690
SWIDTH 159 0
DWIDTH 6 0
BBX 5 24 -1 3
BITMAP
18
18
18
00
00
18
18
18
18
18
18
18
18
18
18
18
18
18
18
18
18
18
F0
E0
ENDCHAR
STARTCHAR uni02B3
ENCODING 691
SWIDTH 239 0
DWIDTH 9 0
BBX 7 13 2 9
BITMAP
DE
FE
E0
C0
C0
C0
C0
C0
C0
C0
C0
C0
C0
ENDCHAR
STARTCHAR uni02B4
ENCODING 692
SWIDTH 239 0
DWIDTH 9 0
BBX 7 13 0 9
BITMAP
06
06
06
06
06
06
06
06
06
06
0E
FE
F6
ENDCHAR
STARTCHAR uni02B5
ENCODING 693
SWIDTH 239 0
DWIDTH 9 0
BBX 10 19 0 3
BITMAP
0600
0600
0600
0600
0600
0600
0600
0600
0600
0600
0E00
FE00
F600
0600
0600
0600
0600
03C0
03C0
ENDCHAR
STARTCHAR uni02B6
ENCODING 694
SWIDTH 364 0
DWIDTH 14 0
BBX 12 13 2 9
BITMAP
C030
C060
C0C0
C180
C300
FF00
FFC0
C0E0
C060
C060
C0E0
FFC0
FF80
ENDCHAR
STARTCHAR uni02B7
ENCODING 695
SWIDTH 480 0
DWIDTH 18 0
BBX 18 13 0 9
BITMAP
C0C0C0
E0C1C0
61E180
61E180
71E380
333300
333300
333300
1A1600
1E1E00
1E1E00
0E1C00
0C0C00
ENDCHAR
STARTCHAR uni02B8
ENCODING 696
SWIDTH 320 0
DWIDTH 12 0
BBX 12 19 0 3
BITMAP
C030
6060
6060
6060
30C0
30C0
30C0
1980
1980
1980
0F00
0F00
0700
0600
0600
0C00
0C00
7800
7000
ENDCHAR
STARTCHAR uni02B9
ENCODING 697
SWIDTH 190 0
DWIDTH 7 0
BBX 3 10 2 17
BITMAP
E0
E0
E0
E0
E0
E0
E0
E0
E0
40
ENDCHAR
STARTCHAR uni02BA
ENCODING 698
SWIDTH 354 0
DWIDTH 13 0
BBX 10 10 1 17
BITMAP
E1C0
E1C0
E1C0
E1C0
E1C0
E1C0
E1C0
E1C0
40C0
4080
ENDCHAR
STARTCHAR uni02BB
ENCODING 699
SWIDTH 222 0
DWIDTH 8 0
BBX 3 9 2 18
BITMAP
60
60
C0
C0
C0
C0
E0
E0
E0
ENDCHAR
STARTCHAR uni02BC
ENCODING 700
SWIDTH 222 0
DWIDTH 8 0
BBX 3 9 2 18
BITMAP
E0
E0
E0
60
60
60
60
C0
C0
ENDCHAR
STARTCHAR uni02BD
ENCODING 701
SWIDTH 222 0
DWIDTH 8 0
BBX 3 9 3 18
BITMAP
E0
E0
E0
C0
C0
C0
C0
60
60
ENDCHAR
STARTCHAR uni02BE
ENCODING 702
SWIDTH 333 0
DWIDTH 13 0
BBX 4 7 4 22
BITMAP
C0
20
10
10
10
20
C0
ENDCHAR
STARTCHAR uni02BF
ENCODING 703
SWIDTH 333 0
DWIDTH 13 0
BBX 4 7 5 22
BITMAP
30
40
80
80
80
40
30
ENDCHAR
STARTCHAR uni02C0
ENCODING 704
SWIDTH 348 0
DWIDTH 13 0
BBX 11 18 1 9
BITMAP
1F00
7F80
61C0
C0C0
C060
0060
0060
0060
0060
00C0
01C0
0F80
0F00
0C00
0C00
0C00
0C00
0C00
ENDCHAR
STARTCHAR uni02C1
ENCODING 705
SWIDTH 348 0
DWIDTH 13 0
BBX 11 18 1 9
BITMAP
1F00
3FC0
70C0
E060
C060
C000
C000
C000
C000
E000
6000
3E00
1E00
0600
0600
0600
0600
0600
ENDCHAR
STARTCHAR uni02C2
ENCODING 706
SWIDTH 583 0
DWIDTH 22 0
BBX 18 19 2 4
BITMAP
000040
0001C0
000FC0
003F80
00FE00
03F000
1FC000
7F0000
F80000
E00000
F80000
7F0000
1FC000
03F000
00FE00
003F80
000FC0
0001C0
000040
ENDCHAR
STARTCHAR uni02C3
ENCODING 707
SWIDTH 583 0
DWIDTH 22 0
BBX 18 19 2 4
BITMAP
800000
E00000
FC0000
7F0000
1FC000
03F000
00FE00
003F80
0007C0
0001C0
0007C0
003F80
00FE00
03F000
1FC000
7F0000
FC0000
E00000
800000
ENDCHAR
STARTCHAR uni02C4
ENCODING 708
SWIDTH 583 0
DWIDTH 22 0
BBX 19 18 1 4
BITMAP
00E000
01F000
01F000
03B800
03B800
031800
071C00
071C00
0E0E00
0E0E00
1C0700
1C0700
380380
380380
380380
7001C0
7001C0
E000E0
ENDCHAR
STARTCHAR uni02C5
ENCODING 709
SWIDTH 583 0
DWIDTH 22 0
BBX 19 18 1 4
BITMAP
E000E0
7001C0
7001C0
380380
380380
380380
1C0700
1C0700
0E0E00
0E0E00
071C00
071C00
031800
03B800
03B800
01F000
01F000
00E000
ENDCHAR
STARTCHAR circumflex
ENCODING 710
SWIDTH 333 0
DWIDTH 13 0
BBX 10 5 1 22
BITMAP
1E00
3F00
7F80
7380
E1C0
ENDCHAR
STARTCHAR caron
ENCODING 711
SWIDTH 333 0
DWIDTH 13 0
BBX 10 5 1 22
BITMAP
E1C0
7380
7F80
3F00
1E00
ENDCHAR
STARTCHAR uni02C8
ENCODING 712
SWIDTH 333 0
DWIDTH 13 0
BBX 2 6 6 22
BITMAP
C0
C0
C0
C0
C0
C0
ENDCHAR
STARTCHAR uni02C9
ENCODING 713
SWIDTH 333 0
DWIDTH 13 0
BBX 12 3 0 23
BITMAP
FFF0
FFF0
FFF0
ENDCHAR
STARTCHAR uni02CA
ENCODING 714
SWIDTH 333 0
DWIDTH 13 0
BBX 7 5 4 22
BITMAP
1E
3C
78
70
E0
ENDCHAR
STARTCHAR uni02CB
ENCODING 715
SWIDTH 333 0
DWIDTH 13 0
BBX 7 5 2 22
BITMAP
F0
78
38
1C
0E
ENDCHAR
STARTCHAR uni02CC
ENCODING 716
SWIDTH 333 0
DWIDTH 13 0
BBX 2 7 6 -8
BITMAP
C0
C0
C0
C0
C0
C0
C0
ENDCHAR
STARTCHAR uni02CD
ENCODING 717
SWIDTH 333 0
DWIDTH 13 0
BBX 11 3 1 -6
BITMAP
FFE0
FFE0
FFE0
ENDCHAR
STARTCHAR uni02CE
ENCODING 718
SWIDTH 333 0
DWIDTH 13 0
BBX 7 5 2 -8
BITMAP
F0
78
38
1C
0E
ENDCHAR
STARTCHAR uni02CF
ENCODING 719
SWIDTH 333 0
DWIDTH 13 0
BBX 7 5 4 -8
BITMAP
1E
3C
78
70
E0
ENDCHAR
STARTCHAR uni02D0
ENCODING 720
SWIDTH 277 0
DWIDTH 11 0
BBX 3 20 4 0
BITMAP
E0
40
40
00
00
00
00
00
00
00
00
00
00
00
00
00
00
40
40
E0
ENDCHAR
STARTCHAR uni02D1
ENCODING 721
SWIDTH 277 0
DWIDTH 11 0
BBX 3 3 4 17
BITMAP
E0
40
40
ENDCHAR
STARTCHAR uni02D2
ENCODING 722
SWIDTH 333 0
DWIDTH 13 0
BBX 4 7 4 2
BITMAP
C0
20
10
10
10
20
C0
ENDCHAR
STARTCHAR uni02D3
ENCODING 723
SWIDTH 333 0
DWIDTH 13 0
BBX 4 7 5 2
BITMAP
30
40
80
80
80
40
30
ENDCHAR
STARTCHAR uni02D4
ENCODING 724
SWIDTH 333 0
DWIDTH 13 0
BBX 6 6 3 3
BITMAP
30
30
30
30
FC
FC
ENDCHAR
STARTCHAR uni02D5
ENCODING 725
SWIDTH 333 0
DWIDTH 13 0
BBX 6 6 3 3
BITMAP
FC
FC
30
30
30
30
ENDCHAR
STARTCHAR uni02D6
ENCODING 726
SWIDTH 333 0
DWIDTH 13 0
BBX 6 6 3 3
BITMAP
30
30
FC
FC
30
30
ENDCHAR
STARTCHAR uni02D7
ENCODING 727
SWIDTH 333 0
DWIDTH 13 0
BBX 11 3 1 5
BITMAP
FFE0
FFE0
FFE0
ENDCHAR
STARTCHAR breve
ENCODING 728
SWIDTH 333 0
DWIDTH 13 0
BBX 11 5 0 22
BITMAP
C060
E0E0
60C0
7FC0
1F00
ENDCHAR
STARTCHAR dotaccent
ENCODING 729
SWIDTH 333 0
DWIDTH 13 0
BBX 3 3 4 23
BITMAP
E0
E0
E0
ENDCHAR
STARTCHAR ring
ENCODING 730
SWIDTH 333 0
DWIDTH 13 0
BBX 7 7 3 20
BITMAP
38
44
82
82
82
44
38
ENDCHAR
STARTCHAR ogonek
ENCODING 731
SWIDTH 333 0
DWIDTH 13 0
BBX 6 8 2 -8
BITMAP
30
60
C0
C0
C0
E0
FC
3C
ENDCHAR
STARTCHAR tilde
ENCODING 732
SWIDTH 333 0
DWIDTH 11 0
BBX 11 5 0 22
BITMAP
38E0
7CE0
FFE0
E7C0
E380
ENDCHAR
STARTCHAR hungarumlaut
ENCODING 733
SWIDTH 333 0
DWIDTH 13 0
BBX 11 5 1 22
BITMAP
38E0
71C0
71C0
6180
C300
ENDCHAR
STARTCHAR uni02DE
ENCODING 734
SWIDTH 333 0
DWIDTH 13 0
BBX 10 8 0 7
BITMAP
F000
F000
F000
3800
38C0
1FC0
1FC0
0F80
ENDCHAR
STARTCHAR uni02DF
ENCODING 735
SWIDTH 333 0
DWIDTH 13 0
BBX 13 13 0 14
BITMAP
4010
E038
7070
38E0
1DC0
0F80
0700
0F80
1DC0
38E0
7070
E038
4010
ENDCHAR
STARTCHAR uni02E0
ENCODING 736
SWIDTH 322 0
DWIDTH 12 0
BBX 12 19 0 3
BITMAP
C030
6060
6060
30C0
30C0
39C0
1980
1980
0F00
0F00
0600
0600
0F00
0F00
0F00
1980
1980
1F80
0F00
ENDCHAR
STARTCHAR uni02E1
ENCODING 737
SWIDTH 157 0
DWIDTH 6 0
BBX 2 18 2 9
BITMAP
C0
C0
C0
C0
C0
C0
C0
C0
C0
C0
C0
C0
C0
C0
C0
C0
C0
C0
ENDCHAR
STARTCHAR uni02E2
ENCODING 738
SWIDTH 339 0
DWIDTH 13 0
BBX 11 13 1 9
BITMAP
3F00
7F80
E1C0
C0C0
E000
7E00
3FC0
03E0
C060
E060
70E0
7FC0
1F00
ENDCHAR
STARTCHAR uni02E3
ENCODING 739
SWIDTH 328 0
DWIDTH 12 0
BBX 12 13 0 9
BITMAP
E070
6060
30C0
1980
1F80
0F00
0600
0F00
1F80
1980
30C0
6060
E070
ENDCHAR
STARTCHAR uni02E4
ENCODING 740
SWIDTH 348 0
DWIDTH 13 0
BBX 11 18 1 9
BITMAP
1F00
3FC0
70C0
E060
C060
C000
C000
C000
C000
E000
6000
3E00
1E00
0600
0600
0600
0600
0600
ENDCHAR
STARTCHAR uni02E5
ENCODING 741
SWIDTH 382 0
DWIDTH 15 0
BBX 9 27 3 0
BITMAP
FF80
FF80
FF80
0380
0380
0380
0380
0380
0380
0380
0380
0380
0380
0380
0380
0380
0380
0380
0380
0380
0380
0380
0380
0380
0380
0380
0380
ENDCHAR
STARTCHAR uni02E6
ENCODING 742
SWIDTH 382 0
DWIDTH 15 0
BBX 9 27 3 0
BITMAP
0380
0380
0380
0380
0380
0380
FF80
FF80
FF80
0380
0380
0380
0380
0380
0380
0380
0380
0380
0380
0380
0380
0380
0380
0380
0380
0380
0380
ENDCHAR
STARTCHAR uni02E7
ENCODING 743
SWIDTH 382 0
DWIDTH 15 0
BBX 9 27 3 0
BITMAP
0380
0380
0380
0380
0380
0380
0380
0380
0380
0380
0380
0380
FF80
FF80
FF80
0380
0380
0380
0380
0380
0380
0380
0380
0380
0380
0380
0380
ENDCHAR
STARTCHAR uni02E8
ENCODING 744
SWIDTH 382 0
DWIDTH 15 0
BBX 9 27 3 0
BITMAP
0380
0380
0380
0380
0380
0380
0380
0380
0380
0380
0380
0380
0380
0380
0380
0380
0380
0380
FF80
FF80
FF80
0380
0380
0380
0380
0380
0380
ENDCHAR
STARTCHAR uni02E9
ENCODING 745
SWIDTH 382 0
DWIDTH 15 0
BBX 9 27 3 0
BITMAP
0380
0380
0380
0380
0380
0380
0380
0380
0380
0380
0380
0380
0380
0380
0380
0380
0380
0380
0380
0380
0380
0380
0380
0380
FF80
FF80
FF80
ENDCHAR
STARTCHAR uni02EA
ENCODING 746
SWIDTH 333 0
DWIDTH 13 0
BBX 9 16 2 0
BITMAP
C000
C000
C000
C000
C000
C000
C000
C000
C000
C000
C000
C000
C000
C000
FF80
FF80
ENDCHAR
STARTCHAR uni02EB
ENCODING 747
SWIDTH 333 0
DWIDTH 13 0
BBX 9 16 2 0
BITMAP
C000
C000
C000
C000
C000
C000
C000
FF80
FF80
C000
C000
C000
C000
C000
C000
C000
ENDCHAR
STARTCHAR uni02EC
ENCODING 748
SWIDTH 333 0
DWIDTH 13 0
BBX 10 5 1 -8
BITMAP
E1C0
7380
7F80
3F00
1E00
ENDCHAR
STARTCHAR uni02ED
ENCODING 749
SWIDTH 333 0
DWIDTH 13 0
BBX 11 7 1 22
BITMAP
FFE0
FFE0
FFE0
0000
FFE0
FFE0
FFE0
ENDCHAR
STARTCHAR uni02EE
ENCODING 750
SWIDTH 333 0
DWIDTH 13 0
BBX 8 9 2 18
BITMAP
E7
E7
E7
63
63
63
63
C6
C6
ENDCHAR
STARTCHAR uni02EF
ENCODING 751
SWIDTH 333 0
DWIDTH 13 0
BBX 8 5 3 -6
BITMAP
C3
66
3C
3C
18
ENDCHAR
STARTCHAR uni02F0
ENCODING 752
SWIDTH 333 0
DWIDTH 13 0
BBX 8 5 3 -6
BITMAP
18
3C
3C
66
C3
ENDCHAR
STARTCHAR uni02F1
ENCODING 753
SWIDTH 333 0
DWIDTH 13 0
BBX 5 8 4 -8
BITMAP
08
18
70
E0
E0
70
18
08
ENDCHAR
STARTCHAR uni02F2
ENCODING 754
SWIDTH 333 0
DWIDTH 13 0
BBX 5 8 4 -8
BITMAP
80
C0
70
38
38
70
C0
80
ENDCHAR
STARTCHAR uni02F3
ENCODING 755
SWIDTH 333 0
DWIDTH 13 0
BBX 7 7 3 -8
BITMAP
38
44
82
82
82
44
38
ENDCHAR
STARTCHAR uni02F4
ENCODING 756
SWIDTH 333 0
DWIDTH 13 0
BBX 7 5 2 3
BITMAP
F0
78
38
1C
0E
ENDCHAR
STARTCHAR uni02F5
ENCODING 757
SWIDTH 333 0
DWIDTH 13 0
BBX 10 5 0 3
BITMAP
E700
7380
7380
3180
18C0
ENDCHAR
STARTCHAR uni02F6
ENCODING 758
SWIDTH 333 0
DWIDTH 13 0
BBX 14 5 0 3
BITMAP
1E3C
3C78
78F0
70E0
E1C0
ENDCHAR
STARTCHAR uni02F7
ENCODING 759
SWIDTH 333 0
DWIDTH 13 0
BBX 12 5 0 -8
BITMAP
3870
7E70
FFF0
E7E0
E1C0
ENDCHAR
STARTCHAR uni02F8
ENCODING 760
SWIDTH 277 0
DWIDTH 11 0
BBX 3 19 4 8
BITMAP
E0
E0
E0
00
00
00
00
00
00
00
00
00
00
00
00
00
E0
E0
E0
ENDCHAR
STARTCHAR uni02F9
ENCODING 761
SWIDTH 333 0
DWIDTH 13 0
BBX 6 6 3 21
BITMAP
FC
FC
C0
C0
C0
C0
ENDCHAR
STARTCHAR uni02FA
ENCODING 762
SWIDTH 333 0
DWIDTH 13 0
BBX 6 6 3 21
BITMAP
FC
FC
0C
0C
0C
0C
ENDCHAR
STARTCHAR uni02FB
ENCODING 763
SWIDTH 333 0
DWIDTH 13 0
BBX 6 6 3 -7
BITMAP
C0
C0
C0
C0
FC
FC
ENDCHAR
STARTCHAR uni02FC
ENCODING 764
SWIDTH 333 0
DWIDTH 13 0
BBX 6 6 4 -7
BITMAP
0C
0C
0C
0C
FC
FC
ENDCHAR
STARTCHAR uni02FD
ENCODING 765
SWIDTH 397 0
DWIDTH 15 0
BBX 14 7 1 -8
BITMAP
E01C
E01C
E01C
E01C
FFFC
FFFC
FFFC
ENDCHAR
STARTCHAR uni02FE
ENCODING 766
SWIDTH 397 0
DWIDTH 15 0
BBX 14 7 1 -8
BITMAP
E000
E000
E000
E000
FFFC
FFFC
FFFC
ENDCHAR
STARTCHAR uni02FF
ENCODING 767
SWIDTH 333 0
DWIDTH 13 0
BBX 11 12 1 -9
BITMAP
1800
1000
3000
6000
4000
FFE0
FFE0
4000
6000
3000
1000
1800
ENDCHAR
STARTCHAR gravecomb
ENCODING 768
SWIDTH 0 0
DWIDTH 0 0
BBX 7 5 -10 29
BITMAP
F0
78
38
1C
0E
ENDCHAR
STARTCHAR acutecomb
ENCODING 769
SWIDTH 0 0
DWIDTH 0 0
BBX 7 5 -7 29
BITMAP
1E
3C
78
70
E0
ENDCHAR
STARTCHAR uni0302
ENCODING 770
SWIDTH 0 0
DWIDTH 0 0
BBX 10 5 -5 22
BITMAP
1E00
3F00
7F80
7380
E1C0
ENDCHAR
STARTCHAR tildecomb
ENCODING 771
SWIDTH 0 0
DWIDTH 0 0
BBX 14 4 -17 29
BITMAP
3C1C
7F3C
E3F8
E0F0
ENDCHAR
STARTCHAR uni0304
ENCODING 772
SWIDTH 0 0
DWIDTH 0 0
BBX 12 3 -6 22
BITMAP
FFF0
FFF0
FFF0
ENDCHAR
STARTCHAR uni0305
ENCODING 773
SWIDTH 0 0
DWIDTH 0 0
BBX 22 3 -11 29
BITMAP
FFFFFC
FFFFFC
FFFFFC
ENDCHAR
STARTCHAR uni0306
ENCODING 774
SWIDTH 0 0
DWIDTH 0 0
BBX 11 5 -5 22
BITMAP
C060
C0E0
61C0
7FC0
1F00
ENDCHAR
STARTCHAR uni0307
ENCODING 775
SWIDTH 0 0
DWIDTH 0 0
BBX 3 3 -2 22
BITMAP
E0
E0
E0
ENDCHAR
STARTCHAR uni0308
ENCODING 776
SWIDTH 0 0
DWIDTH 0 0
BBX 9 3 -5 22
BITMAP
E380
E380
E380
ENDCHAR
STARTCHAR hookabovecomb
ENCODING 777
SWIDTH 0 0
DWIDTH 0 0
BBX 8 6 -9 28
BITMAP
FC
FE
07
07
1E
18
ENDCHAR
STARTCHAR uni030A
ENCODING 778
SWIDTH 0 0
DWIDTH 0 0
BBX 7 7 -3 22
BITMAP
38
44
82
82
82
44
38
ENDCHAR
STARTCHAR uni030B
ENCODING 779
SWIDTH 0 0
DWIDTH 0 0
BBX 14 5 -7 22
BITMAP
1E3C
3C78
78F0
70E0
E1C0
ENDCHAR
STARTCHAR uni030C
ENCODING 780
SWIDTH 0 0
DWIDTH 0 0
BBX 10 5 -5 22
BITMAP
E1C0
7380
7F80
3F00
1E00
ENDCHAR
STARTCHAR uni030D
ENCODING 781
SWIDTH 0 0
DWIDTH 0 0
BBX 2 6 -1 22
BITMAP
C0
C0
C0
C0
C0
C0
ENDCHAR
STARTCHAR uni030E
ENCODING 782
SWIDTH 0 0
DWIDTH 0 0
BBX 6 6 -3 22
BITMAP
CC
CC
CC
CC
CC
CC
ENDCHAR
STARTCHAR uni030F
ENCODING 783
SWIDTH 0 0
DWIDTH 0 0
BBX 10 5 -5 22
BITMAP
E700
7380
7380
3180
18C0
ENDCHAR
STARTCHAR uni0310
ENCODING 784
SWIDTH 0 0
DWIDTH 0 0
BBX 11 8 -5 22
BITMAP
0E00
0E00
0E00
C060
C0E0
61C0
7FC0
1F00
ENDCHAR
STARTCHAR uni0311
ENCODING 785
SWIDTH 0 0
DWIDTH 0 0
BBX 11 5 -6 22
BITMAP
1F00
7FC0
61C0
E0E0
C060
ENDCHAR
STARTCHAR uni0312
ENCODING 786
SWIDTH 0 0
DWIDTH 0 0
BBX 3 9 -2 18
BITMAP
60
60
C0
C0
C0
C0
E0
E0
E0
ENDCHAR
STARTCHAR uni0313
ENCODING 787
SWIDTH 0 0
DWIDTH 0 0
BBX 3 9 -2 18
BITMAP
E0
E0
E0
60
60
60
60
C0
C0
ENDCHAR
STARTCHAR uni0314
ENCODING 788
SWIDTH 0 0
DWIDTH 0 0
BBX 3 9 -2 18
BITMAP
E0
E0
E0
C0
C0
C0
C0
60
60
ENDCHAR
STARTCHAR uni0315
ENCODING 789
SWIDTH 0 0
DWIDTH 0 0
BBX 3 9 0 18
BITMAP
E0
E0
E0
60
60
60
60
C0
C0
ENDCHAR
STARTCHAR uni0316
ENCODING 790
SWIDTH 0 0
DWIDTH 0 0
BBX 7 5 -3 -8
BITMAP
F0
78
38
1C
0E
ENDCHAR
STARTCHAR uni0317
ENCODING 791
SWIDTH 0 0
DWIDTH 0 0
BBX 7 5 -4 -8
BITMAP
1E
3C
78
70
E0
ENDCHAR
STARTCHAR uni0318
ENCODING 792
SWIDTH 0 0
DWIDTH 0 0
BBX 6 6 -3 -7
BITMAP
0C
0C
FC
FC
0C
0C
ENDCHAR
STARTCHAR uni0319
ENCODING 793
SWIDTH 0 0
DWIDTH 0 0
BBX 6 6 -3 -7
BITMAP
C0
C0
FC
FC
C0
C0
ENDCHAR
STARTCHAR uni031A
ENCODING 794
SWIDTH 0 0
DWIDTH 0 0
BBX 14 9 -7 22
BITMAP
FFFC
FFFC
FFFC
001C
001C
001C
001C
001C
001C
ENDCHAR
STARTCHAR uni031B
ENCODING 795
SWIDTH 0 0
DWIDTH 0 0
BBX 5 9 -1 18
BITMAP
38
38
38
18
18
18
10
30
E0
ENDCHAR
STARTCHAR uni031C
ENCODING 796
SWIDTH 0 0
DWIDTH 0 0
BBX 4 7 -1 -8
BITMAP
30
40
80
80
80
40
30
ENDCHAR
STARTCHAR uni031D
ENCODING 797
SWIDTH 0 0
DWIDTH 0 0
BBX 6 6 -3 -7
BITMAP
30
30
30
30
FC
FC
ENDCHAR
STARTCHAR uni031E
ENCODING 798
SWIDTH 0 0
DWIDTH 0 0
BBX 6 6 -3 -7
BITMAP
FC
FC
30
30
30
30
ENDCHAR
STARTCHAR uni031F
ENCODING 799
SWIDTH 0 0
DWIDTH 0 0
BBX 6 6 -3 -7
BITMAP
30
30
FC
FC
30
30
ENDCHAR
STARTCHAR uni0320
ENCODING 800
SWIDTH 0 0
DWIDTH 0 0
BBX 12 3 -6 -6
BITMAP
FFF0
FFF0
FFF0
ENDCHAR
STARTCHAR uni0321
ENCODING 801
SWIDTH 0 0
DWIDTH 0 0
BBX 7 11 -4 -8
BITMAP
0E
0E
0E
0E
0E
0E
0E
1E
FC
FC
F8
ENDCHAR
STARTCHAR uni0322
ENCODING 802
SWIDTH 0 0
DWIDTH 0 0
BBX 7 11 0 -8
BITMAP
E0
E0
E0
E0
E0
E0
E0
F0
7E
7E
3E
ENDCHAR
STARTCHAR dotbelowcomb
ENCODING 803
SWIDTH 0 0
DWIDTH 0 0
BBX 4 4 -15 -6
BITMAP
F0
F0
F0
F0
ENDCHAR
STARTCHAR uni0324
ENCODING 804
SWIDTH 0 0
DWIDTH 0 0
BBX 9 3 -5 -8
BITMAP
E380
E380
E380
ENDCHAR
STARTCHAR uni0325
ENCODING 805
SWIDTH 0 0
DWIDTH 0 0
BBX 7 7 -3 -8
BITMAP
38
44
82
82
82
44
38
ENDCHAR
STARTCHAR uni0326
ENCODING 806
SWIDTH 0 0
DWIDTH 0 0
BBX 3 7 -2 -8
BITMAP
E0
E0
E0
60
60
C0
40
ENDCHAR
STARTCHAR uni0327
ENCODING 807
SWIDTH 0 0
DWIDTH 0 0
BBX 8 7 -4 -7
BITMAP
18
30
3E
07
07
FE
FC
ENDCHAR
STARTCHAR uni0328
ENCODING 808
SWIDTH 0 0
DWIDTH 0 0
BBX 6 8 -2 -8
BITMAP
30
60
C0
C0
C0
E0
FC
3C
ENDCHAR
STARTCHAR uni0329
ENCODING 809
SWIDTH 0 0
DWIDTH 0 0
BBX 2 7 -1 -8
BITMAP
C0
C0
C0
C0
C0
C0
C0
ENDCHAR
STARTCHAR uni032A
ENCODING 810
SWIDTH 0 0
DWIDTH 0 0
BBX 14 7 -7 -8
BITMAP
FFFC
FFFC
FFFC
E01C
E01C
E01C
E01C
ENDCHAR
STARTCHAR uni032B
ENCODING 811
SWIDTH 0 0
DWIDTH 0 0
BBX 11 4 -6 -6
BITMAP
8420
8C60
7BC0
7BC0
ENDCHAR
STARTCHAR uni032C
ENCODING 812
SWIDTH 0 0
DWIDTH 0 0
BBX 10 5 -5 -8
BITMAP
E1C0
7380
7F80
3F00
1E00
ENDCHAR
STARTCHAR uni032D
ENCODING 813
SWIDTH 0 0
DWIDTH 0 0
BBX 10 5 -5 -8
BITMAP
1E00
3F00
7F80
7380
E1C0
ENDCHAR
STARTCHAR uni032E
ENCODING 814
SWIDTH 0 0
DWIDTH 0 0
BBX 11 5 -5 -8
BITMAP
C060
C0E0
61C0
7FC0
1F00
ENDCHAR
STARTCHAR uni032F
ENCODING 815
SWIDTH 0 0
DWIDTH 0 0
BBX 11 5 -5 -8
BITMAP
1F00
7FC0
61C0
E0E0
C060
ENDCHAR
STARTCHAR uni0330
ENCODING 816
SWIDTH 0 0
DWIDTH 0 0
BBX 12 5 -7 -8
BITMAP
3870
7E70
FFF0
E7E0
E1C0
ENDCHAR
STARTCHAR uni0331
ENCODING 817
SWIDTH 0 0
DWIDTH 0 0
BBX 12 3 -6 -6
BITMAP
FFF0
FFF0
FFF0
ENDCHAR
STARTCHAR uni0332
ENCODING 818
SWIDTH 0 0
DWIDTH 0 0
BBX 22 3 -11 -8
BITMAP
FFFFFC
FFFFFC
FFFFFC
ENDCHAR
STARTCHAR uni0333
ENCODING 819
SWIDTH 0 0
DWIDTH 0 0
BBX 12 5 -6 -9
BITMAP
FFF0
FFF0
0000
FFF0
FFF0
ENDCHAR
STARTCHAR uni0334
ENCODING 820
SWIDTH 0 0
DWIDTH 0 0
BBX 12 5 -7 4
BITMAP
3870
7E70
FFF0
E7E0
E1C0
ENDCHAR
STARTCHAR uni0335
ENCODING 821
SWIDTH 0 0
DWIDTH 0 0
BBX 12 3 -6 5
BITMAP
FFF0
FFF0
FFF0
ENDCHAR
STARTCHAR uni0336
ENCODING 822
SWIDTH 0 0
DWIDTH 0 0
BBX 22 3 -11 5
BITMAP
FFFFFC
FFFFFC
FFFFFC
ENDCHAR
STARTCHAR uni0337
ENCODING 823
SWIDTH 0 0
DWIDTH 0 0
BBX 19 19 -9 -1
BITMAP
000040
0000E0
0001C0
000380
000700
000E00
001C00
003800
007000
00E000
01C000
038000
070000
0E0000
1C0000
380000
700000
E00000
400000
ENDCHAR
STARTCHAR uni0338
ENCODING 824
SWIDTH 0 0
DWIDTH 0 0
BBX 11 27 -5 0
BITMAP
00E0
00E0
01C0
01C0
01C0
0380
0380
0380
0780
0700
0700
0700
0E00
0E00
0E00
1C00
1C00
1C00
3C00
3800
3800
3800
7000
7000
7000
E000
E000
ENDCHAR
STARTCHAR uni0339
ENCODING 825
SWIDTH 0 0
DWIDTH 0 0
BBX 4 7 -3 -8
BITMAP
C0
20
10
10
10
20
C0
ENDCHAR
STARTCHAR uni033A
ENCODING 826
SWIDTH 0 0
DWIDTH 0 0
BBX 14 7 -7 -8
BITMAP
E01C
E01C
E01C
E01C
FFFC
FFFC
FFFC
ENDCHAR
STARTCHAR uni033B
ENCODING 827
SWIDTH 0 0
DWIDTH 0 0
BBX 7 7 -3 -8
BITMAP
FE
FE
C6
C6
C6
FE
FE
ENDCHAR
STARTCHAR uni033C
ENCODING 828
SWIDTH 0 0
DWIDTH 0 0
BBX 11 4 -6 -6
BITMAP
7BC0
FBE0
8E20
0400
ENDCHAR
STARTCHAR uni033D
ENCODING 829
SWIDTH 0 0
DWIDTH 0 0
BBX 8 8 -4 22
BITMAP
42
E7
7E
3C
3C
7E
E7
42
ENDCHAR
STARTCHAR uni033E
ENCODING 830
SWIDTH 0 0
DWIDTH 0 0
BBX 4 10 -2 22
BITMAP
30
F0
C0
C0
60
70
30
30
F0
C0
ENDCHAR
STARTCHAR uni033F
ENCODING 831
SWIDTH 0 0
DWIDTH 0 0
BBX 22 5 -11 28
BITMAP
FFFFFC
FFFFFC
000000
FFFFFC
FFFFFC
ENDCHAR
STARTCHAR uni0340
ENCODING 832
SWIDTH 0 0
DWIDTH 0 0
BBX 7 5 -7 22
BITMAP
F0
78
38
1C
0E
ENDCHAR
STARTCHAR uni0341
ENCODING 833
SWIDTH 0 0
DWIDTH 0 0
BBX 7 5 0 22
BITMAP
1E
3C
78
70
E0
ENDCHAR
STARTCHAR uni0342
ENCODING 834
SWIDTH 0 0
DWIDTH 0 0
BBX 12 5 -7 22
BITMAP
3870
7E70
FFF0
E7E0
E1C0
ENDCHAR
STARTCHAR uni0343
ENCODING 835
SWIDTH 0 0
DWIDTH 0 0
BBX 3 9 -2 18
BITMAP
E0
E0
E0
60
60
60
60
C0
C0
ENDCHAR
STARTCHAR uni0344
ENCODING 836
SWIDTH 0 0
DWIDTH 0 0
BBX 12 5 -6 22
BITMAP
0380
0700
E770
E670
EC70
ENDCHAR
STARTCHAR uni0345
ENCODING 837
SWIDTH 0 0
DWIDTH 0 0
BBX 3 6 -2 -8
BITMAP
40
E0
E0
E0
E0
E0
ENDCHAR
STARTCHAR uni0346
ENCODING 838
SWIDTH 0 0
DWIDTH 0 0
BBX 14 7 -7 22
BITMAP
FFFC
FFFC
FFFC
E01C
E01C
E01C
E01C
ENDCHAR
STARTCHAR uni0347
ENCODING 839
SWIDTH 0 0
DWIDTH 0 0
BBX 18 5 -9 -9
BITMAP
FFFFC0
FFFFC0
000000
FFFFC0
FFFFC0
ENDCHAR
STARTCHAR uni0348
ENCODING 840
SWIDTH 0 0
DWIDTH 0 0
BBX 6 7 -3 -8
BITMAP
CC
CC
CC
CC
CC
CC
CC
ENDCHAR
STARTCHAR uni0349
ENCODING 841
SWIDTH 0 0
DWIDTH 0 0
BBX 6 6 -3 -7
BITMAP
FC
FC
0C
0C
0C
0C
ENDCHAR
STARTCHAR uni034A
ENCODING 842
SWIDTH 0 0
DWIDTH 0 0
BBX 12 7 -6 21
BITMAP
0300
3B30
7F30
FFF0
CFE0
CDC0
1C00
ENDCHAR
STARTCHAR uni034B
ENCODING 843
SWIDTH 0 0
DWIDTH 0 0
BBX 12 10 -6 22
BITMAP
0E00
0E00
0E00
3830
7E30
C7E0
C1C0
0E00
0E00
0E00
ENDCHAR
STARTCHAR uni034C
ENCODING 844
SWIDTH 0 0
DWIDTH 0 0
BBX 12 8 -6 22
BITMAP
3830
7E30
C7E0
C1C0
3830
7E30
C7E0
C1C0
ENDCHAR
STARTCHAR uni034D
ENCODING 845
SWIDTH 0 0
DWIDTH 0 0
BBX 9 4 -4 -6
BITMAP
4100
FF80
FF80
4100
ENDCHAR
STARTCHAR uni034E
ENCODING 846
SWIDTH 0 0
DWIDTH 0 0
BBX 4 7 -2 -8
BITMAP
60
F0
60
60
60
60
60
ENDCHAR
STARTCHAR uni034F
ENCODING 847
SWIDTH 0 0
DWIDTH 0 0
BBX 27 28 -13 0
BITMAP
FC1F07E0
FC1F07E0
C0000060
C0000060
C0000060
C0060060
0036C000
01B0D800
01801800
00000000
06000C00
C6000C60
C0000060
CC000660
CC000660
C0000060
C6000C60
06000C00
00000000
01801800
01801800
0030C000
C036C060
C0060060
C0000060
C0000060
FC1F07E0
FC1F07E0
ENDCHAR
STARTCHAR uni0350
ENCODING 848
SWIDTH 0 0
DWIDTH 0 0
BBX 5 8 -3 22
BITMAP
80
C0
70
38
38
70
C0
80
ENDCHAR
STARTCHAR uni0351
ENCODING 849
SWIDTH 0 0
DWIDTH 0 0
BBX 4 7 -1 22
BITMAP
30
40
80
80
80
40
30
ENDCHAR
STARTCHAR uni0352
ENCODING 850
SWIDTH 0 0
DWIDTH 0 0
BBX 11 8 -5 22
BITMAP
1F00
7FC0
61C0
E0E0
C060
0E00
0E00
0E00
ENDCHAR
STARTCHAR uni0353
ENCODING 851
SWIDTH 0 0
DWIDTH 0 0
BBX 8 8 -4 -8
BITMAP
42
E7
7E
3C
3C
7E
E7
42
ENDCHAR
STARTCHAR uni0354
ENCODING 852
SWIDTH 0 0
DWIDTH 0 0
BBX 5 8 -3 -8
BITMAP
08
18
70
E0
E0
70
18
08
ENDCHAR
STARTCHAR uni0355
ENCODING 853
SWIDTH 0 0
DWIDTH 0 0
BBX 5 8 -3 -8
BITMAP
80
C0
70
38
38
70
C0
80
ENDCHAR
STARTCHAR uni0356
ENCODING 854
SWIDTH 0 0
DWIDTH 0 0
BBX 13 8 -5 -8
BITMAP
8000
C0C0
71E0
39E0
3B30
7618
C000
8000
ENDCHAR
STARTCHAR uni0357
ENCODING 855
SWIDTH 0 0
DWIDTH 0 0
BBX 4 7 -3 22
BITMAP
C0
20
10
10
10
20
C0
ENDCHAR
STARTCHAR uni0358
ENCODING 856
SWIDTH 0 0
DWIDTH 0 0
BBX 3 3 5 22
BITMAP
E0
E0
E0
ENDCHAR
STARTCHAR uni0359
ENCODING 857
SWIDTH 0 0
DWIDTH 0 0
BBX 7 7 -4 -8
BITMAP
10
10
D6
7C
38
6C
44
ENDCHAR
STARTCHAR uni035A
ENCODING 858
SWIDTH 0 0
DWIDTH 0 0
BBX 13 7 -7 -8
BITMAP
38E0
4510
8208
8208
8208
4710
38E0
ENDCHAR
STARTCHAR uni035B
ENCODING 859
SWIDTH 0 0
DWIDTH 0 0
BBX 8 10 -4 22
BITMAP
30
30
60
60
7F
FE
06
06
0C
0C
ENDCHAR
STARTCHAR uni035C
ENCODING 860
SWIDTH 0 0
DWIDTH 0 0
BBX 29 7 -3 -8
BITMAP
C0000018
60000030
380000E0
1C0001C0
0F800F80
03FFFE00
003FE000
ENDCHAR
STARTCHAR uni035D
ENCODING 861
SWIDTH 0 0
DWIDTH 0 0
BBX 29 7 -3 22
BITMAP
C0000018
60000030
380000E0
1C0001C0
0F800F80
03FFFE00
003FE000
ENDCHAR
STARTCHAR uni035E
ENCODING 862
SWIDTH 0 0
DWIDTH 0 0
BBX 22 3 -3 24
BITMAP
FFFFFC
FFFFFC
FFFFFC
ENDCHAR
STARTCHAR uni035F
ENCODING 863
SWIDTH 0 0
DWIDTH 0 0
BBX 22 3 -3 -6
BITMAP
FFFFFC
FFFFFC
FFFFFC
ENDCHAR
STARTCHAR uni0360
ENCODING 864
SWIDTH 0 0
DWIDTH 0 0
BBX 29 6 -3 22
BITMAP
07C00018
1FF80030
383F0030
6007E0E0
6000FFC0
C0001F00
ENDCHAR
STARTCHAR uni0361
ENCODING 865
SWIDTH 0 0
DWIDTH 0 0
BBX 29 7 -3 22
BITMAP
003FF000
03FFFE00
0F800F80
1C0001C0
380000E0
60000030
C0000018
ENDCHAR
STARTCHAR uni0362
ENCODING 866
SWIDTH 0 0
DWIDTH 0 0
BBX 21 4 -3 -6
BITMAP
000010
FFFFF8
FFFFF8
000010
ENDCHAR
ENDFONT
